<svg xmlns="http://www.w3.org/2000/svg" viewBox="0 0 614.173 188.973">
  <path d="M614.173 188.973H0V-.004h614.173v188.977" />
  <path d="M240.568 118.157c0-15.926-7.72-27.037-20.745-27.037-14.16 0-20.764 13.344-20.764 27.037 0 15.916 7.72 27.02 20.76 27.02 14.15 0 20.74-13.342 20.74-27.02zm9.663-.316c0 17.52-13.51 30.24-30.4 30.24-17.22 0-30.41-12.86-30.41-29.6 0-17.52 13.52-30.24 30.42-30.24 17.22 0 30.41 12.88 30.41 29.62m176.02.32c0-15.92-7.73-27.03-20.75-27.03-14.16 0-20.75 13.35-20.75 27.04 0 15.92 7.73 27.02 20.76 27.02 14.16 0 20.76-13.34 20.76-27.02zm9.66-.31c0 17.52-13.51 30.23-30.41 30.23-17.22 0-30.41-12.86-30.41-29.6 0-17.52 13.52-30.24 30.41-30.24 17.22 0 30.41 12.88 30.41 29.62m36.85 9.96c-3.38-4.83-4.67-6.59-8.85-6.59h-4.51v19.63c0 1.61.65 2.4 2.42 2.73l6.59 1.45v2.1H442.5v-2.1l5.956-1.44c1.765-.47 2.41-1.12 2.41-2.73v-45.4c0-1.61-.645-2.25-2.41-2.73L442.5 91.3v-2.1h25.26c5.316 0 9.013.49 12.07 1.606 6.277 2.42 9.813 8.383 9.813 14 0 7.09-5.308 13.05-14.16 15.117v.325c1.774.82 2.738 1.94 9.013 10.157l7.884 10.45c1.124 1.61 2.575 2.565 4.345 2.895l5.792 1.28v2.104H488.68c-1.608 0-2.412-.5-3.86-2.43l-12.068-16.9zm-13.36-9.33h7.24c10.95 0 13.36-6.91 13.36-13.51 0-4.99-2.25-9.65-7.4-11.9-2.73-1.13-5.31-1.13-8.85-1.13h-4.35v26.55M359.34 109h2.414v19.31h-2.42l-1.45-5.79c-.482-2.1-1.766-2.9-3.7-2.9h-14v21.24c0 1.61.647 2.4 2.418 2.73l6.598 1.444v2.105h-25.9v-2.11l5.953-1.45c1.77-.48 2.416-1.12 2.416-2.73V95.46c0-1.613-.65-2.252-2.42-2.73l-5.95-1.45v-2.1h43.76v14.496h-2.42l-2.74-8.7c-.65-2.25-1.61-3.06-3.54-3.06h-18.19v24.937h14c1.93 0 3.05-.795 3.7-2.9l1.45-4.984m164.76-17.05v49.87c0 2.1.48 2.59 2.57 2.59h7.07c6.76 0 11.75-.99 15.29-3.55 5.95-4.34 8.69-12.23 8.69-22.21 0-9.81-2.74-19.46-10.78-24.13-3.38-1.94-7.73-2.58-14.49-2.58h-8.37zm-16.9 55.19V145l5.95-1.446c1.77-.474 2.41-1.12 2.41-2.73V95.46c0-1.613-.64-2.252-2.42-2.73l-5.95-1.45v-2.1h27.19c7.4 0 12.71.966 17.05 2.898 10.94 5 15.93 15.77 15.93 26.39 0 10.31-3.87 19.96-13.68 25.1-4.5 2.43-10.78 3.55-18.98 3.55h-27.5m-234.26-2.1v2.104H252.5v-2.103l5.14-1.28c1.94-.5 3.215-1.12 4.5-2.57l17.705-22.21-17.705-23.49c-1.122-1.62-2.564-2.41-4.342-2.9l-4.83-1.29v-2.1h25.423v2.1l-5.46 1.12c-1.94.33-1.45 1.13-.49 2.42l13.03 18.66h.32l13.36-18.67c.97-1.29 1.29-1.77-.48-2.26l-5.15-1.29v-2.1h20.44v2.1l-5.15 1.28c-1.93.49-3.22 1.12-4.51 2.57l-16.73 21.09 18.67 24.6c1.13 1.61 2.57 2.4 4.35 2.9l4.83 1.28v2.1H290V145l5.47-1.116c1.932-.33 1.61-.955.643-2.27l-14.16-19.946h-.32l-14.32 19.813c-.97 1.28-1.29 1.75.48 2.24l5.153 1.28m-60.96-83.08c-1.6 1.6-4 2.67-7.35 2.67-2.92 0-5.624-.92-7.456-2.75-2.5-2.5-2.388-5.68-2.388-9.09V36.63h3.28v17.31c0 2.19-.067 4.322 1.625 6.015 1.17 1.172 2.978 1.805 5.056 1.805 2.03 0 3.66-.7 4.676-1.718 1.88-1.88 1.76-3.933 1.76-8.89v-14.52h3.23V50.3c0 5.195.21 8.96-2.45 11.623m29.15 2.15L227.91 41.58l.083 22.494h-3.02V36.632h3.368l13.27 22.62-.08-22.62h3.02v27.442h-3.41M256 64.07V36.634h3.3V64.07H256m23.83 0h-3.78l-9.46-27.437h3.44l8.003 24.224 8.243-24.224h3.195l-9.64 27.438m17.11 0V36.64h14.92v2.736h-11.69v9.056h10.97V51.1h-10.97v10.16h12.01v2.817h-15.25m39.1 0l-3.15-7.11c-1.95-4.374-2.84-4.822-6.82-4.822h-1.91v11.93h-3.23v-27.44h5.92c3.66 0 6.42-.023 8.58 2.136 1.37 1.37 2.14 3.2 2.14 5.48 0 1.91-.55 3.5-1.7 4.72-.99 1.05-2.62 1.98-4.4 2.17.97.06 1.77.58 2.29 1.1.75.75 1.29 1.88 2.1 3.67l3.65 8.17zm-3-23.307c-1.57-1.576-3.61-1.5-5.85-1.5h-3.04v10.24h1.09c2.77 0 5.75.142 7.64-1.74.91-.91 1.42-2.186 1.42-3.578 0-1.542-.6-2.78-1.25-3.43m38.48 23.308V36.634h3.31V64.07h-3.3m22.13-24.7v24.7h-3.29v-24.7h-8.16v-2.737h19.59v2.736h-8.13m23.93 13.85v10.85h-3.26V53.22l-8.71-16.594h3.78l6.76 12.87 6.57-12.87h3.58l-8.71 16.596m39.5 11.36c-7.1 0-12.29-5.87-12.29-14.12 0-8.474 5.14-14.364 12.55-14.364 7.18 0 12.26 5.827 12.26 14.11 0 8.496-5.08 14.37-12.51 14.37zm-.01-25.68c-5.37 0-8.86 4.542-8.86 11.384 0 6.82 3.89 11.465 9.05 11.465 5.74 0 8.93-4.88 8.93-11.67 0-6.69-3.76-11.17-9.1-11.17m24.82.46v9.06h10.61v2.67H481.9v12.98h-3.278V36.63h14.57v2.738h-11.3m-135.77 3.96c0-4.213 3.39-7.22 8.35-7.22 5.02 0 7.427 2.59 7.67 2.86l-1.61 1.95c-.613-.47-2.81-2.084-5.842-2.084-3.5 0-5.44 1.83-5.44 4.318 0 1.203.49 2.067 1.282 2.778.943.846 2.315 1.47 3.793 2.15 1.846.847 4.366 1.797 6.056 3.55 1.17 1.21 2.05 2.79 2.05 4.95 0 4.565-3.16 8.04-8.86 8.04-4.85 0-7.91-2.673-8.2-2.94l1.51-2.226c.78.58 3.83 2.38 6.62 2.38 4.13 0 5.67-2.26 5.67-4.985 0-1.27-.57-2.29-1.43-3.11-1.28-1.24-3.22-2.06-5.07-2.91-1.84-.85-3.62-1.73-4.87-3.05-.83-.87-1.65-2.3-1.65-4.45m-252.2 30.5c0-2.43-.82-4.38-2.6-5.43-1.11-.66-2.62-.87-4.48-.87H73.33v27.31h14.72c3.396 0 5.39.76 5.563 3.8h.324V73.83m1.884 0c0-2.425.83-4.382 2.6-5.426 1.12-.655 2.63-.87 4.49-.87h13.62v27.31h-14.81c-3.39 0-5.38.763-5.56 3.806h-.32V73.83" fill="#fff"/>
  <path d="M119.368 69.56v28.87H98.434l-.238.59c-.363.9-1.017 1.733-3.3 1.733-2.282 0-2.93-.833-3.298-1.734l-.24-.59H70.484V69.56h-1.89v.878l-1.81-.555c-.21-.713-.862-1.237-1.642-1.237-.947 0-1.72.77-1.72 1.72s.773 1.72 1.72 1.72c.416 0 .792-.153 1.09-.398l2.364.726v2.32l-1.778-.317c-.262-.613-.87-1.045-1.58-1.045-.95 0-1.72.77-1.72 1.72s.77 1.72 1.72 1.72c.49 0 .93-.208 1.243-.537l2.12.38v2.365l-1.86-.082c-.3-.5-.84-.84-1.47-.84-.94 0-1.72.77-1.72 1.72s.78 1.72 1.72 1.72c.58 0 1.08-.283 1.39-.714l1.94.085v2.57l-1.9.07c-.31-.44-.82-.73-1.4-.73-.94 0-1.72.77-1.72 1.72s.78 1.72 1.72 1.72c.62 0 1.16-.34 1.47-.83l1.83-.07v2.37l-2.07.35c-.31-.34-.76-.55-1.25-.55-.95 0-1.72.77-1.72 1.72s.77 1.72 1.72 1.72c.7 0 1.31-.43 1.57-1.04l1.76-.3v2.32l-2.27.69c-.29-.25-.67-.4-1.09-.4-.94 0-1.72.77-1.72 1.72s.77 1.71 1.72 1.71c.78 0 1.43-.52 1.64-1.23l1.72-.52v2.25l-2.51 1.08c-.27-.18-.59-.29-.94-.29-.95 0-1.72.77-1.72 1.72s.77 1.72 1.72 1.72c.85 0 1.55-.61 1.69-1.42l1.77-.76v2.05h21.6c.88 1.53 2.4 2.32 4.7 2.32 2.31 0 3.83-.79 4.7-2.33h21.66v-30.7h-1.89M80.7 59.93c-4.366 0-7.904.68-7.904 1.516 0 .84 3.534 1.517 7.9 1.517 4.36 0 7.9-.678 7.9-1.517 0-.837-3.54-1.516-7.91-1.516m10.89-9.472L87 53.668l-.04.327 1.084.486c.218.11.218.28.108.39l-2.867 2.42-.27-.02-2.03-2.99c-.14-.19-.09-.38.156-.43l1.37-.22v-.34l-3.53-4.99h-.58l-3.53 4.99v.34l1.37.23c.25.04.3.24.16.43l-2.03 2.99-.27.03-2.67-2.42c-.11-.1-.11-.27.11-.38l1.08-.5-.04-.32-4.75-3.21-.38.15 2.79 8.52c1.42-.64 4.68-1.09 8.49-1.1 3.81.01 7.06.46 8.48 1.1L92 50.62l-.39-.15m3.295 66.65c-4.37 0-7.91.68-7.91 1.51 0 .84 3.54 1.52 7.9 1.52s7.9-.68 7.9-1.52c0-.83-3.54-1.51-7.91-1.51m10.885-9.47l-4.567 3.21-.04.33 1.085.49c.21.11.21.28.11.39l-2.87 2.42-.27-.024-2.03-2.997c-.14-.2-.09-.39.15-.43l1.36-.22v-.35l-3.536-5h-.58l-3.53 4.99v.34l1.36.23c.246.04.297.23.158.43l-2.03 2.99-.27.02-2.67-2.42c-.11-.11-.11-.28.11-.39l1.088-.49-.04-.33-4.75-3.21-.39.15 2.79 8.53c1.42-.64 4.67-1.09 8.48-1.11 3.81.02 7.07.47 8.48 1.11l2.79-8.53-.38-.15m3.26-47.7c-4.37 0-7.91.68-7.91 1.51 0 .84 3.54 1.52 7.91 1.52 4.368 0 7.9-.68 7.9-1.52s-3.532-1.52-7.9-1.52m10.88-9.47l-4.56 3.21-.04.322 1.088.487c.215.11.216.28.107.383l-2.865 2.42-.27-.02-2.03-2.99c-.14-.193-.09-.39.16-.43l1.36-.22v-.343l-3.53-4.994h-.58l-3.53 4.997v.34l1.36.23c.25.04.3.23.16.43l-2.03 2.99-.27.025-2.677-2.45c-.11-.11-.1-.28.11-.39l1.08-.45-.04-.33-4.75-3.21-.38.15 2.79 8.53c1.42-.64 4.67-1.088 8.49-1.1 3.81.012 7.06.46 8.48 1.1l2.79-8.53-.39-.15" fill="#fff"/>
  <path d="M76.523 74.83c0 .535.134.637.422.637.518 0 1.04-.57 1.04-1.638 0-1.3-.655-1.66-1.167-1.66-.14 0-.217.02-.26.04-.03.01-.035.15-.035.3zm.295-2.957c.74 0 1.356.145 1.758.536.283.27.517.71.517 1.23 0 1.5-1.137 2.14-2.528 2.14h-1.552v-.24c.438-.04.488-.08.488-.73v-1.98c0-.65-.05-.69-.44-.73v-.24h1.76m3.92 1.81c0 1.09.41 1.88 1 1.88.52 0 .8-.5.8-1.59 0-1.21-.43-1.88-.95-1.88-.46 0-.85.53-.85 1.58zm2.92.1c0 1.29-.88 2.09-2.03 2.09-1.21 0-2-.89-2-2 0-.98.65-2.1 2.09-2.1 1.1 0 1.95.8 1.95 1.99m5.32-1.91v.24c-.46.04-.48.07-.46.7l.06 2.01c.02.67.04.69.47.73v.23h-1.89v-.24c.45-.04.47-.06.46-.73l-.02-2.12h-.02l-1.16 3.02h-.32L85 72.9h-.01l-.04 1.334c-.02.52-.01.807.01.993.03.22.16.27.55.3v.234H84v-.24c.29-.02.403-.08.44-.31.03-.18.066-.5.096-1.05l.065-1.21c.05-.76 0-.82-.47-.86v-.24h1.42l1.06 2.38.92-2.38H89m1.957 2.95c0 .65.047.69.46.73v.23h-1.95v-.24c.417-.03.467-.08.467-.73V72.8c0-.65-.05-.69-.463-.726v-.236h1.95v.237c-.41.04-.46.08-.46.73v1.99m-9.7 8.23h-.52l-2.23-2.84h-.01v1.11c0 .63.02.96.05 1.15.03.21.2.29.59.307V83h-1.5v-.234c.27-.01.42-.094.45-.306.03-.19.05-.52.05-1.15V80.2c0-.447-.01-.525-.13-.694-.08-.127-.23-.168-.45-.187v-.24h1.33l2.01 2.5h.02v-.81c0-.64-.02-.97-.05-1.15-.03-.21-.19-.29-.59-.31v-.22h1.53v.23c-.3.01-.46.1-.49.31-.02.18-.04.52-.04 1.15v2.26m2.44 0l-1.2-3.14c-.2-.52-.31-.55-.6-.58v-.24h1.94v.23l-.21.02c-.22.02-.22.07-.16.29.11.33.58 1.52.81 2.11.19-.51.58-1.66.67-1.95.13-.37.09-.44-.18-.47l-.18-.02v-.23h1.46v.23c-.34.04-.43.07-.66.62-.04.08-.77 1.87-1.22 3.1h-.47m2.71-1.29c.12.35.48 1.02 1.07 1.02.31 0 .55-.21.55-.6 0-.36-.24-.56-.6-.73l-.09-.04c-.49-.23-1.05-.54-1.05-1.19 0-.68.49-1.24 1.436-1.24.188 0 .38.03.557.07.14.04.233.06.31.082.02.24.066.53.13.94l-.26.04c-.13-.39-.34-.82-.814-.82-.31 0-.526.236-.526.525 0 .3.237.48.62.65l.13.06c.56.256 1.03.56 1.03 1.27 0 .74-.593 1.28-1.525 1.28-.24 0-.49-.047-.65-.1-.18-.06-.31-.11-.38-.146-.05-.28-.13-.6-.2-1.006l.26-.08m-7.835 7.5c0 .65.05.69.46.73v.23H77.1V90c.42-.038.47-.08.47-.73v-1.986c0-.65-.05-.692-.466-.728v-.235h1.95v.24c-.42.04-.466.08-.466.73v1.99m2.386.08c0 .32.01.47.12.52.096.05.234.06.42.06.193 0 .453-.01.58-.17.096-.11.196-.27.294-.59l.26.05c-.04.23-.17.86-.22 1.04h-2.98V90c.45-.038.5-.08.5-.73v-1.986c0-.65-.05-.692-.45-.728v-.235h1.95v.24c-.44.04-.48.08-.48.73v2.07m3.36 0c0 .32.01.47.12.52.09.05.23.06.42.06.19 0 .45-.01.58-.17.09-.11.19-.27.29-.59l.26.05c-.04.23-.17.86-.22 1.04h-2.99V90c.46-.038.5-.08.5-.73v-1.986c0-.65-.04-.692-.45-.728v-.235h1.96v.24c-.43.04-.48.08-.48.73v2.07m2.88.93c-.42-1.08-.984-2.57-1.2-3.13-.2-.52-.323-.55-.61-.58v-.23h1.94v.24l-.21.03c-.22.02-.22.08-.15.29.11.34.59 1.52.81 2.11.19-.51.575-1.66.67-1.94.13-.37.09-.43-.18-.46l-.18-.02v-.23h1.46v.24c-.35.04-.43.07-.667.62-.04.09-.77 1.87-1.22 3.1h-.46m16.18-18.41v.24c-.46.04-.48.07-.462.7l.06 2.02c.02.67.03.69.468.73v.24h-1.88v-.23c.45-.04.47-.06.46-.73l-.01-2.12h-.02l-1.16 3.02h-.32l-1.1-2.8h-.01l-.05 1.336c-.02.52-.01.81.01.995.026.22.16.275.55.305v.23h-1.5v-.24c.29-.02.4-.08.44-.302.03-.19.068-.51.098-1.056l.06-1.212c.05-.76 0-.83-.48-.87v-.24h1.42l1.05 2.382.93-2.38h1.46m1.95 2.95c0 .65.05.69.47.73v.23h-1.95v-.23c.41-.04.46-.08.46-.73v-1.99c0-.65-.05-.69-.463-.73v-.24h1.95v.24c-.415.04-.46.08-.46.73v1.99m4.48 1.01h-.515l-2.23-2.86h-.01v1.11c0 .63.02.962.05 1.15.03.21.19.29.59.306v.232h-1.5v-.24c.26-.01.42-.09.45-.31.02-.18.05-.51.05-1.15V73c0-.44-.01-.52-.134-.69-.09-.12-.24-.17-.46-.18v-.24h1.33l2.005 2.5h.01v-.81c0-.63-.03-.96-.05-1.15-.03-.21-.19-.29-.59-.3v-.23h1.54v.24c-.31.01-.46.094-.49.304-.03.188-.05.52-.05 1.15v2.265m1.75-1.58h.77l-.38-1.15h-.02zm.76 1.3l.18-.03c.22-.03.23-.09.15-.31l-.22-.62h-.99l-.18.57c-.08.26-.08.32.19.35l.17.02v.23h-1.41v-.24c.31-.04.4-.07.6-.57l1.2-3.12.41-.08.41 1.14c.25.72.51 1.43.74 2.04.19.52.3.55.6.59v.24h-1.89v-.24m-8.99 6.49c0 .65.04.69.55.73V83h-2.11v-.23c.48-.04.53-.08.53-.73V79.4h-.1c-.4 0-.563.074-.66.18-.07.09-.15.25-.22.586h-.26c.03-.504.068-.92.078-1.226h.18c.096.138.16.15.32.15h2.4c.16 0 .19-.036.28-.15h.19c.01.254.04.765.07 1.21l-.266.02c-.09-.36-.16-.514-.25-.62-.11-.11-.31-.14-.59-.14h-.14v2.635m3.15 0c0 .65.05.69.46.73v.23h-1.95v-.235c.42-.035.47-.08.47-.73v-1.98c0-.65-.05-.69-.47-.727v-.24h1.95v.235c-.412.035-.46.077-.46.727v1.99m2.082-1.14c0 1.09.41 1.885 1 1.885.52 0 .8-.5.8-1.59 0-1.21-.43-1.88-.95-1.88-.46 0-.85.53-.85 1.58zm2.92.103c0 1.29-.88 2.1-2.03 2.1-1.214 0-2-.885-2-1.99 0-.977.65-2.104 2.09-2.104 1.1 0 1.95.81 1.95 2m-6.38 5.31v.24c-.46.04-.48.064-.46.7l.07 2.013c.02.67.03.69.46.73v.24h-1.88V90c.45-.042.47-.062.46-.73l-.016-2.12h-.03l-1.16 3.018h-.325l-1.1-2.806h-.01l-.04 1.337c-.02.51-.01.8.01.99.03.22.16.27.55.3v.23h-1.49V90c.29-.026.41-.085.44-.308.03-.187.07-.506.1-1.054l.07-1.216c.04-.758-.003-.824-.48-.866v-.235h1.414l1.05 2.39.92-2.38h1.464m.924.96c0-.65-.05-.69-.45-.73v-.23h2.85l.07 1-.27.02c-.06-.29-.124-.46-.22-.56-.096-.1-.296-.14-.614-.14h-.1c-.23 0-.24 0-.24.21v1.16h.3c.52 0 .54-.03.6-.49h.26v1.42h-.26c-.06-.53-.08-.56-.6-.56h-.3v.98c0 .32.01.47.12.52.1.05.23.05.42.05.24 0 .51-.03.64-.18.1-.1.21-.33.3-.62l.26.05c-.03.3-.157.91-.21 1.08h-3.06V90c.46-.038.51-.08.51-.73v-1.986m4.113 1.41h.77l-.38-1.15h-.02zM110.9 90l.18-.03c.22-.03.234-.09.16-.308l-.22-.613h-.98l-.19.58c-.08.26-.08.32.2.35l.17.01v.23h-1.4V90c.3-.042.4-.068.59-.573l1.2-3.112.413-.084.403 1.14c.26.72.52 1.43.75 2.04.19.53.3.56.59.59v.24h-1.89V90"/>
  <path d="M89.434 138.665c0 .87-.705 1.573-1.573 1.573-.87 0-1.57-.702-1.57-1.573 0-.87.71-1.574 1.58-1.574.87 0 1.58.71 1.58 1.58m15.97 2.62c0 .87-.7 1.58-1.57 1.58s-1.57-.7-1.57-1.57c0-.87.71-1.57 1.58-1.57.87 0 1.58.71 1.58 1.58m85.24-68.88c-399.34-371.5-400.04-370.79-400.92-370.79-.87 0-1.57-.7-1.57-1.57s.7-1.57 1.57-1.57c.87 0 1.58.71 1.58 1.58M-65.8-143.91c-.04.865-.77 1.54-1.64 1.502-.864-.04-1.54-.77-1.503-1.64.036-.87.77-1.54 1.64-1.504.866.035 1.544.77 1.508 1.636m-78.96 67.58c.606.87.91 1.8.91 2.77-.002 1.1-.37 1.994-2.34 3.357l-5.683 4.05-1.046-1.5 5.917-4.21c1.007-.69 1.435-1.2 1.437-2 0-.5-.18-1.05-.54-1.58-.57-.82-1.3-1.09-1.94-1.09-.58 0-1.21.41-2.33 1.19l-5.346 3.62-1.03-1.48 5.09-3.45c1.414-.99 2.54-1.67 3.59-1.67 1.53 0 2.64 1 3.33 1.98m181.5 175.08l10.815-3.79.59 1.64-6.18 7.56 7.82-3.09.58 1.6-10.69 4.11-.6-1.64 6.22-7.57-7.98 2.79-.58-1.6m-1.62-8.61l11.32-1.68.27 1.82-11.32 1.68-.27-1.81m-.34-13.65l.04-1.89 11.3 4.59-.08 1.89-11.6 3.46.01-1.9 9.4-2.64-9.07-3.5m8.3-22.14c.67-1.22 1.15-1.68 1.86-1.68.26 0 .59.06.92.25.43.24.76.63.88 1.06.05.16.07.33.07.49-.01.67-.39 1.36-.78 2.07l-.24.43-3.23-1.73zm2.03-3.47c-1.62 0-2.36.92-3.4 2.79l-1.35 2.41 10.08 5.47.87-1.58-4.19-2.29.247-.45c.706-1.27.95-1.47 2.75-1.32l3.26.29.936-1.69-3.763-.32c-.75-.07-1.35-.13-1.83.01-.16.05-.35.15-.54.28.04-.2.12-.4.12-.61 0-.32-.04-.64-.14-.93-.22-.67-.7-1.22-1.42-1.62-.54-.3-1.09-.45-1.63-.45m12.52-16.17l1.45-1.11 6.95 9.1-1.45 1.11-6.94-9.1m6.28-4.46l7.4-3.85.72 1.39-2.88 1.5 4.56 8.76-1.62.85-4.56-8.76-2.9 1.51-.72-1.39m18.47-7.34l1.93-.54L82.77 30l1.256 4.348-1.74.505-1.23-4.313-5.44-5.673 1.88-.545 3.91 4.075.984-5.51m34.92 15.646l5.81-9.86 5.47 3.22-.795 1.35-3.91-2.3-1.604 2.728 3.68 2.17-.77 1.32-3.68-2.16-2.63 4.47-1.56-.92m29.41 25.5l4.17-4.99.65 1.98-3.1 3.55 4.61 1.04.61 1.86-6.3-1.52-4.48 5.37-.64-1.94 3.38-3.94-5.05-1.15-.61-1.88 6.77 1.64m-3.27 11.24l11.41-.93.52 6.33-1.56.13-.36-4.51-3.15.26.35 4.25-1.52.13-.34-4.25-5.17.42-.15-1.81m5.95 18.92c-2.23 0-4.83-1.21-4.83-3.46 0-.81.28-1.91 1.29-2.64.68-.49 1.56-.75 2.55-.75 1.14 0 3.18.32 4.26 1.8.376.51.56 1.1.56 1.74 0 .88-.36 1.92-1.296 2.6-.665.48-1.54.72-2.52.72zm-.9-8.72c-1.32 0-2.54.36-3.5 1.06-1.73 1.25-2.04 3.05-2.04 4.1 0 3.87 3.63 5.42 6.36 5.42 1.31 0 2.52-.35 3.46-1.04 1.93-1.39 2.03-3.49 2.03-4.17 0-3.37-3.1-5.36-6.32-5.36m-8.42-28.77c-1.03 0-1.95-.43-2.59-1.44-.33-.51-.48-1.07-.49-1.63-.002-1.29.82-2.62 2.32-3.574 1-.63 1.97-.94 2.84-.935 1.11 0 2.01.49 2.6 1.433.36.56.52 1.15.52 1.747 0 1.27-.8 2.51-2.25 3.42-1.01.65-2.04.99-2.94.99zm1.78-9.32c-1.15 0-2.39.366-3.57 1.12-2.2 1.394-3 3.39-3 4.85 0 .944.26 1.87.8 2.72 1.22 1.927 3.05 2.397 4.29 2.39 1.18-.005 2.43-.396 3.6-1.14 1.42-.9 2.997-2.565 2.997-4.825 0-.94-.27-1.86-.81-2.713-1.01-1.58-2.58-2.4-4.3-2.4m-31.85-13.39c-.83 0-2.027-.41-2.7-1.63-.322-.59-.47-1.31-.47-2.05 0-2.05 1.367-4.93 3.86-4.93 1.4 0 3.16 1.04 3.16 3.63 0 1.65-1.163 4.98-3.86 4.98zm.586-10.21c-2.382 0-4.46 1.605-5.3 4.46-.182.63-.3 1.26-.3 1.87 0 1.14.19 2.047.66 2.9 1.058 1.935 2.997 2.595 4.468 2.595.84 0 1.64-.19 2.37-.59 1.93-1.06 3.21-3.51 3.21-5.85 0-1.02-.194-1.98-.65-2.8-.93-1.69-2.65-2.59-4.45-2.59M47.22 65.32l1.535.433-1.736 6.29L35.94 69l1.89-6.36 1.505.425-1.39 4.582 3.05.838 1.17-4.163 1.47.42-1.18 4.15 3.45.95 1.28-4.525m2.91-23.912c1.59-1.783 3.22-1.66 3.22-1.66l.28 1.51s-1.26.04-2.24 1.14c-.43.48-.64.98-.64 1.43 0 .37.14.694.43.954.792.7 2.15-.08 3-.42.65-.28 1.58-.65 2.5-.65.69 0 1.4.19 2.06.78.76.68 1.14 1.53 1.14 2.43 0 .97-.38 1.83-1.14 2.68-1.46 1.63-3.424 1.81-3.424 1.81l-.39-1.53c1.16-.27 2.03-.71 2.57-1.31.42-.47.62-.99.62-1.45 0-.43-.18-.83-.53-1.15-.28-.26-.63-.35-1.01-.34-.73 0-1.61.42-2.34.72-1.39.57-2.85 1.03-4.17-.14-.66-.6-1.02-1.35-1.02-2.18 0-.88.35-1.82 1.1-2.65m97.03 65.67c-.51 0-1.39-.3-1.72-1.15-.08-.22-.12-.44-.11-.66.01-.63.3-1.28.61-1.97l.19-.44 3.3 1.48-.36.88c-.62 1.4-1.02 1.84-1.9 1.85zm-6.76-6.79l4.33 1.95-.21.48c-.59 1.33-.81 1.55-2.61 1.55h-3.28l-.78 1.77 3.78-.02c.76 0 1.36 0 1.827-.18.15-.06.32-.16.48-.28-.01.1-.04.19-.04.29-.01.42.07.84.23 1.2.52 1.21 1.93 1.8 2.96 1.8 1.82 0 2.52-1.09 3.4-3.1l1.06-2.45-10.403-4.69-.73 1.65m-1.95 19.44c-.904 0-1.76-.35-2.65-1.06-.9-.72-1.85-1.84-1.85-3.27 0-.99.54-1.94 1.37-2.98l.754-.95 6.54 5.22-.5.62c-1.21 1.52-2.04 2.42-3.66 2.42zm-4.074-8.62c-1.18 1.49-2.09 2.81-2.09 4.53 0 1.46.67 3.12 2.34 4.45 1.11.89 2.37 1.37 3.66 1.37 1.59 0 2.87-.48 4.85-2.96l1.81-2.28-8.94-7.14-1.62 2.03" fill="#fff"/>
  <path d="M133.3 132.886c-10.654 3.768-20.595 3.51-29.075 1.615.277-3.78 1.843-7.83 4.242-8.58 18.678-5.79 32.282-23.21 32.282-43.73 0-25.24-20.58-45.78-45.88-45.78S49 56.94 49 82.19c0 14.04 6.56 27.382 17.604 36.032-2.623 1.152-4.858 3.015-6.476 5.335-.838-.57-1.645-1.16-2.39-1.774l-.42.42c.5.6 1.274 1.398 2.206 2.29-1.357 2.288-2.145 4.95-2.145 7.797 0 .443.03.88.06 1.313-16.43-11.98-26.2-31.02-26.2-51.42 0-35.08 28.54-63.62 63.62-63.62S158.5 47.1 158.5 82.18c0 20.093-9.187 38.554-25.205 50.706zm-36.913 15.017c-8.79 0-19.762-2.987-27.302-7.435-2.284-1.348-5.007-3.855-5.007-8.138 0-1.156.227-2.26.628-3.276 2.813 2.327 5.724 4.507 7.546 5.506.42.23.664.343 1.15.343 1.174 0 2.12-.954 2.12-2.13 0-.898-.486-1.627-1.29-1.978-1.56-.683-4.823-2.03-8.337-3.852 1.624-2.144 4.185-3.537 7.068-3.537 1.318 0 2.587.282 3.77.84l2.41 1.404c7.66 4.68 27.37 16.68 51.17 10.086-9.034 8.15-20.16 12.167-33.926 12.167zm7.535 5.357c-2.416 0-4.4 1.71-4.4 4.336 0 2.568 2.01 4.336 4.4 4.336.364 0 .71-.063 1.05-.15-.506 3.637-4.74 7.706-10.203 9.535-5.42-1.816-9.66-5.914-10.22-9.532.33.087.68.147 1.04.147 2.6 0 4.4-1.825 4.4-4.336 0-2.395-1.89-4.273-4.31-4.327.74-1.36 1.45-2.79 1.97-4.34 3 .52 5.96.81 8.72.81 2.25 0 4.45-.13 6.59-.34.28 1.24.7 2.54 1.2 3.87-.09-.01-.17-.02-.26-.02zm-31.1-34.516c4.524 0 8.757 2.32 11.237 6.037-2.18-.55-4.31-1.26-6.39-2.15l-.01.02-.07-.04c-1.46-.68-3.01-1.03-4.64-1.03-3.61 0-6.8 1.77-8.76 4.47-.83-.46-1.66-.94-2.47-1.45 2.44-3.52 6.5-5.84 11.09-5.84zm17.907 9.026c-.57.417-1.01.914-1.33 1.46-1.66-.804-3.75-1.843-5.11-2.606 1.93.427 4.45.97 6.43 1.146zm13.92-.864c-1.32 1.88-2.1 4.493-2.34 7.138-4.16-1.07-7.93-2.51-11.22-4.012.62-1.21 2.41-2.07 3.78-2.07 3.35 0 6.62-.37 9.78-1.056zm-9.78-.783c-2.81 0-5.58-.27-8.29-.788-2.62-5.13-7.98-8.43-13.77-8.43-1.43 0-2.8.206-4.11.568C57.58 109.2 50.94 96.046 50.94 82.18c0-24.232 19.708-43.944 43.93-43.944 24.225 0 43.935 19.712 43.935 43.943 0 24.23-19.71 43.94-43.93 43.94zM72.82 145.82c-7.444 0-13.5-6.072-13.5-13.537 0-2.338.596-4.54 1.64-6.46.696.63 1.44 1.284 2.21 1.945-.656 1.388-1.033 2.93-1.033 4.562 0 4.06 2.046 7.414 5.922 9.7 2.22 1.313 4.74 2.498 7.41 3.53-.87.17-1.75.26-2.65.26zm87.62-63.64c0-36.096-29.414-65.46-65.565-65.46-36.15 0-65.563 29.364-65.563 65.46 0 21.654 10.693 41.838 28.608 54.068 1.764 6.56 7.766 11.413 14.9 11.413 1.93 0 3.8-.36 5.58-1.05 2.4.79 4.88 1.45 7.35 1.96-.693 1.99-1.71 3.88-2.68 5.51l.056-.01c-.017.02-.038.02-.056.04l1.368 1.37c.347-.19.743-.31 1.167-.31 1.35 0 2.45 1.1 2.45 2.45s-1.1 2.45-2.45 2.45c-1.178 0-2.213-.75-2.754-1.56 0 0-.32 1.1-.32 2.55-.01 4.71 5.13 10.08 12.24 12.34 7.12-2.21 12.25-7.62 12.25-12.33 0-1.62-.32-2.56-.32-2.56-.55.66-1.43 1.57-2.77 1.57-1.35 0-2.45-1.1-2.45-2.45s1.1-2.45 2.45-2.45c.48 0 .91.14 1.29.38l1.33-1.32.05.02c-.75-1.79-1.29-3.44-1.66-5.02 11.79-1.59 21.74-6.58 29.64-14.89v-.01c16.45-12.5 25.89-31.47 25.89-52.11" fill="#fff"/>
</svg>
