
<svg viewBox="0 0 296 79" version="1.1" xmlns="http://www.w3.org/2000/svg" xmlns:xlink="http://www.w3.org/1999/xlink">
    <g  stroke="none" stroke-width="1" fill="none" fill-rule="evenodd">
        <g  transform="translate(148.954996, 39.409175) scale(-1, 1) rotate(-180.000000) translate(-148.954996, -39.409175) translate(-1.045004, -1.090825)" fill-rule="nonzero" fill="#9897A5">
            <g id="Clipped" transform="translate(-0.000000, 1.000446)">
                <g  transform="translate(0.812675, 18.236711)">
                    <path d="M22.003568,39.005798 L17.1440457,36.4134127 L16.8202975,40.4100067 L21.8964521,40.950087 L22.003568,39.005798 Z M9.58412192,27.0160158 C9.69273806,25.6148075 9.47580582,23.4514859 8.71969342,22.3743258 L6.45195634,23.2384543 C7.20776868,24.3156144 7.64013295,25.8278392 7.64013295,27.1240318 L9.58412192,27.0160158 Z M54.6214165,3.14746785 C60.8833473,28.9603048 53.5412559,49.4833554 33.561286,51.8597087 C33.669302,50.7765477 33.669302,49.9154197 33.669302,49.0512912 C33.669302,47.7550985 33.561286,46.674938 33.561286,46.674938 L30.4288204,47.2150183 C30.5368364,48.2951788 30.7528685,55.6372702 28.1595831,57.257511 C28.1595831,57.257511 28.1595831,53.3719334 27.2969548,49.4833554 L24.3799212,50.0204353 C24.3799212,52.7208367 23.1917446,53.8009972 21.572704,54.5571096 L22.3288163,49.2643229 L20.4916433,46.5669219 L21.3560718,44.0825526 L15.6321209,42.1382636 L14.01158,37.4935732 L3.967287,23.6705185 L7.74844905,19.1338441 L11.9604751,22.6953735 L12.9320196,22.0502777 L12.9320196,16.7574909 L15.1997567,16.7574909 C16.1725012,20.5380529 19.3034666,24.9667112 22.2205002,27.1240318 L20.5999594,29.0683208 L22.9763126,31.1236264 L25.2443497,28.3122085 L33.3452539,28.423225 C34.5334305,31.0126099 35.2895429,34.1450755 35.2895429,37.8176214 L38.4220085,37.8176214 C38.4220085,25.503791 32.2650933,20.6460689 24.5968535,13.084945 C21.788136,10.2774277 19.3034666,7.25207798 18.9797185,3.14746785 L54.6214165,3.14746785 L54.6214165,3.14746785 Z M62.3955721,0.126018732 L11.4197948,0.126018732 L11.4197948,3.25548391 L15.740437,3.25548391 C16.4965494,13.4089932 26.2155941,17.1895551 31.616997,25.3957749 L25.3526658,25.3957749 C22.3288163,24.3156144 17.7915419,17.6216194 17.7915419,13.7330413 L9.90817008,13.7330413 L10.0164862,16.973523 L7.42320071,14.8132019 L0.511073257,22.80639 C0.511073257,22.80639 0.187325134,23.2384543 0.187325134,23.5625024 C0.187325134,23.8835502 0.295641235,24.1025827 0.295641235,24.1025827 L11.2046628,38.8977819 L13.1471515,44.730649 L16.0641851,45.8108095 L19.0880346,50.0204353 L18.0081741,57.3655271 C20.9237075,58.4456876 23.732425,57.4735431 25.1357336,56.0723348 C25.2443497,58.2296555 25.0289177,60.6060088 25.0289177,60.6060088 C30.2127883,61.146089 32.0490612,58.3376716 32.9131897,55.205206 C34.3143979,55.0971899 35.6135911,54.8841582 36.8017677,54.6651257 C37.0147993,55.313222 37.6658961,55.8533023 38.4220085,55.8533023 C39.3911526,55.8533023 40.0392489,55.0971899 40.0392489,54.2330614 L40.0392489,53.8009972 C42.3105865,53.0448848 44.4679072,51.9647243 46.4121962,50.7765477 C46.7362444,51.2086119 47.1683086,51.4276444 47.7083889,51.4276444 C48.6805334,51.4276444 49.3286297,50.671532 49.3286297,49.8074036 C49.3286297,49.3753394 49.2206137,49.0512912 49.0045816,48.8322586 C50.8408545,47.3200339 52.3530793,45.4867614 53.757288,43.5424724 C53.9733201,43.6504884 54.2973683,43.7585045 54.5134004,43.7585045 C55.4855449,43.7585045 56.2416573,43.0023921 56.2416573,42.1382636 C56.2416573,41.4901673 55.9176091,40.950087 55.3775289,40.7340549 C56.4576894,38.7897659 57.3188174,36.6294448 57.9699142,34.3611076 C58.0779303,34.4691236 58.2939624,34.4691236 58.4019784,34.4691236 C59.3741229,34.4691236 60.0192188,33.7130113 60.0192188,32.8488828 C60.0192188,31.9847544 59.482139,31.336658 58.8340427,31.228642 C59.2631064,28.9603048 59.590155,26.6919676 59.8061872,24.3156144 C60.7753312,24.3156144 61.5314436,23.5625024 61.5314436,22.6953735 C61.5314436,21.7262295 60.7753312,21.0781331 59.9142032,20.9701171 C59.9142032,18.7017799 59.8061872,16.2174106 59.590155,13.8410574 C60.451283,13.7330413 61.1023798,12.9769289 61.1023798,12.1128005 C61.1023798,11.2486721 60.3462674,10.4928597 59.3741229,10.4928597 L59.2631064,10.4928597 C58.8340426,8.11620643 58.4019784,5.74285364 57.8618981,3.25548391 L62.3955721,3.25548391 L62.3955721,0.126018732 L62.3955721,0.126018732 Z" ></path>
                </g>
            </g>
            <polygon  points="12.2327697 3.37679923 63.2103472 3.37679923 63.2103472 9.64143044 12.2327697 9.64143044"></polygon>
            <g transform="translate(86.125653, 0.874427)" >
                <path d="M207.030774,39.005798 C206.274662,39.7619104 205.302517,40.0859586 204.438389,40.0859586 C203.03418,40.0859586 201.197907,38.4657177 200.012731,35.11722 L200.012731,25.072927 C200.012731,21.4015812 200.441795,21.0763329 205.086485,20.7525848 L205.086485,18.5931638 L190.291286,18.5931638 L190.291286,20.7525848 C194.071848,21.0763329 194.395896,21.4015812 194.395896,25.072927 L194.395896,37.2775411 C194.395896,40.950087 194.179864,40.950087 190.72335,41.5981833 L190.72335,43.4344563 C194.179864,44.0825526 197.204313,44.730649 200.012731,45.8108095 L200.012731,39.3298462 L200.117746,39.3298462 C201.954019,42.894376 204.654421,45.699793 207.246806,45.699793 C209.299111,45.699793 210.919352,44.0825526 210.919352,42.3542957 C210.919352,39.8699264 208.218951,37.7096053 207.030774,39.005798 Z M175.92515,43.0023921 C173.443781,43.0023921 170.848396,40.3019907 170.2033,35.6573003 L179.48968,35.8733324 C180.677857,35.8733324 180.893889,36.1973805 180.893889,37.2775411 C180.893889,40.1939746 178.841584,43.0023921 175.92515,43.0023921 Z M185.106515,33.6049952 C184.134371,33.4969791 176.681263,32.9568989 169.879252,32.7408668 C170.092283,25.6136073 174.304909,22.5897578 178.520536,22.5897578 C180.893889,22.5897578 182.622146,23.2372541 184.782467,25.3966751 L186.186676,23.4526861 C182.622146,19.025228 178.40952,17.9453675 176.465231,17.9453675 C168.799091,17.9453675 164.370433,23.7764342 164.370433,30.6885617 C164.370433,39.1138141 170.74338,45.699793 177.113327,45.699793 C182.406114,45.699793 186.61874,41.1661191 186.61874,36.0893645 C186.61874,34.4691236 186.294692,33.8210273 185.106515,33.6049952 L185.106515,33.6049952 Z M146.982848,43.1104081 C144.714511,43.1104081 142.122126,40.7340549 142.122126,36.1973805 C142.122126,31.6607062 144.498479,28.4205246 147.738961,28.4205246 C150.112313,28.4205246 152.383651,30.4725296 152.383651,35.4412682 C152.383651,39.6538943 150.328345,43.1104081 146.982848,43.1104081 L146.982848,43.1104081 Z M153.892875,15.352382 C152.383651,15.8930624 150.328345,16.0013785 146.982848,16.0013785 C142.338158,16.0013785 140.285853,12.5451648 140.285853,9.95217934 C140.285853,6.27993348 143.526334,3.47151602 148.387057,3.47151602 C153.784859,3.47151602 156.809309,7.03604587 156.809309,10.6011758 C156.809309,12.8689129 155.513116,14.7048858 153.892875,15.352382 L153.892875,15.352382 Z M162.426144,44.2985847 C161.99408,43.3264402 160.805903,41.4901673 159.833758,40.950087 L156.701293,41.2741352 C157.565421,40.0859586 158.213518,37.7096053 158.213518,35.8733324 C158.213518,29.284953 152.272634,25.7204232 146.874832,25.7204232 C146.550784,25.7204232 145.686656,25.8290393 144.930543,25.8290393 C143.63435,25.3966751 142.55419,23.8847503 142.55419,22.913506 C142.55419,21.9407614 143.526334,20.7525848 146.11872,20.7525848 L152.596683,20.7525848 C156.377245,20.7525848 161.453999,18.9169119 161.453999,12.8689129 C161.453999,5.95588531 154.216924,0.126018732 145.794672,0.126018732 C138.44958,0.126018732 134.561002,4.65969264 134.561002,8.33223854 C134.561002,10.7079917 135.749178,12.5451648 140.825933,16.4334427 C138.98966,17.081239 135.749178,18.9169119 135.96521,22.3728256 C138.44958,23.4526861 140.717917,25.3966751 141.690061,26.5848517 C138.773628,27.5575963 136.073227,31.0126099 136.073227,34.9011879 C136.073227,41.9222315 142.338158,45.699793 147.522928,45.699793 C149.788265,45.699793 151.951587,45.1627132 153.784859,44.1875682 C156.593277,44.2985847 159.401694,44.6226329 161.99408,44.9436806 L162.426144,44.2985847 Z M131.647569,18.5931638 L118.901674,18.5931638 L118.901674,20.7525848 C121.926124,21.0763329 122.358188,21.4015812 122.358188,24.8574949 L122.358188,35.4412682 C122.358188,39.3298462 120.629931,41.7061994 117.389449,41.7061994 C115.337144,41.7061994 112.960791,40.1939746 111.34055,38.6817498 L111.34055,24.8574949 C111.34055,21.4015812 111.664598,21.0763329 114.689048,20.7525848 L114.689048,18.5931638 L101.511089,18.5931638 L101.511089,20.7525848 C105.183635,21.0763329 105.723715,21.4015812 105.723715,24.8574949 L105.723715,37.2775411 C105.723715,40.950087 105.510684,41.1661191 102.267201,41.5981833 L102.267201,43.4344563 C105.510684,44.0825526 108.532133,44.730649 111.34055,45.8108095 L111.34055,41.4901673 C112.744759,42.6783439 116.849369,45.699793 119.981835,45.699793 C124.839557,45.699793 127.864006,42.3542957 127.864006,37.3855572 L127.864006,24.8574949 C127.864006,21.4015812 128.404087,21.0763329 131.647569,20.7525848 L131.647569,18.5931638 Z M91.4685963,51.53266 C89.4162912,51.53266 87.7960504,53.1529009 87.7960504,55.205206 C87.7960504,57.3655271 89.4162912,58.9857679 91.4685963,58.9857679 C93.6289174,58.9857679 95.2491583,57.3655271 95.2491583,55.205206 C95.2491583,53.1529009 93.6289174,51.53266 91.4685963,51.53266 Z M98.597656,18.5931638 L84.7716008,18.5931638 L84.7716008,20.7525848 C88.4441467,21.0763329 88.984227,21.4015812 88.984227,25.288359 L88.984227,36.9534929 C88.984227,41.1661191 88.6601789,41.1661191 85.095649,41.5981833 L85.095649,43.4344563 C88.4441467,44.0825526 91.7926445,44.838665 94.4930459,45.8108095 L94.4930459,25.288359 C94.4930459,21.4015812 94.817094,21.0763329 98.597656,20.7525848 L98.597656,18.5931638 L98.597656,18.5931638 Z M77.9665893,39.005798 C77.318493,39.8699264 76.4543645,40.0859586 75.3772044,40.0859586 C73.9729957,40.0859586 72.2447388,38.4657177 71.0565622,35.11722 L71.0565622,25.072927 C71.0565622,21.4015812 71.4886264,21.0763329 76.1303164,20.7525848 L76.1303164,18.5931638 L61.4431332,18.5931638 L61.4431332,20.7525848 C65.1156791,21.0763329 65.5477433,21.4015812 65.5477433,25.072927 L65.5477433,37.2775411 C65.5477433,40.950087 65.2236951,40.950087 61.8751974,41.5981833 L61.8751974,43.4344563 C65.1156791,44.0825526 68.2481447,44.730649 71.0565622,45.8108095 L71.0565622,39.3298462 L71.1645782,39.3298462 C73.1088672,42.894376 75.8092686,45.699793 78.2906375,45.699793 C80.4509586,45.699793 81.9631834,44.0825526 81.9631834,42.3542957 C81.9631834,39.8699264 79.3737985,37.7096053 77.9665893,39.005798 L77.9665893,39.005798 Z M44.2715807,41.7061994 C42.5433238,41.7061994 40.2749867,40.5180228 38.8707779,39.6538943 L38.8707779,23.6696184 C40.0589545,22.3728256 42.0032436,21.4015812 44.3795968,21.4015812 C47.5120624,21.4015812 51.6166725,23.7764342 51.6166725,31.8767383 C51.6166725,38.6817498 48.3761909,41.7061994 44.2715807,41.7061994 L44.2715807,41.7061994 Z M42.867372,18.0524834 C41.1391151,18.1607995 39.7349064,18.4845476 38.8707779,18.8082958 L38.8707779,8.65628671 C38.8707779,4.98374081 39.3028422,4.65969264 44.2715807,4.22762841 L44.2715807,2.1783238 L29.0443173,2.1783238 L29.0443173,4.22762841 C32.9328953,4.65969264 33.253943,4.98374081 33.253943,8.65628671 L33.253943,37.4935732 C33.253943,41.2741352 33.145927,41.3821512 29.4763815,41.7061994 L29.4763815,43.5424724 C32.7138627,44.1875682 35.7383123,45.1627132 38.8707779,46.2428738 L38.8707779,42.1382636 L44.703645,45.1627132 C45.4597573,45.5947774 46.2158697,45.699793 46.9719821,45.699793 C53.6689776,45.699793 57.4465391,39.8699264 57.4465391,34.2530915 C57.4465391,25.1815431 50.9685762,19.025228 42.867372,18.0524834 L42.867372,18.0524834 Z M12.0857965,17.6201191 C7.98418681,17.6201191 4.74370513,18.5931638 1.6112395,19.9964724 C0.963143166,22.8051899 0.744110608,26.5848517 0.531078942,30.4725296 L3.01544823,30.9045938 C4.41965696,25.6136073 6.36394597,20.4288366 12.8419089,20.4288366 C17.3785832,20.4288366 20.0789846,23.2372541 20.0789846,27.4492802 C20.0789846,38.5737338 1.6112395,36.0893645 1.6112395,48.9432752 C1.6112395,54.7731417 6.36394597,60.0659285 14.7861979,60.0659285 C17.5946153,60.0659285 20.6190649,59.3098161 23.6435145,58.2296555 C23.8595466,55.9613183 24.0755787,53.368933 24.1835948,48.8322586 L21.9152576,48.7242426 C20.835097,52.5048046 19.1068401,57.149495 13.5980213,57.149495 C9.49641159,57.149495 7.44110608,54.3410775 7.44110608,50.9955802 C7.44110608,40.7340549 26.2358998,42.894376 26.2358998,29.5018853 C26.2358998,23.128938 20.5110489,17.6201191 12.0857965,17.6201191 L12.0857965,17.6201191 Z"></path>
            </g>
        </g>
    </g>
</svg>
