<svg aria-hidden="true" width="32px" height="45px" viewBox="0 0 22 35" version="1.1" class="v-mid pr3">
              <g stroke="none" stroke-width="1" fill="none" fill-rule="evenodd">
                  <g id="BPhO" fill-rule="nonzero" fill="#ffffff">
                      <path d="M21.166,26.958 C20.527,26.264 19.199,26.836 17.791,27.443 C16.802,27.869 15.445,28.454 15.108,28.089 C14.761,27.715 15.476,26.379 15.998,25.402 C16.734,24.027 17.37,22.84 16.769,22.185 C16.166,21.533 14.916,22.066 13.465,22.681 C12.453,23.112 11.066,23.702 10.732,23.34 C10.527,23.116 11.014,21.568 11.972,19.829 L11.924,19.802 L19.689,3.312 C20.161,3.384 20.66,3.254 21.037,2.906 C21.7,2.296 21.742,1.266 21.134,0.604 C20.523,-0.059 19.491,-0.1 18.831,0.51 C18.169,1.119 18.126,2.152 18.736,2.811 C18.836,2.919 18.95,3.006 19.069,3.081 L11.4,19.364 L3.786,16.679 C3.906,16.17 3.779,15.614 3.397,15.201 C2.788,14.539 1.756,14.498 1.098,15.108 C0.434,15.716 0.392,16.748 1.001,17.409 C1.613,18.072 2.645,18.114 3.304,17.503 C3.38,17.434 3.443,17.357 3.504,17.277 L11.148,19.972 C10.533,21.157 9.651,23.139 10.246,23.785 C10.896,24.489 12.27,23.904 13.725,23.287 C14.685,22.879 15.998,22.32 16.286,22.631 C16.57,22.939 15.905,24.183 15.418,25.091 C14.67,26.491 13.961,27.814 14.625,28.533 C15.279,29.242 16.626,28.661 18.053,28.047 C19.026,27.626 20.36,27.052 20.682,27.402 C21.004,27.75 20.317,29.024 19.817,29.954 C19.646,30.27 19.481,30.58 19.33,30.884 C18.806,30.738 18.222,30.855 17.791,31.252 C17.13,31.859 17.089,32.89 17.696,33.552 C18.305,34.214 19.337,34.255 19.998,33.646 C20.66,33.036 20.702,32.005 20.091,31.344 C20.038,31.286 19.977,31.239 19.917,31.189 C20.07,30.873 20.241,30.555 20.395,30.267 C21.121,28.923 21.804,27.65 21.166,26.958 Z" id="Shape"></path>
                  </g>
              </g>
          </svg>
