<svg xmlns="http://www.w3.org/2000/svg" width="603.672" height="125">
  <defs>
    <clipPath id="a">
      <path d="M56.467 543.07h205.1v47.954h-205.1V543.07z"/>
    </clipPath>
    <clipPath id="b">
      <path d="M64.016 585.91v-84.814h185.88v84.814"/>
    </clipPath>
  </defs>
  <g clip-path="url(#a)" transform="matrix(3.24766 0 0 -3.24766 -207.902 1902.837)">
    <g clip-path="url(#b)">
      <path fill="#231f20" d="M71.647 585.3h17.667l.81.01h1.793c.86 0 2.275.04 4.27.124l.748.03c-.11-1.548-.13-2.157-.135-2.978l-.01-2.375-.01-2.25V565.3c0-7.914-1.79-10.6-10.327-14.816-.378-.187-4.73-2.36-5.184-2.602l-.43-.23-.44-.227-.44.23-.44.23c-1.8.937-3.62 1.764-5.03 2.46-7.82 3.834-10.33 6.56-10.33 14.956v12.57l-.02 2.25-.01 2.38c-.01 1.44-.03 1.9-.14 2.98l.74-.03c1.96-.08 3.43-.12 4.28-.12h1.79l.82-.01"/>
      <path fill="#fff" d="M80.407 548.188l3.363 1.65.084.032-.02.073v15.47l-.032.093.105-.02h12.17l.104-.032-.03.136v6.558l.03.105-.1-.03H83.91l-.105-.023.03.105v12.306l.022.11-.094-.03H77.1l-.105.03.032-.1v-12.31l.02-.1-.094.02H64.876l-.105.03.04-.1v-6.62l-.03-.07.11.03h12.07l.1.02-.02-.13v-15.4l-.03-.13.09-.02 3.33-1.64"/>
      <path fill="#ef2f51" d="M64.928 584.685l-.158.03.032-.113v-12.317l-.032-.095.148.032H76.94l.105-.032-.02.105v12.338l.02.083-.105-.03H64.928m19.03 0l-.146.03.02-.114v-12.317l-.02-.095.136.032h12.117l.116-.032-.03.106v12.337l.03.083-.11-.03H83.96m-6.968-19.2H64.844l-.074.03.032-.084v-.734c0-6.763 2.257-10.05 9.205-13.41l2.197-1.06.765-.36.06-.072-.01.105v15.53l.02.1-.05-.03m6.9 0l-.09.03.02-.07v-15.5l-.02-.11.08.1.69.32c9.43 4.44 11.56 7.09 11.56 14.4v.78l.03.11-.11-.03H83.89"/>
      <path fill="#231f20" d="M66.777 571.612l.074-.084c.04-.046.07-.077.09-.094l.1-.095.09-.09-.05-.04-.1-.1-.08-.1-.03-.03v-.1c0-.85.22-1.43.7-1.82l.09-.07-.08-.06-.09.01-.2.02-.18.03-.1.02-.1-.76h-.14l-.11.75-.1-.02c-.09-.02-.14-.03-.17-.03l-.21-.02-.09-.01c-.04 0-.08.01-.08.03 0 .02.02.04.05.06l.16.12c.13.1.22.22.37.53.07.14.11.26.11.34 0 .22.04.4.08.4l.02.39.01.15-.04.03-.08.09-.11.09-.04.04.08.08c.15.14.16.16.25.27m3.99 0c.08-.12.09-.13.24-.28l.08-.09-.04-.04-.1-.1-.08-.1-.05-.03.02-.15.02-.39c.03-.56.34-1.2.66-1.38.06-.03.09-.06.09-.07 0-.03-.02-.05-.05-.05h-.14l-.2.02-.18.03-.1.02-.1-.76h-.13l-.1.75-.1-.02-.18-.03-.2-.02-.09-.01-.01-.01c-.04 0-.07.02-.07.04s.02.04.05.06l.16.12c.13.11.17.16.36.54.08.14.12.26.12.34 0 .22.03.4.07.4l.02.39.01.15-.03.03-.09.1-.11.1-.04.04.09.08.09.1.09.09.07.08m-1.98-2.33l.08-.09.07-.1c.02-.02.05-.05.1-.09l.09-.09-.05-.04-.1-.09-.09-.08-.03-.04v-.1c0-.87.21-1.42.7-1.81l.09-.07-.08-.06-.09.01-.2.02-.18.04-.1.02-.1-.75h-.15l-.1.75-.1-.02-.18-.03-.2-.02-.1-.01h-.01c-.04 0-.07.01-.07.03 0 .01.02.04.05.06l.16.12c.33.25.56.96.56 1.72v.1l-.03.04-.09.08-.09.1-.05.04c.16.14.24.22.34.36m4 0c.09-.14.17-.22.33-.36l-.05-.05-.09-.09-.09-.08-.03-.04v-.1c0-.57.17-1.26.36-1.48l.21-.24c.02-.02.06-.05.12-.1l.1-.07-.09-.06-.1.01-.2.02-.18.03-.1.02-.1-.76h-.15l-.1.76-.11-.02-.18-.03-.2-.02-.09-.01H72c-.04 0-.073.01-.073.03 0 .01.017.04.047.06l.153.12c.33.26.578.96.578 1.72v.1l-.032.04-.094.08-.1.1-.05.04.09.09c.04.04.07.07.09.1l.07.09.07.08m1.99 2.33c.08-.11.1-.13.24-.27l.09-.09-.05-.04-.11-.09-.09-.09-.04-.03.01-.14.02-.39c.03-.54.35-1.21.66-1.38.05-.03.09-.06.09-.07 0-.03-.02-.05-.04-.05l-.13.01-.21.02-.18.03-.09.02-.11-.75h-.15l-.11.76-.11-.02-.18-.02-.2-.02-.09-.01h-.01c-.04 0-.07.02-.07.03 0 .02.02.04.05.07l.15.12c.14.11.18.17.37.53.07.15.11.26.11.34 0 .22.03.4.06.4l.02.39.01.15-.03.03-.1.09-.09.09-.05.04.08.08c.05.04.08.08.09.09.01.01.04.04.08.09l.07.08m11.34.02l.07-.09.08-.08.1-.11c.02-.02.05-.05.09-.08l-.05-.04-.09-.09-.1-.09-.03-.05v-.09c0-.84.29-1.58.7-1.81.06-.03.09-.06.09-.09l-.01-.02-.09-.02h-.1c-.12 0-.34.04-.48.09l-.11-.76H86l-.107.75c-.15-.05-.36-.08-.48-.08h-.09c-.06 0-.09.01-.09.04s.022.06.083.09c.4.21.69.96.69 1.81v.1l-.03.04-.096.08-.09.1-.055.04c.044.04.076.07.095.09l.09.1.074.08.076.09m4 0l.075-.1.084-.08.09-.11.08-.08-.05-.04-.1-.1-.1-.09-.03-.04v-.09c0-.84.28-1.59.69-1.81.06-.04.09-.06.09-.09l-.08-.02h-.1c-.12 0-.34.03-.48.08l-.11-.76H90l-.104.75c-.17-.05-.356-.08-.524-.08-.117 0-.14.01-.14.04s.025.06.095.09c.09.04.24.2.33.34.17.27.266.5.266.63 0 .23.03.41.07.41l.02.39.01.14-.04.05c-.135.14-.145.15-.244.22l.1.09.09.11.08.08.06.09m-1.99-2.32l.07-.08.08-.09c.02-.01.04-.05.09-.1.02-.02.05-.04.09-.08l-.05-.04-.09-.11-.1-.09-.03-.05.01-.14.02-.39c.03-.57.33-1.19.66-1.37.07-.04.09-.07.09-.1v-.02l-.09-.02h-.1c-.12 0-.34.03-.48.08l-.1-.77H88l-.102.76c-.14-.05-.35-.09-.53-.09-.11 0-.13.01-.13.05 0 .03.02.05.09.08.083.03.242.2.33.33.17.28.27.51.27.63 0 .23.03.41.06.41l.02.39.01.13-.047.04-.08.09-.11.1-.04.04.08.08c.14.14.16.16.24.27m4.03 0l.08-.09.09-.1.1-.09.08-.09c-.01-.02-.03-.03-.04-.04l-.1-.1-.09-.09-.03-.04.01-.13.02-.39c.04-.57.33-1.2.67-1.38.06-.03.09-.06.09-.09v-.02l-.08-.02h-.09c-.12 0-.34.04-.48.08l-.1-.76h-.14l-.11.75c-.14-.05-.35-.09-.52-.09-.1 0-.13.01-.13.05 0 .02.03.05.1.08.08.03.24.2.33.33.17.28.27.51.27.63 0 .22.03.41.06.41l.02.39.01.13-.04.04-.09.08-.11.11-.04.04.09.08c.14.15.16.16.24.27m2 2.33l.08-.1.08-.08.1-.11.08-.09-.06-.04-.09-.1-.09-.08-.03-.05v-.09c0-.84.29-1.59.69-1.81.07-.04.09-.07.09-.1l-.08-.02h-.09c-.12 0-.34.04-.48.08l-.1-.75h-.15l-.1.76c-.17-.06-.36-.09-.52-.09-.12 0-.14 0-.14.04 0 .03.02.05.09.08.09.04.24.19.33.34.17.27.27.49.27.63 0 .23.03.41.07.41l.02.39.01.13-.04.04-.09.08-.11.09-.04.04.09.08.1.1.08.08.06.09m-15.55-10.8c.08-.11.09-.13.24-.28.02-.02.05-.04.08-.08l-.04-.04-.1-.09-.08-.09-.04-.05.02-.13.02-.39c.02-.34.17-.78.34-1.04.12-.17.25-.3.33-.34.07-.03.1-.05.1-.08s-.03-.04-.15-.04c-.17 0-.38.04-.52.09l-.11-.75h-.15l-.1.76c-.14-.04-.36-.08-.48-.08h-.09c-.06 0-.09.01-.09.04s.03.06.09.09c.1.06.24.2.33.34.19.31.27.51.27.63 0 .23.03.41.07.41l.02.39.02.14-.03.04-.09.1-.1.09-.06.05.09.08.09.09c.02.01.05.04.09.09l.07.08m3.75 0c.08-.11.1-.13.24-.27l.08-.09-.04-.04-.1-.09-.09-.09-.05-.04.01-.14.02-.39c.02-.34.16-.79.34-1.04.11-.17.24-.3.32-.34.07-.03.1-.06.1-.09 0-.04-.03-.05-.15-.05-.16 0-.38.04-.51.09l-.11-.76h-.15l-.1.76c-.14-.04-.36-.08-.48-.08h-.1c-.06 0-.09.01-.09.03 0 .03.02.06.08.09.1.05.25.2.33.34.19.31.28.51.28.63 0 .22.03.41.06.41l.02.39.01.13-.03.04-.09.09-.09.1-.05.04.08.08.1.1.08.1c.02.02.04.05.08.08m-1.91-3.4l.05-.11.1-.07.09-.1.09-.09-.04-.05-.11-.1-.08-.09-.04-.04.01-.13.02-.39c.03-.57.35-1.24.66-1.38.07-.04.09-.06.09-.08l-.01-.02-.07-.03-.09.01-.21.02-.18.03-.1.02-.12-.76h-.14l-.11.76-.1-.02-.18-.03-.2-.02-.1-.01-.01-.01c-.04 0-.07.02-.07.05 0 .03.03.06.09.09.11.06.25.2.33.34.18.31.27.51.27.63 0 .23.03.41.06.41l.02.39.01.14-.03.04-.1.09-.09.09-.06.04.09.08.09.1.08.08.07.1m-1.86-3.47l.08-.09.08-.09.09-.11.07-.1-.04-.03-.1-.09-.1-.08-.03-.04.01-.14.02-.39c.03-.57.33-1.19.66-1.38.06-.03.09-.06.09-.09v-.01l-.08-.02h-.09c-.08 0-.23.02-.48.07l-.1-.75h-.15l-.1.74c-.22-.05-.39-.07-.53-.07-.11 0-.13.01-.13.05 0 .02.02.05.09.07.08.04.24.2.32.34.17.28.28.52.28.63 0 .23.03.41.07.41l.02.39.01.14-.04.04-.09.09-.1.1-.05.05.09.08.09.11.08.09.07.09m3.77 0l.06-.1.08-.09.08-.12.1-.07-.04-.04-.1-.1-.09-.08-.04-.04.01-.14.02-.39c.02-.34.16-.79.34-1.04.12-.17.25-.3.33-.34.07-.03.1-.05.1-.08s-.03-.04-.14-.04c-.14 0-.31.02-.53.07l-.1-.74h-.15l-.1.744c-.25-.05-.4-.08-.48-.08h-.09c-.06 0-.09.01-.09.04s.03.06.09.09c.1.06.24.2.32.34.19.31.28.52.28.63 0 .23.03.41.07.41l.02.39.01.14-.03.04-.1.09-.09.09-.06.04.09.09.09.11.09.09.07.09m-1.92 10.3l.06-.09.08-.09.1-.11.09-.08-.04-.04-.1-.09-.08-.08-.04-.04.01-.14.02-.39c.03-.57.36-1.25.67-1.38.07-.03.09-.05.09-.08 0-.04-.03-.04-.13-.04-.14 0-.31.02-.53.07l-.12-.76h-.15l-.11.76c-.25-.05-.4-.08-.49-.08h-.1c-.06 0-.09.01-.09.04s.03.05.09.09c.1.05.24.2.32.33.18.31.27.51.27.63 0 .22.03.41.06.41l.02.39.01.13-.03.04-.09.08-.09.09-.05.04.09.08.09.1.09.08.07.1m-1.89 19.18l.07-.08.08-.1c.01-.02.05-.05.1-.1.01-.02.04-.05.08-.08l-.04-.05-.11-.1-.1-.1-.03-.03.01-.15.02-.38c.02-.37.18-.874.34-1.05l.21-.24c.01-.014.05-.05.12-.1l.09-.07-.09-.06-.1.01-.2.02-.18.03-.1.02-.11-.723-.12-.03-.11.76-.11-.02-.18-.03-.2-.02-.11-.01c-.04 0-.07.01-.07.03 0 .02.02.05.05.07l.15.12c.13.1.17.16.37.54.08.15.12.27.12.35 0 .23.03.41.06.41l.02.38.01.14-.05.03-.08.09-.105.09-.04.04.09.08c.14.15.16.16.24.27m3.8 0c.08-.11.09-.13.24-.27.01-.02.04-.05.08-.08l-.04-.046-.11-.09-.08-.1-.04-.03.01-.14.02-.38c.03-.55.35-1.21.66-1.38.06-.03.09-.053.09-.07 0-.03-.02-.05-.04-.05H83l-.21.02c-.05 0-.11.01-.18.03l-.1.02-.1-.76h-.15l-.106.76-.113.01-.17-.06-.2-.02-.1-.01h-.01c-.04 0-.07.02-.07.03 0 .02.02.05.05.07l.16.12c.14.11.18.18.37.54.07.15.11.27.11.35 0 .23.03.41.07.41l.02.38.01.15-.03.03-.09.1c-.05.05-.08.08-.09.1l-.05.04.08.09c.05.05.08.08.09.1.01.01.04.05.08.09l.07.08m-1.93-3.2l.08-.08.08-.1c.05-.057.08-.09.1-.1l.09-.09-.05-.04-.09-.1-.09-.08-.03-.04.01-.137.01-.36c.03-.57.34-1.23.68-1.41.06-.03.09-.06.09-.09l-.01-.01-.08-.02h-.1c-.12 0-.34.036-.48.08l-.1-.754h-.14l-.11.76c-.14-.05-.35-.09-.52-.09-.11 0-.14.01-.14.04s.03.06.1.09c.09.03.24.19.33.33.17.27.26.5.26.63 0 .23.04.41.08.41l.02.39.01.14-.04.04-.09.08-.1.1-.04.04.08.08.1.11.09.1.06.08m-1.88-3.28l.07-.08.07-.09c.01-.02.05-.05.09-.09l.09-.08-.05-.04-.09-.09-.09-.1-.03-.03v-.1c0-.55.16-1.25.35-1.45l.23-.27.11-.09.09-.07-.09-.06-.09.01-.2.02-.18.03-.11.02-.11-.76h-.15l-.11.76-.11-.02-.18-.03-.2-.02-.1-.01h-.02c-.04 0-.07.01-.07.03s.01.04.04.06l.15.12c.35.28.58.96.58 1.72v.1l-.03.03-.09.1c-.05.05-.08.08-.09.1l-.05.04.09.08c.05.04.08.07.1.1l.07.1.07.09m3.79 0l.08-.08.09-.1.09-.1.09-.09-.06-.04-.1-.09-.09-.1-.03-.03.01-.15.02-.39c.03-.58.25-1.05.66-1.38l.08-.066-.08-.06-.1.01-.2.03-.18.03-.1.02-.1-.76h-.15l-.12.79c-.19-.04-.2-.08-.26-.08l-.21-.02-.1-.02h-.01c-.04 0-.07.01-.07.03s.01.05.04.07l.16.12c.13.1.17.16.37.53.07.15.11.27.11.35 0 .22.03.4.06.4l.02.39.01.14-.04.03-.09.1-.11.1-.04.04.09.09c.14.15.16.16.24.28m-7.87 1.69l.04-.16c.04-.14.07-.25.08-.335.13-.6.24-.755.54-.755.16 0 .3.09.34.23l.06.21c.01.05.05.08.1.08.11 0 .17-.12.17-.38 0-.07.02-.25.07-.51.03-.16.04-.31.04-.46 0-.13-.01-.19-.06-.33.04-.206.06-.48.06-.64 0-.26-.05-.5-.13-.63.04-.17.05-.24.05-.39 0-.11-.01-.23-.04-.35-.05-.25-.06-.32-.06-.36 0-.05.01-.1.03-.14.02-.06.03-.11.03-.13 0-.03-.01-.05-.03-.05l-.21.08-.23.13c-.07.04-.12.08-.24.19-.2-.19-.26-.21-.8-.36-.1-.03-.18-.06-.23-.09-.06-.05-.11-.07-.14-.07-.09 0-.13.14-.13.44 0 .22.03.43.07.59-.15.06-.29.09-.37.09-.01 0-.07-.01-.16-.02l-.04-.01c-.03 0-.05.05-.05.1 0 .04.03.14.06.23l.11.25c.04.09.13.2.25.31.11.09.2.14.28.16l.38.07c.23.05.36.17.36.32s-.1.26-.32.34l-.45.16c-.12.04-.26.11-.41.2-.25.15-.3.17-.36.17-.09 0-.14-.07-.14-.18 0-.18.12-.31.3-.31.04 0 .08.01.11.02.05.02.09.03.11.03.05 0 .07-.03.07-.08l-.01-.05-.02-.18c-.02-.15-.11-.34-.33-.63l-.09-.12c-.08-.34-.29-.65-.57-.83-.07-.05-.11-.08-.12-.08-.01-.01-.03-.06-.08-.15-.02-.04-.09-.13-.21-.26-.09-.09-.18-.18-.26-.24-.12-.09-.19-.15-.21-.19l-.11-.18c-.02-.03-.05-.05-.09-.05-.09 0-.18.1-.23.27-.04.12-.07.16-.15.16-.04 0-.1-.01-.18-.03l-.15-.02h-.38c-.18 0-.45-.05-.57-.11-.05-.02-.08-.03-.11-.03-.02 0-.04.01-.07.06-.02.03-.02.05-.02.08 0 .19.14.55.32.84.12.18.15.22.28.33-.04.18-.15.32-.29.36l-.17.05c-.02.01-.04.03-.04.05 0 .06.08.13.24.21.2.11.41.17.57.17.17 0 .34-.07.53-.22.29-.22.36-.26.5-.26.23 0 .44.2.44.42 0 .14-.08.3-.28.56-.29.38-.38.57-.38.85 0 .17.06.39.12.49l.1.16c.03.04.04.07.04.1 0 .07-.08.12-.19.12-.16 0-.48-.11-.73-.27-.12-.08-.21-.17-.21-.22 0-.03.02-.07.04-.08l.12-.08c.01-.01.02-.02.02-.04s-.01-.05-.04-.08l-.21-.27c-.11-.14-.28-.32-.44-.46-.06-.05-.09-.09-.11-.11l-.1-.16c-.07-.14-.27-.34-.46-.47-.08-.05-.12-.09-.15-.12-.01-.02-.04-.06-.08-.14-.03-.06-.07-.13-.14-.23-.11-.15-.19-.26-.25-.32l-.3-.3c-.09-.09-.17-.26-.3-.65-.07-.23-.14-.37-.18-.37-.02 0-.04.02-.08.06-.21.24-.39.38-.48.38-.02 0-.06-.02-.12-.05-.07-.05-.17-.08-.28-.11l-.38-.07c-.29-.05-.41-.12-.57-.31-.04-.05-.07-.08-.09-.08-.03 0-.06.06-.06.13l.01.09.06.28c.06.31.13.53.21.69l.18.33c.04.06.06.12.06.17 0 .24-.25.47-.56.49-.08.01-.11.03-.11.07 0 .06.09.16.2.25.21.16.49.28.67.28.11 0 .27-.05.48-.13l.23-.1c.09-.03.17-.05.24-.05.24 0 .48.23.77.73.13.22.19.39.19.54 0 .26-.13.42-.34.42-.16 0-.33-.07-.45-.2-.11-.1-.16-.21-.16-.32v-.12c0-.1-.03-.15-.09-.15-.1 0-.24.14-.66.64-.3.37-.37.53-.39.9-.35.46-.44.65-.44.97l.02.22c-.25.3-.32.46-.32.73 0 .1.02.16.08.28-.12.19-.16.27-.2.41l-.05.22c-.04.15-.09.28-.17.39-.09.14-.1.16-.1.2 0 .13.08.17.45.26-.02.1-.03.18-.03.23 0 .06.01.12.03.25l.07.39c.03.16.05.27.05.34s-.01.12-.07.33c-.04.12-.07.2-.1.24-.03.05-.06.12-.06.14 0 .04.02.06.07.06.1 0 .38-.17.66-.4.61-.5.73-.7.81-1.3l.03-.21c.29-.21.45-.47.45-.74 0-.22-.08-.47-.21-.68l-.21-.33c-.06-.1-.1-.22-.1-.35 0-.2.06-.38.2-.63.16-.29.3-.4.47-.4.28 0 .52.48.52 1.03v.26c0 .11 0 .21.02.35.02.16.03.27.03.31l.01.25v.17c0 .06-.03.12-.11.2l-.23.25c-.34.36-.52.7-.52.96 0 .32.23.55.54.55.06 0 .11-.01.22-.04v.07c0 .46.095.8.22.8l.05-.01.19-.17.23-.15.07-.06c0 .13.01.15.14.3.03.04.08.1.14.2l.1.16.05.1c.03.06.05.08.08.08s.06-.04.09-.15c.03-.08.05-.09.22-.26.06-.06.107-.1.127-.14.02-.03.045-.1.08-.21l.03-.08c.08.1.116.13.21.19l.16.09c.06.04.1.06.12.06.01 0 .03-.02.05-.06.02-.04.04-.09.08-.16.11-.2.15-.29.15-.38v-.2c.34-.11.47-.29.47-.66 0-.27-.14-.58-.41-.9-.18-.22-.205-.26-.205-.41 0-.78.54-1.23 1.5-1.24l.7-.01c.45-.01.72-.05 1.15-.19.5-.16.64-.2.79-.2.05 0 .09.01.13.04.04.02.07.06.07.09 0 .14-.257.26-1.1.5-1.73.49-2.47 1.19-2.47 2.34 0 .89.74 1.58 1.693 1.58.3 0 .78-.08 1.05-.18l.43-.15c.08-.03.15-.05.22-.05.15 0 .22.13.23.37 0 .14.03.18.12.18.12 0 .31-.15.48-.39.17-.24.28-.51.28-.69 0-.24-.11-.4-.37-.55-.23-.36-.52-.52-.91-.52-.3 0-.74.17-1.45.58-.25.15-.38.19-.51.19-.19 0-.31-.11-.31-.27 0-.15.12-.25.42-.35.45-.16.566-.22.746-.41.54-.1.77-.19 1.11-.45.92-.29 1.5-.92 1.5-1.64 0-.7-.47-1.21-1.13-1.21-.16 0-.25.01-.5.06m19.61 0l.04-.16c.04-.14.07-.25.09-.34.14-.6.25-.76.54-.76.17 0 .31.1.35.23l.06.21c.02.05.05.08.1.08.12 0 .18-.13.19-.38 0-.1.02-.27.06-.52.03-.175.04-.34.04-.485 0-.107-.01-.17-.06-.3l.02-.13c.03-.21.04-.29.04-.38 0-.45-.02-.59-.13-.76.05-.17.06-.25.06-.38 0-.07-.01-.19-.04-.37l-.05-.31.01-.19c.03-.07.05-.11.05-.12 0-.03-.02-.06-.04-.06l-.21.09-.23.12c-.08.04-.13.08-.243.19-.2-.18-.23-.2-.47-.26-.35-.1-.48-.14-.55-.19-.07-.05-.12-.07-.15-.07-.08 0-.14.16-.14.39 0 .34.02.51.07.64-.21.07-.31.1-.38.1-.03 0-.05-.01-.16-.02l-.04-.01c-.03 0-.05.04-.05.1 0 .1.08.31.17.48.13.24.35.43.52.47l.38.07c.23.05.36.16.36.32 0 .15-.1.25-.33.33l-.44.16c-.15.05-.29.11-.42.19-.11.07-.19.12-.23.14-.04.02-.08.03-.11.03-.09 0-.15-.06-.15-.177 0-.18.14-.33.31-.33.04 0 .08.01.11.02.05.02.08.03.1.03.05 0 .09-.05.09-.11 0-.19-.12-.51-.24-.67l-.13-.16-.09-.123c-.03-.27-.3-.66-.57-.83-.06-.04-.1-.07-.11-.08-.01-.01-.04-.06-.09-.15-.02-.04-.09-.12-.21-.25-.09-.09-.174-.18-.26-.24-.12-.09-.19-.15-.21-.19l-.1-.17c-.02-.04-.05-.05-.09-.05-.09 0-.18.1-.23.26-.04.12-.07.16-.15.16-.04 0-.1-.01-.19-.03l-.14-.02H90c-.2 0-.463-.05-.59-.1-.05-.02-.082-.04-.11-.04-.05 0-.08.06-.08.16 0 .34.258.84.59 1.17-.05.2-.15.33-.282.36l-.19.05c-.02.01-.03.03-.03.05 0 .07.077.14.24.21.3.14.39.17.556.17.194 0 .355-.06.554-.22.285-.22.364-.26.5-.26.225 0 .44.21.44.42 0 .15-.08.31-.278.56-.28.36-.38.59-.38.89 0 .21.04.32.222.61.024.05.04.09.04.11 0 .06-.096.11-.2.11-.114 0-.254-.04-.443-.12-.32-.14-.51-.28-.51-.36 0-.03.02-.06.05-.08l.1-.07c.01-.01.02-.03.02-.05s-.02-.06-.05-.08l-.21-.28c-.15-.19-.29-.34-.44-.46-.06-.04-.09-.08-.11-.11l-.09-.15c-.07-.13-.28-.35-.45-.48-.08-.06-.13-.09-.15-.11-.02-.02-.06-.07-.1-.14-.11-.196-.28-.43-.39-.55l-.28-.29c-.08-.086-.2-.33-.31-.65-.09-.256-.14-.37-.18-.37-.02 0-.05.02-.08.06-.2.24-.39.38-.48.38-.03 0-.07-.02-.13-.05-.08-.05-.17-.08-.28-.106l-.37-.07c-.32-.07-.44-.13-.59-.32-.04-.05-.07-.07-.08-.07-.04 0-.06.05-.06.13l.01.09.05.28c.05.3.13.55.21.69l.19.33c.03.06.05.12.05.17 0 .24-.23.44-.57.49-.07.01-.11.04-.11.08 0 .05.08.14.21.24.22.17.47.27.64.27.12 0 .27-.04.48-.13l.23-.1c.09-.04.17-.06.23-.06.25 0 .48.22.78.72.13.23.19.39.19.54 0 .27-.12.43-.33.43-.16 0-.32-.07-.45-.2-.11-.12-.17-.23-.17-.34l.01-.11v-.05c0-.08-.03-.12-.09-.12-.08 0-.17.08-.35.29l-.3.35c-.32.38-.38.53-.4.91-.35.45-.44.71-.44.97l.01.22c-.26.31-.31.43-.31.73 0 .14.01.17.06.28-.13.18-.17.27-.2.41l-.02.2c-.04.15-.09.28-.17.39-.1.132-.11.152-.11.19 0 .11.1.18.37.25l.08.02c-.01.1-.02.18-.02.23 0 .06.01.12.03.25l.07.39c.03.15.04.27.04.35 0 .09-.01.16-.06.33-.04.11-.07.19-.11.24-.04.06-.06.11-.06.14 0 .032.04.06.08.06.03 0 .07-.018.11-.04.36-.19.74-.5 1.02-.81.24-.26.31-.48.37-1.07.32-.24.44-.45.44-.79 0-.2-.07-.4-.21-.62-.13-.2-.2-.31-.21-.33-.06-.1-.1-.23-.1-.35 0-.19.06-.37.2-.62.16-.28.3-.4.47-.4.28 0 .53.47.53 1v.39l.03.25.02.3.02.25.01.14c0 .1-.02.13-.34.48-.36.38-.52.7-.52 1 0 .28.25.52.54.52.06 0 .12-.01.22-.04v.12l.01.22.07.28c.05.22.08.26.15.26l.05-.02.19-.17.23-.15.07-.06c.02.13.03.16.14.29.06.07.11.14.15.2l.11.16.07.1c.04.07.06.08.09.08s.05-.03.08-.15c.02-.05.05-.09.1-.14l.14-.11c.11-.09.18-.23.23-.43.08.1.12.14.21.19l.17.09c.06.04.1.06.11.06.01 0 .03-.02.04-.06.02-.05.05-.1.08-.15.14-.22.15-.25.15-.4v-.21c.34-.1.47-.28.47-.66 0-.28-.13-.57-.4-.9-.18-.21-.21-.28-.21-.44 0-.74.56-1.19 1.5-1.21l.69-.01c.45 0 .73-.05 1.15-.19.49-.16.65-.2.8-.2.11 0 .19.06.19.13 0 .16-.25.27-1.1.51-1.73.49-2.47 1.19-2.47 2.34 0 .89.74 1.57 1.7 1.57.3 0 .77-.08 1.04-.18l.43-.15c.08-.03.16-.04.23-.04.15 0 .2.09.23.37.01.12.05.18.13.18.11 0 .33-.18.48-.39.16-.22.27-.51.27-.71 0-.22-.11-.39-.36-.53-.23-.36-.52-.52-.92-.52-.3 0-.8.21-1.45.58-.25.15-.36.19-.5.19-.18 0-.31-.1-.31-.27 0-.15.12-.25.43-.36.5-.18.61-.24.75-.41.54-.1.77-.19 1.1-.44.96-.31 1.5-.9 1.5-1.66 0-.69-.47-1.19-1.12-1.19-.17 0-.26.01-.51.06m-19.42-19.8c.09-.23.12-.34.14-.49l.02-.44c.01-.44.16-.66.44-.66.1 0 .18.02.23.07l.11.11.04.02c.07 0 .11-.05.11-.14l-.01-.17c-.01-.08.01-.24.04-.49.02-.14.03-.28.03-.42 0-.22-.02-.31-.1-.51.08-.21.12-.44.12-.64 0-.23-.04-.38-.13-.51.04-.18.05-.25.05-.36 0-.1-.01-.23-.04-.4-.04-.22-.05-.39-.04-.5v-.02c0-.07-.02-.1-.06-.1-.04 0-.09.03-.13.08-.07.08-.11.11-.16.11-.07 0-.09-.04-.2-.35-.03-.1-.12-.23-.25-.39-.1-.13-.17-.23-.19-.31-.03-.13-.05-.2-.06-.22-.01-.03-.03-.05-.06-.05l-.01-.01c-.17 0-.37.37-.57 1.07-.06.2-.13.284-.24.284-.08 0-.15-.05-.18-.12l-.06-.15c-.01-.03-.04-.044-.06-.044-.08 0-.21.15-.29.35-.07.16-.1.33-.1.48 0 .33.24.58.97.99.32.18.44.41.44.82 0 .33-.1.51-.38.73-.22.165-.35.23-.47.23-.1 0-.18-.067-.18-.15 0-.1.05-.16.19-.208.16-.06.23-.12.23-.19 0-.068-.07-.21-.18-.38-.12-.18-.17-.237-.34-.35-.05-.29-.19-.48-.51-.686-.06-.18-.1-.25-.21-.39l-.22-.29c-.07-.09-.15-.25-.16-.32-.03-.16-.04-.19-.1-.19-.09 0-.26.15-.43.37-.1.13-.13.19-.14.34-.11-.084-.14-.096-.356-.124-.13-.02-.22-.04-.28-.07-.16-.09-.21-.11-.24-.11-.04 0-.06.02-.06.1l-.01.23c0 .32.12.69.31.94-.19.16-.37.25-.52.27-.06.01-.073.02-.073.04 0 .04.04.12.1.19.08.1.14.17.19.21.15.12.41.22.61.22.14 0 .34-.05.6-.15.09-.04.18-.06.25-.06.12 0 .18.075.18.21 0 .19-.09.49-.3.97-.14.322-.21.54-.21.69 0 .37.17.745.39.85-.1.055-.15.07-.24.07-.1 0-.18-.027-.32-.105-.15-.09-.24-.17-.24-.22 0-.02.03-.06.08-.09.09-.06.1-.08.1-.16 0-.26-.22-.61-.52-.84-.06-.37-.23-.59-.56-.744-.05-.2-.07-.26-.23-.487-.28-.384-.34-.506-.39-.72-.03-.115-.05-.16-.09-.16-.05 0-.14.07-.24.18-.09.095-.15.16-.17.2-.05.07-.07.14-.12.335-.08-.02-.1-.03-.15-.03l-.16.01h-.11c-.23 0-.48-.058-.6-.13-.05-.03-.08-.04-.09-.04-.07 0-.13.14-.13.32 0 .38.103.69.35 1.03-.09.073-.12.1-.2.19-.036.034-.065.06-.086.07l-.11.062c-.04.02-.06.04-.06.07 0 .05.15.2.34.32.2.13.36.18.51.18.17 0 .26-.04.478-.23.15-.13.25-.19.33-.19.05 0 .1.04.15.1.03.05.05.1.05.16 0 .2-.24.54-.51.71-.2.13-.41.2-.62.2-.29 0-.54-.15-.65-.38l-.11-.24c-.028-.06-.06-.09-.1-.09-.07 0-.1.03-.34.3l-.27.31c-.09.1-.14.19-.17.28-.028.08-.04.13-.05.14-.01.02-.05.04-.11.09-.21.15-.367.44-.45.87l-.03.13c-.26.31-.41.7-.41 1.04 0 .04 0 .06.02.14-.15.15-.17.19-.28.59-.09.29-.14.41-.25.55-.02.04-.04.06-.04.08 0 .06.09.1.24.13s.16.03.21.03l.21-.01-.01.28c0 .17.01.28.06.48.02.1.03.17.03.22 0 .02 0 .08-.02.18-.01.08-.02.13-.03.15-.016.04-.02.07-.02.09 0 .04.02.05.06.05.03 0 .07-.01.14-.04.18-.09.33-.18.45-.28.36-.29.65-.72.65-.99l-.007-.09c-.01-.1-.02-.15-.02-.16 0-.05.03-.11.08-.17l.12-.16c.1-.14.17-.3.17-.41 0-.1-.02-.14-.19-.39-.13-.19-.18-.32-.18-.47 0-.19.07-.43.21-.67.12-.22.27-.34.4-.34.233 0 .34.21.37.77.02.29.05.56.09.8l.01.14c0 .06-.02.1-.11.2l-.31.37c-.3.35-.39.53-.39.78 0 .29.19.49.46.49l.124-.01v.08c0 .06.02.16.05.28.07.23.15.4.2.4.01 0 .05-.02.1-.05.02-.01.08-.04.19-.07.06-.02.1-.04.21-.11.05.18.09.27.17.37.13.18.29.32.34.32.03 0 .09-.04.17-.12l.2-.21c.03-.04.07-.1.11-.2l.04-.09.12.07c.08.05.14.08.17.1l.2.09c.05.04.09.05.105.05.04 0 .06-.06.14-.41.05-.24.06-.29.07-.46.33-.05.49-.24.49-.6 0-.34-.16-.68-.52-1.06-.09-.11-.12-.16-.12-.26 0-.93.32-1.22 1.49-1.34.72-.08.93-.12 1.79-.38.45-.14.71-.19.88-.19.2 0 .31.07.31.2 0 .19-.14.25-.98.43-1.95.41-2.71 1.07-2.71 2.35 0 .92.68 1.6 1.6 1.6.4 0 .76-.12 1.33-.45.53-.31.64-.36.76-.36.14 0 .2.09.2.32 0 .15.05.22.14.22.08 0 .21-.08.32-.22.18-.2.24-.31.24-.6 0-.38-.2-.63-.6-.74l-.09-.11c-.22-.25-.41-.33-.75-.33-.3 0-.67.12-.93.31l-.5.35c-.22.15-.38.22-.53.22-.21 0-.34-.13-.34-.34 0-.21.14-.38.37-.45l.48-.15c.17-.06.25-.09.45-.19.12.02.17.02.24.02.3 0 .61-.08.89-.22.09-.04.15-.07.19-.08l.27-.08c.6-.17 1.09-.84 1.09-1.49 0-.75-.48-1.21-1.26-1.21l-.25.01m18.29.16c.19-.24.44-.4.65-.4.07 0 .18.01.29.04.06.01.11.02.14.02.05 0 .08-.02.08-.07 0-.04-.02-.13-.05-.2-.03-.08-.05-.14-.06-.19l-.04-.22-.1-.19-.15-.14-.04-.04v-.15c0-.26-.07-.4-.28-.54l-.07-.05-.02-.08c-.05-.2-.08-.32-.11-.37-.02-.06-.09-.15-.2-.29-.12-.17-.21-.3-.26-.43-.04-.11-.07-.14-.14-.14-.1 0-.2.13-.22.28-.02-.03-.04-.05-.05-.06l-.12-.09-.2-.13c-.09-.06-.14-.1-.16-.13l-.11-.11c-.02-.02-.04-.03-.06-.03-.05 0-.11.09-.16.26l-.11.35c-.03.09-.04.2-.04.34 0 .17.01.23.07.37-.21-.03-.27-.04-.38-.08-.04-.01-.08-.02-.1-.02-.03 0-.05.02-.05.06 0 .02.02.09.04.15l.14.35c.11.28.45.53.72.53.07 0 .16-.02.27-.06.07-.02.13-.03.16-.03.12 0 .22.09.22.2 0 .06-.03.12-.08.14-.02.01-.14.05-.38.11-.18.05-.26.11-.46.34-.14.16-.2.21-.25.21-.04 0-.06-.03-.06-.07l.01-.14v-.06c0-.29-.09-.57-.3-.95l-.29-.54c-.14-.26-.2-.45-.2-.64 0-.22.1-.4.21-.43l.16-.05c.02-.01.04-.02.05-.04.02-.02.04-.04.04-.06 0-.02-.02-.06-.05-.1-.02-.02-.08-.1-.19-.24-.18-.23-.29-.32-.51-.39-.13-.31-.33-.49-.7-.61l-.04-.07c-.13-.22-.4-.42-.58-.42h-.04c-.03-.19-.16-.39-.37-.54-.15-.1-.23-.16-.25-.18-.01-.01-.03-.04-.05-.09-.05-.1-.09-.15-.15-.15-.11 0-.2.11-.27.31l-.09-.06c-.12-.09-.19-.13-.2-.14-.05-.02-.17-.06-.37-.1-.26-.06-.48-.17-.54-.27l-.09-.16-.04-.02c-.06 0-.11.07-.14.16-.06.21-.1.44-.1.59 0 .37.12.61.5.99v.09c0 .58.44.97 1.09.97h.11l.36-.02h.03c.19 0 .37.07.56.23.26.21.33.34.33.58 0 .07-.02.16-.1.42-.05.17-.08.33-.08.49 0 .43.32.97.75 1.27.11.08.19.18.19.24 0 .02-.01.04-.02.04-.03 0-.07-.03-.13-.08-.05-.04-.14-.1-.25-.15l-.17-.09-.19-.07c-.06-.02-.09-.06-.09-.1 0-.03 0-.06.02-.1.01-.04.02-.06.02-.08 0-.03-.02-.07-.06-.13l-.14-.24c-.15-.24-.25-.34-.43-.42-.12-.35-.29-.52-.54-.56-.2-.4-.37-.54-.73-.58-.05-.15-.13-.28-.31-.48-.08-.08-.12-.14-.14-.17-.08-.15-.09-.16-.13-.16-.05 0-.16.08-.24.16-.04.04-.07.08-.1.13l-.09.17c-.03.05-.06.07-.1.07l-.07-.01-.23-.03c-.14-.02-.35-.14-.42-.24l-.12-.19c-.02-.02-.04-.03-.05-.03-.1 0-.16.21-.16.55 0 .3.05.5.15.65l.3.41c.04.05.06.11.06.16 0 .04-.02.09-.05.13-.06.07-.12.12-.17.12l-.22.03c-.04 0-.05.01-.05.03 0 .02.01.04.03.07.08.09.16.17.27.23.26.16.43.22.61.22s.38-.07.55-.18l.31-.2c.05-.03.1-.04.15-.04.14 0 .25.08.35.27.1.18.14.33.14.48 0 .39-.28.68-.67.68-.18 0-.37-.07-.54-.21-.05-.04-.09-.08-.1-.12l-.08-.19c-.02-.04-.05-.07-.08-.07-.05 0-.17.15-.27.35-.05.1-.1.23-.15.38-.06.2-.09.36-.09.52l.02.28c-.14.22-.19.39-.19.65 0 .1.02.17.08.37-.09.15-.11.26-.11.47l.01.13.03.15.02.12c-.1.13-.13.22-.23.68-.06.26-.09.37-.14.44-.02.03-.03.05-.03.06 0 .06.145.12.31.12l.15-.01c-.03.09-.04.13-.04.21 0 .13.025.27.075.42.05.16.07.2.07.25 0 .12-.02.25-.05.32l-.09.21c-.02.05-.03.08-.03.11 0 .02.02.03.05.03.21 0 .6-.23.91-.52.31-.29.41-.527.41-.96l-.02-.23c.29-.25.41-.46.41-.68 0-.17-.05-.28-.21-.43-.28-.286-.34-.43-.34-.79 0-.56.17-.86.47-.86.28 0 .48.29.52.72l.03.4c.01.1.03.23.06.38.02.094.03.22.03.273 0 .14-.09.32-.37.64-.3.35-.39.53-.39.8 0 .33.22.56.52.56.08 0 .11-.01.21-.06.01.19.01.22.12.48.09.2.17.35.21.35.02 0 .04-.02.07-.04.05-.05.09-.09.14-.12l.11-.07.09-.09c.07.24.13.35.33.54.14.14.2.19.23.19.02 0 .05-.02.07-.05l.12-.17.18-.2c.07-.08.09-.14.13-.33l.1.06.17.09.13.08c.03.02.05.03.07.03.02 0 .04-.03.05-.08l.06-.24.14-.27c.04-.08.05-.14.05-.27v-.06l.07.01c.205 0 .38-.25.38-.53 0-.38-.3-.86-.68-1.12-.04-.12-.05-.17-.05-.28 0-.83.22-1.01 1.51-1.2.32-.05.61-.105.86-.18.04-.01.32-.1.83-.27.29-.09.48-.13.62-.13.16 0 .25.04.25.12 0 .15-.21.28-.86.53l-.91.36c-.93.37-1.37.93-1.37 1.77 0 .97.73 1.7 1.71 1.7.364 0 .72-.07 1.24-.26.66-.24.695-.25.77-.25.125 0 .195.09.215.27.02.156.06.22.15.22.13 0 .27-.12.37-.315.09-.17.14-.37.14-.54 0-.34-.19-.57-.52-.64-.22-.29-.5-.43-.84-.43-.42 0-.62.08-1.34.53-.25.16-.36.2-.55.2-.25 0-.44-.154-.44-.37 0-.19.15-.31.5-.41.21-.05.24-.07.34-.18.09.02.13.03.18.03.34 0 .76-.19 1.11-.49.65-.2 1.22-.9 1.22-1.49 0-.65-.56-1.23-1.19-1.23-.17 0-.51.06-.81.13"/>
      <path fill="#fddd04" d="M75.49 573.903c-.03.126-.04.19-.04.254l.007.082.032.16.01.13c0 .14-.03.25-.08.31l-.13.16c-.05.05-.08.12-.11.2-.02.04-.02.07-.02.09 0 .04.02.07.07.07.03 0 .04-.01.13-.06.04-.03.07-.04.1-.04.06 0 .1.1.1.28 0 .2-.02.31-.07.36l-.16.18-.14.11c-.04.03-.06.06-.06.09 0 .05.03.08.08.08s.15-.02.23-.05l.05-.01c.04 0 .06.02.06.09l-.01.04-.03.22-.07.23c-.02.07-.04.09-.08.09l-.03-.01-.26-.06-.04-.01c-.35 0-.71.29-.82.65l-.21.69c-.07.21-.23.41-.51.64-.09.07-.16.11-.21.11l-.19.03c-.03 0-.06.02-.06.05 0 .04.04.06.13.06l.35-.03c.12-.01.31-.06.56-.15.31-.1.52-.15.7-.15.52 0 .84.29.84.76 0 .33-.17.7-.43.93-.15.13-.3.23-.35.23-.03 0-.05-.02-.05-.05l.01-.13v-.01c0-.05-.03-.09-.07-.09-.05 0-.11.07-.18.21-.2.42-.51.66-.84.66-.06 0-.1-.02-.1-.05 0-.02.02-.08.05-.15l.08-.19c.02-.05.03-.09.03-.1 0-.02-.02-.03-.04-.03-.05 0-.13.04-.18.1l-.16.17-.14.21c-.11.16-.2.24-.43.36l-.26.14c-.05.03-.1.04-.13.04-.04 0-.06-.02-.06-.06 0-.03.01-.07.04-.11.07-.12.1-.18.1-.21s-.03-.06-.06-.06c-.08 0-.25.16-.4.39-.13.18-.19.39-.19.59 0 .45.33.78.77.78.23 0 .52-.09.79-.26l.49-.31c.17-.11.42-.19.57-.19.07 0 .21.02.31.05.05.01.09.03.13.05.03.02.05.04.05.06 0 .02-.01.04-.03.04l-.06.02-.23.04c-.06.01-.16.04-.29.1-.28.12-.46.21-.53.26-.17.11-.29.18-.35.2-.08.03-.14.07-.14.1s.02.05.05.05c.03 0 .07-.02.11-.04.15-.1.28-.15.38-.15l.46-.16c.22-.08.55-.15.7-.15.19 0 .34.15.34.34 0 .12-.08.31-.19.46-.02.04-.05.06-.07.06-.04 0-.06-.03-.06-.09l.01-.09.02-.12c0-.14-.09-.24-.21-.24-.04 0-.1.01-.16.03l-.69.22c-.57.18-.84.24-1.13.24-.82 0-1.44-.56-1.44-1.3 0-.84.59-1.38 2.04-1.87 1.43-.49 1.63-.61 1.63-.98 0-.21-.21-.4-.45-.4-.1 0-.18.01-.25.02-.05.01-.28.07-.71.17-.44.1-.83.15-1.31.15-1.03 0-1.6-.18-2.1-.66-.12-.12-.16-.14-.31-.14l-.15.01h-.02c-.13 0-.22-.06-.3-.19-.11-.18-.17-.27-.18-.28-.03-.04-.08-.06-.12-.06-.1 0-.15.07-.26.32-.05.13-.13.23-.22.32l-.21.19c-.03.03-.05.06-.05.08 0 .02.02.05.05.09.1.14.13.21.15.27.02.14.03.14.09.14s.08-.07.09-.31c0-.07.03-.17.08-.28l.12-.25c.01-.04.05-.06.09-.06.11 0 .25.26.29.53.03.22.05.29.1.29.02 0 .03-.01.04-.02l.09-.19c.03-.06.07-.11.13-.16.06-.04.1-.07.12-.07H70c.08 0 .11.05.13.25l.012.1-.027.14-.01.1c0 .06.022.11.06.11.02 0 .05-.02.08-.05l.1-.11c.07-.07.14-.11.21-.11.084 0 .14.04.14.1 0 .05-.02.1-.1.24l-.072.13c-.084.15-.15.22-.23.22l-.106-.01-.126-.06c-.04-.01-.06-.02-.08-.02-.02 0-.03.02-.03.04 0 .09.06.24.18.43.08.13.14.41.17.82.04.54.11.9.19.9.06 0 .07-.04.07-.16v-.24c0-.1.02-.18.05-.18.09 0 .2.14.28.36.04.09.06.16.06.21l-.01.05-.21.39-.21.06c-.04.01-.06.03-.07.05v.26l-.02.12-.04.11-.05.12c-.23-.13-.34-.21-.42-.32-.08-.11-.13-.15-.17-.15-.03 0-.05.02-.05.05 0 .02.01.08.03.17l.01.06c0 .22-.14.45-.36.59l-.06-.08-.07-.11-.13-.15c-.04-.05-.07-.12-.1-.21-.01-.05-.02-.09-.02-.12v-.06c0-.09-.01-.11-.05-.11l-.03.01-.07.11-.12.12-.18.11-.09.07-.04-.1c-.03-.07-.05-.13-.05-.17l-.01-.17-.01-.18v-.03c0-.09-.02-.13-.07-.13-.02 0-.07.02-.12.05-.05.03-.1.04-.15.04-.16 0-.26-.11-.26-.29 0-.21.06-.41.17-.55l.14-.18c.03-.04.1-.08.11-.06l.02.22-.03.18v.08c0 .07.02.11.06.11.06 0 .09-.06.13-.24l.08-.39.08-.49c.03-.13.07-.27.13-.42.09-.2.15-.32.18-.37.12-.15.13-.17.13-.2s-.02-.05-.04-.05-.06.01-.1.03c-.03.01-.08.03-.12.04l-.08.01c-.17 0-.2-.15-.2-.85 0-.43.09-1.01.2-1.29l.22-.55c.03-.09.05-.18.05-.26 0-.77-1.02-1.97-2.13-2.52-.42-.2-.55-.4-.58-.86l-.01-.14c.17.08.24.11.35.14.31.08.37.12.42.27l.04.13c.02.05.04.07.28.2.08.05.14.09.17.14.05.09.1.14.13.14s.04-.01.04-.03l-.01-.04-.1-.3-.01-.07c0-.22.12-.4.35-.52.04.25.06.33.14.44l.18.29c.07.11.1.25.1.45 0 .12-.01.24-.03.33v.09c0 .06.03.09.08.09.04 0 .07-.01.07-.03l.04-.2c.01-.05.05-.08.1-.08.1 0 .24.13.37.36.05.09.08.19.08.28l-.01.14-.03.16v.03c0 .07.04.12.09.12.03 0 .04-.01.05-.02l.06-.24c.02-.08.08-.14.14-.14.07 0 .19.12.26.26.06.12.09.27.09.43 0 .22.02.29.11.29.03 0 .05-.01.05-.03l.04-.14c.02-.05.05-.09.08-.09.05 0 .17.12.24.26.03.03.04.07.04.09 0 .05-.03.09-.1.15-.11.09-.12.1-.12.24 0 .13.02.2.12.36.05.09.1.18.14.26.13.26.18.32.23.32.04 0 .08-.04.08-.09 0-.02-.01-.05-.02-.08-.03-.06-.04-.1-.04-.12 0-.04.04-.08.08-.08.05 0 .11.02.19.06.03.02.12.06.29.12l.35.12c.06.02.13.03.21.03.07 0 .13 0 .19-.02.13-.02.21-.04.24-.04.1 0 .18.08.18.18 0 .07-.07.21-.17.32-.03.04-.05.07-.05.09l.01.04c.01.03.03.04.05.04.07 0 .24-.17.39-.41.91-1.42 1.23-1.77 1.84-1.95.62-.19.78-.33.78-.7 0-.2-.1-.44-.33-.75-.45-.64-.57-.9-.57-1.32v-.08c.06.02.09.04.12.05.09.05.14.07.17.08l.26.05c.08.01.15.11.15.21v.03l-.03.23-.01.03c0 .08.04.18.1.22.02.02.04.025.06.025.03 0 .07-.03.09-.06l.17-.35c.07-.14.15-.21.37-.31m-8.45 7.62c-.08 0-.12-.07-.13-.21l-.02-.2c-.02-.19-.02-.21-.02-.25 0-.15.04-.26.1-.26.07 0 .17.12.22.27.03.09.05.17.05.25 0 .07-.02.15-.05.24-.04.11-.1.17-.16.17"/>
      <path fill="#fddd04" d="M66.052 583.16v-.09c0-.13-.03-.286-.137-.687-.02-.074-.03-.146-.03-.19 0-.07.025-.148.083-.24.034-.055.067-.092.095-.105l.126-.063.02-.148c-.01-.057 0-.136.03-.23.03-.105.04-.21.04-.315 0-.088-.01-.123-.03-.123-.04 0-.11.1-.18.26-.1.25-.19.35-.34.35-.12 0-.19-.02-.33-.09.03-.04.05-.07.06-.09l.09-.18.15-.29c.1-.2.16-.31.18-.34.04-.06.09-.11.14-.15l.17-.1c.05-.03.08-.07.08-.1 0-.05-.04-.08-.09-.08l-.14.02-.08.01c-.04 0-.06-.04-.06-.12 0-.29.22-.62.62-.9.05-.04.08-.09.08-.12 0-.04-.04-.07-.08-.07-.03 0-.09.02-.14.04-.03.01-.06.02-.08.02-.05 0-.08-.04-.08-.11 0-.08.06-.23.19-.48.08-.16.21-.28.35-.35l.47-.2c.02-.01.04-.04.04-.06 0-.04-.03-.07-.07-.08l-.09-.01-.09-.01-.14.01h-.02c-.07 0-.1-.01-.1-.05 0-.06.06-.19.15-.35.11-.19.21-.29.27-.29.03 0 .05.02.07.05l.12.24c.02.04.11.11.27.21.1.06.2.1.29.11l.19.03c.05.01.07.04.07.1v.03l-.03.2-.02.22-.02.2-.02.23c0 .06-.02.09-.05.09-.03 0-.07-.04-.1-.08-.16-.26-.28-.34-.45-.34-.56 0-.99.98-.99 2.29 0 .11.01.25.02.43.02.33.03.42.03.54 0 .57-.12.96-.36 1.2l-.15.14-.1.1m1.35-7.68c-.15.02-.22.03-.31.07l-.2.08c-.17.07-.3.1-.4.1-.16 0-.29-.05-.44-.18l.09-.07.21-.15.2-.16c.05-.04.11-.07.17-.07.2 0 .38.1.67.36m4.05-1.92c.05.13.08.16.21.27.29.25.43.44.43.59v.23c0 .14.02.18.09.18.03 0 .06-.01.07-.03l.05-.13c.01-.03.05-.05.09-.05.04 0 .1.05.15.13l.1.14c.05.08.07.14.07.21 0 .04-.01.08-.02.12-.01.02-.03.08-.08.17-.02.05-.04.13-.04.16 0 .07.03.11.09.11.03 0 .06-.01.07-.03l.09-.1c.02-.02.05-.03.08-.03.04 0 .08.03.11.09l.08.17c.02.04.03.07.03.09 0 .03-.03.07-.1.09l-.14.06c-.18.08-.32.37-.32.67 0 .04.01.08.02.11l.08.18c.02.05.03.11.03.17 0 .11-.04.22-.11.33-.08.13-.13.2-.13.22-.06.16-.09.21-.15.21l-.06-.01-.07-.05-.12-.07-.14-.17-.15-.07c-.09-.04-.17-.23-.17-.38 0-.27.03-.35.39-.97.14-.24.21-.44.21-.6 0-.43-.39-.74-1.16-.92l-.49-.11c-.35-.09-.56-.33-.64-.75.15.08.21.09.47.09h.18c.14 0 .16.01.25.14.1.14.21.23.35.29l.16.07.13.08.04.01c.03 0 .05-.02.05-.04 0-.04-.04-.11-.1-.18-.12-.14-.17-.25-.17-.41 0-.1.02-.16.11-.28"/>
      <path fill="#fddd04" d="M70.13 575.196c.12-.076.243-.186.315-.284.1-.137.115-.148.214-.148.04 0 .09.008.15.022l.09.02c.17.034.23.06.23.103 0 .02-.02.05-.06.08l-.12.1-.12.1c-.08.07-.22.12-.35.12-.13 0-.2-.03-.38-.13m3.4-.57l.06.01.09.01.09-.02.04-.01c.23 0 .46.2.46.41 0 .07-.07.11-.19.11-.28 0-.46-.16-.57-.53m21.56-.73c-.02.1-.03.14-.03.19l.01.14c.03.19.03.29.03.4 0 .08-.02.14-.07.21l-.13.17c-.08.11-.12.19-.12.29 0 .06.01.08.06.08l.05-.01c.01 0 .04-.02.09-.05.04-.03.07-.04.1-.04.06 0 .09.1.09.29 0 .27-.05.41-.21.53l-.15.12c-.03.02-.04.05-.04.08 0 .05.03.08.08.08.03 0 .07-.01.12-.02l.11-.03.05-.01c.03 0 .05.03.05.09v.04l-.03.22c-.04.23-.07.31-.14.31h-.02l-.27-.06h-.05c-.33 0-.72.31-.82.65l-.2.68c-.06.2-.24.43-.5.64-.09.07-.17.11-.22.11l-.19.02c-.04 0-.06.02-.06.05 0 .04.03.06.11.06.26 0 .55-.06.93-.18.34-.11.53-.16.7-.16.52 0 .84.27.84.73 0 .22-.08.51-.2.69-.1.16-.28.32-.49.46-.03.02-.06.03-.08.03-.03 0-.06-.03-.06-.05l.01-.14v-.01c0-.06-.04-.1-.07-.1-.06 0-.12.07-.19.21-.19.41-.51.66-.83.66-.07 0-.11-.02-.11-.07 0-.03.02-.08.05-.14.03-.06.06-.12.09-.19.01-.04.02-.07.02-.09 0-.02-.02-.03-.05-.03-.05 0-.13.04-.18.1l-.16.16-.14.21c-.11.17-.22.27-.42.37l-.26.14c-.05.03-.1.04-.13.04s-.05-.02-.05-.05c0-.04.01-.08.04-.12.06-.09.1-.18.1-.21 0-.04-.02-.07-.05-.07-.08 0-.21.13-.39.39-.13.18-.2.38-.2.59 0 .44.34.78.78.78.22 0 .51-.1.78-.26l.51-.31c.18-.11.42-.19.57-.19.08 0 .11 0 .29.05.05.02.1.03.14.05.02.02.04.04.04.06 0 .05-.03.06-.09.07-.24.02-.72.21-1.04.41-.19.12-.3.19-.35.2-.09.03-.14.08-.14.12 0 .01.01.02.04.02l.06-.01.46-.17.44-.16c.22-.07.55-.14.71-.14.2 0 .33.14.33.34 0 .1-.02.21-.06.29-.06.12-.15.23-.18.23-.04 0-.07-.04-.07-.11v-.06l.01-.14c0-.14-.08-.23-.2-.23-.05 0-.11.01-.17.03l-.69.22c-.59.19-.82.24-1.11.24-.82 0-1.45-.56-1.45-1.3 0-.84.57-1.37 2.05-1.88 1.43-.5 1.62-.61 1.62-.99 0-.22-.21-.39-.46-.39-.1 0-.18.01-.25.02l-.72.17c-.44.1-.81.15-1.31.15-1.04 0-1.54-.16-2.09-.66-.13-.12-.18-.14-.32-.14l-.07.01-.17.01c-.13 0-.22-.06-.3-.19l-.17-.29c-.02-.04-.07-.06-.12-.06-.11 0-.17.07-.27.33-.05.13-.12.24-.21.31l-.22.19c-.03.03-.05.06-.05.08 0 .02.02.05.05.1.04.04.07.09.1.15s.05.1.05.12l.01.09c.01.03.04.05.07.05.07 0 .08-.04.08-.3 0-.07.03-.16.08-.28l.12-.25c.01-.04.05-.06.09-.06.11 0 .25.26.29.53.03.22.05.29.1.29.04 0 .06-.03.15-.21.03-.06.07-.11.13-.16.05-.05.09-.07.12-.08h.01c.09 0 .12.05.14.25l.01.1-.02.15-.01.1c0 .07.02.11.06.11.02 0 .05-.01.07-.04l.11-.1c.07-.07.15-.11.22-.11.09 0 .14.04.14.1 0 .05-.01.08-.11.23-.01.01-.04.06-.08.13-.09.18-.14.22-.22.22l-.11-.01-.13-.05c-.04-.02-.07-.03-.09-.03-.02 0-.03.02-.03.04 0 .1.06.24.18.43.07.11.13.39.18.82l.05.5c.03.3.07.41.13.41.02 0 .04-.01.04-.02l.03-.16v-.1c0-.15.02-.28.04-.28.05 0 .11.05.17.14.05.06.09.13.11.21.04.11.05.2.05.27 0 .24-.1.35-.43.44-.03.01-.05.02-.06.03l-.01.09v.18l-.02.13-.04.1-.05.12-.08-.05c-.21-.13-.27-.17-.34-.26-.09-.12-.13-.15-.16-.15s-.05.02-.05.04l.04.18v.03c0 .23-.13.45-.36.62l-.07-.09-.07-.11-.13-.15c-.07-.09-.12-.2-.12-.31v-.07c0-.09-.01-.11-.05-.11l-.02.01-.09.1-.1.13-.19.12-.1.07c-.1-.22-.1-.25-.1-.53v-.09c0-.09-.03-.15-.08-.15-.03 0-.07.02-.13.05-.05.03-.11.04-.16.04-.16 0-.27-.13-.27-.31 0-.2.04-.33.17-.54.08-.13.19-.25.24-.25.01 0 .02.1.03.22l-.03.18-.01.08c0 .07.03.11.07.11.06 0 .09-.07.13-.25l.09-.39.08-.5c.02-.13.06-.27.12-.42.08-.2.14-.32.18-.37.11-.15.12-.17.12-.21 0-.03-.02-.05-.04-.05s-.05.01-.09.03c-.04.02-.08.03-.13.04l-.08.01c-.18 0-.21-.14-.21-.84 0-.44.09-1.02.2-1.3l.22-.56c.03-.09.05-.18.05-.26 0-.77-1.04-2-2.13-2.53-.43-.21-.55-.42-.59-1 .18.09.26.12.37.15.31.08.37.13.42.27l.04.14c.02.06.06.09.27.2.08.04.14.09.17.13.05.09.1.13.12.13.03 0 .04-.02.04-.05l-.01-.02-.12-.3-.01-.08c0-.22.12-.41.35-.52.01.05.03.1.03.12.04.16.07.27.11.32l.2.29c.07.11.08.18.08.45l-.01.33v.09c0 .05.02.08.07.08.04 0 .07-.01.07-.03l.03-.2c0-.04.05-.07.1-.07.1 0 .23.13.37.37.05.09.07.16.07.25 0 .06-.01.21-.03.32l-.01.06c0 .05.03.09.08.09.03 0 .05-.01.05-.02l.08-.25c.02-.08.08-.14.13-.14.16 0 .33.33.35.68.01.22.04.3.11.3.03 0 .05-.01.05-.03l.04-.14c.02-.05.05-.08.08-.08s.08.05.15.13c.04.04.07.09.1.13.02.04.03.07.03.11 0 .05-.01.07-.09.13s-.12.13-.12.22c0 .16.06.32.25.64.17.3.19.33.24.33.04 0 .07-.04.07-.09 0-.03-.01-.06-.02-.09-.03-.06-.05-.1-.05-.12 0-.04.04-.08.08-.08.05 0 .12.02.19.06.05.02.14.06.29.11.2.07.32.11.36.12.07.02.14.03.22.03.06 0 .12-.01.18-.02.12-.03.2-.05.25-.05.09 0 .17.07.17.16 0 .04-.03.12-.07.18-.05.09-.08.14-.09.15-.05.05-.07.08-.07.09l.02.04c.01.02.03.04.06.04.08 0 .24-.17.39-.41.83-1.35 1.22-1.77 1.83-1.96.63-.19.78-.33.78-.7 0-.2-.11-.44-.33-.75-.42-.59-.57-.93-.57-1.31v-.09l.12.05c.09.04.14.07.17.07l.26.06c.08.02.15.12.15.22v.02l-.02.23v.04c0 .13.06.24.14.24.03 0 .06-.03.08-.06l.17-.36c.07-.15.15-.22.37-.32m-8.6 7.25l-.01-.17v-.1c0-.17.02-.24.09-.24.07 0 .18.13.23.27.03.09.05.21.05.29 0 .05-.02.09-.06.2-.05.11-.09.16-.15.16-.09 0-.13-.12-.15-.41"/>
      <path fill="#fddd04" d="M85.662 583.16v-.09c0-.096-.028-.274-.073-.445l-.07-.242c-.02-.06-.02-.125-.02-.19 0-.15.07-.287.18-.345l.11-.063.02-.148c-.01-.057 0-.135.03-.23.03-.106.04-.212.04-.317 0-.087-.01-.12-.03-.12-.04 0-.11.108-.18.268-.1.254-.19.348-.34.348-.12 0-.19-.02-.33-.085.11-.14.17-.26.3-.54.17-.37.23-.44.49-.58.05-.03.09-.06.09-.09 0-.05-.04-.08-.1-.08-.02 0-.09.01-.15.03l-.08.01c-.04 0-.06-.03-.06-.12 0-.27.24-.61.63-.89.05-.04.09-.08.09-.11 0-.01-.02-.03-.04-.05-.02-.01-.04-.02-.06-.02-.03 0-.07.02-.13.04-.03.02-.06.03-.08.03-.05 0-.08-.05-.08-.12 0-.09.07-.26.19-.46.11-.17.23-.3.34-.34l.47-.2c.02-.01.04-.03.04-.06s-.03-.07-.06-.07l-.09-.01-.1-.01-.13.01h-.02c-.07 0-.1-.02-.1-.05 0-.05.05-.16.16-.34.11-.21.19-.3.26-.3.02 0 .05.02.06.05l.12.24c.01.04.11.11.27.21.1.07.2.11.29.12.25.03.27.04.27.15 0 .04-.01.11-.03.21-.01.05-.02.13-.03.22l-.02.2-.02.23c0 .06-.02.09-.05.09-.02 0-.05-.03-.08-.07-.13-.2-.31-.34-.46-.34-.58 0-.98.94-.98 2.31l.01.41.03.5v.17c0 .43-.15.86-.36 1.08l-.15.15-.1.11m1.36-7.68c-.22.04-.26.05-.51.16-.17.08-.28.11-.39.11-.16 0-.29-.05-.44-.18l.09-.07.21-.15.2-.15c.05-.04.12-.06.18-.06.21 0 .38.09.66.35m4.05-1.91c.06.13.08.17.21.27.29.26.43.44.43.59v.23c0 .14.02.18.09.18.03 0 .06-.01.07-.03l.05-.12c.01-.03.05-.04.09-.04.07 0 .13.06.26.27.05.09.07.15.07.21 0 .04-.01.08-.03.12l-.07.17c-.03.05-.04.12-.04.16 0 .07.03.11.09.11.03 0 .06-.01.07-.03l.08-.1c.02-.02.03-.03.06-.03.04 0 .11.04.13.09l.08.17c.02.04.03.08.03.1 0 .04-.03.07-.08.09l-.15.07c-.17.07-.32.37-.32.65 0 .03.01.08.03.14l.06.18c.02.05.03.11.03.17 0 .1-.03.2-.11.32l-.13.22c-.06.15-.09.21-.15.21-.03 0-.07-.02-.13-.05l-.11-.07-.15-.17-.14-.07c-.09-.05-.17-.24-.17-.4 0-.22.05-.35.39-.96.15-.26.21-.45.21-.6 0-.43-.43-.78-1.15-.92-.85-.17-1.03-.32-1.13-.86.15.07.21.08.47.08h.18c.14 0 .16.01.25.13.11.15.21.23.35.3l.17.07.14.07.05.01c.04 0 .06-.02.06-.05 0-.03-.04-.09-.1-.17-.1-.12-.16-.25-.16-.34 0-.14.02-.21.1-.34"/>
      <path fill="#fddd04" d="M89.74 575.196c.12-.076.242-.186.314-.284.1-.137.115-.148.214-.148.042 0 .094.008.154.022l.095.02c.178.035.233.06.233.11 0 .027-.016.057-.044.08l-.126.105-.116.11c-.07.07-.218.12-.33.12-.132 0-.238-.03-.395-.12m3.4-.57l.06.01.1.01.08-.01h.05c.11 0 .16.02.21.05.06.05.13.13.2.24.02.05.04.09.04.12 0 .07-.07.11-.18.11-.29 0-.47-.16-.58-.52m-18.67-22.2l.06.13.15.15c.12.13.19.32.19.54 0 .11-.02.23-.06.34-.03.09-.05.16-.05.19 0 .07.05.13.1.13.02 0 .05-.02.08-.05l.16-.18c.1-.11.13-.13.25-.15l.01.15.01.18c0 .25-.09.53-.23.71-.09.1-.12.17-.12.21 0 .04.03.07.06.07.01 0 .02-.01.04-.02.1-.08.15-.11.18-.11.05 0 .09.12.09.26 0 .2-.08.43-.22.59-.07.08-.11.14-.13.16-.02.02-.03.04-.03.06 0 .05.04.08.09.08.04 0 .07-.01.13-.05.03-.02.06-.03.08-.03.08 0 .11.12.11.43v.13l-.01.19c-.01.22-.03.26-.13.26h-.08c-.52 0-.75.33-.89 1.2-.09.63-.33 1.08-.62 1.18-.17.06-.23.1-.23.14 0 .03.05.06.1.06.04 0 .13-.02.2-.05.42-.17.77-.25 1.08-.25.5 0 .9.37.9.84 0 .36-.17.73-.48 1.02-.08.09-.17.14-.26.16l-.05-.01.02-.15.04-.1.01-.05c0-.02-.03-.04-.05-.04-.04 0-.06.02-.08.04l-.19.29c-.15.23-.48.41-.72.41-.09 0-.14-.04-.14-.1 0-.03.02-.08.06-.12.05-.06.09-.13.09-.17l-.01-.04c-.01-.02-.03-.04-.05-.04h-.01c-.05 0-.07.02-.3.28-.19.21-.57.42-.78.42-.03 0-.06-.01-.08-.03-.01-.01-.02-.03-.02-.04 0-.03.03-.07.07-.12.07-.05.12-.13.12-.16 0-.02-.03-.04-.06-.04-.06 0-.19.09-.44.29-.39.31-.57.6-.57.94 0 .41.29.73.66.73.22 0 .5-.1.7-.25l.52-.39c.24-.18.53-.27.83-.27.07 0 .13.01.19.04.05.02.08.05.08.07 0 .01-.04.03-.09.05-.19.04-.34.11-.44.19l-.53.4c-.19.14-.33.24-.41.28-.28.14-.33.18-.33.21 0 .02.03.03.06.03s.06-.01.09-.02l.27-.12c.09-.04.24-.13.44-.26.56-.38.85-.5 1.18-.5.32 0 .55.22.55.53 0 .06-.02.13-.05.18l-.05.11c-.02.04-.06.07-.07.05l-.03-.04-.03-.22c0-.01-.01-.04-.03-.08-.02-.04-.05-.08-.08-.11-.06-.06-.11-.08-.19-.08-.17 0-.35.09-.84.4-.5.32-.95.48-1.3.48-.76 0-1.37-.61-1.37-1.36 0-1.05.64-1.52 2.66-1.96.76-.17 1.1-.39 1.1-.73 0-.31-.25-.51-.65-.51-.12 0-.22.01-.29.02-.07.02-.43.11-1.08.3-.45.12-.96.19-1.4.19-.79 0-1.33-.23-1.69-.74-.04-.06-.08-.1-.11-.1-.02 0-.05.01-.09.04l-.15.11c-.1.08-.26.14-.37.14-.08 0-.16-.03-.23-.09-.05-.05-.09-.07-.1-.07-.06 0-.17.13-.25.31-.12.25-.18.49-.18.72 0 .11.04.18.08.18s.07-.03.08-.09l.08-.3c.04-.17.14-.31.21-.31.03 0 .09.05.15.13.04.05.07.1.08.15.06.19.08.22.13.22.06 0 .09-.04.14-.23.01-.04.02-.09.07-.18.05-.08.09-.14.13-.19.03-.03.07-.05.11-.05.09 0 .18.15.18.32v.05l-.01.19c0 .08.01.1.06.1.02 0 .04-.01.07-.05.04-.05.11-.1.18-.14.06-.04.11-.05.15-.05.03 0 .06.02.1.05.03.03.04.06.04.08 0 .03-.04.08-.15.19-.06.06-.13.21-.21.42-.03.08-.07.14-.1.14-.01 0-.03-.01-.07-.03l-.14-.05-.09-.04-.04-.01c-.05 0-.08.04-.08.08s.09.16.21.25c.08.07.13.18.14.29 0 .18.04.32.07.32l.03.36c.02.19.1.54.16.73.02.04.03.07.04.07.03 0 .06-.08.06-.17v-.16c0-.14.02-.2.06-.2.04 0 .1.06.14.18l.1.24c.02.07.04.14.04.19 0 .2-.13.35-.3.35l-.07-.02c-.04-.01-.07-.02-.08-.02-.05 0-.1.06-.1.13l.01.15-.01.21-.04.22-.01.11-.09-.05-.12-.1-.17-.14-.13-.11c-.03-.02-.05-.03-.08-.03-.08 0-.09.02-.09.19v.04c0 .13-.06.23-.28.49-.01.01-.03.03-.05.06l-.04-.07-.12-.19-.11-.29-.02-.19c-.01-.05-.03-.09-.05-.09-.02 0-.06.03-.1.07-.16.18-.21.22-.45.3l-.02-.07c-.04-.12-.06-.2-.06-.22l-.01-.2-.01-.08v-.07c0-.05-.02-.09-.06-.09l-.06.06c-.02.02-.07.03-.13.03-.19 0-.32-.1-.32-.27 0-.12.05-.22.24-.51.09-.13.18-.23.22-.23.02 0 .05.07.05.15l-.02.13c-.02.06-.03.12-.03.16 0 .06.01.1.05.1.09 0 .19-.27.23-.65l.04-.39c.01-.14.06-.28.12-.42.1-.2.19-.33.28-.39.1-.07.16-.14.16-.18 0-.03-.02-.06-.05-.06l-.21.07-.09.01c-.21 0-.28-.12-.28-.48 0-.44.29-1.07.62-1.33l.48-.39c.25-.2.43-.52.43-.76 0-.3-.33-.61-.91-.82l-.35-.12c-.27-.1-.37-.27-.48-.78.14.05.2.06.29.06h.05l.15-.01c.14 0 .25.09.25.2v.1c0 .03.04.07.1.1.1.05.15.07.15.07l.12.09c.02.01.04.02.06.02.03 0 .06-.03.06-.06s-.01-.06-.02-.1c-.04-.09-.06-.22-.06-.36 0-.25.04-.39.17-.58.01.07.02.12.03.14.02.05.08.15.18.28.16.22.27.49.27.64v.04l-.03.24c0 .04.02.08.05.11.02.02.04.03.07.03.04 0 .07-.02.1-.1.03-.06.06-.1.08-.1.04 0 .11.1.15.21.03.09.05.16.05.23 0 .04-.01.08-.03.13-.02.06-.03.1-.03.12 0 .03.01.04.05.07.02.02.04.02.06.02.02 0 .04 0 .06-.02l.1-.06c.03-.02.06-.03.08-.03.04 0 .1.04.15.11.09.14.15.26.15.3 0 .03-.02.05-.08.09-.21.15-.35.37-.35.56 0 .04.01.1.03.15l.1.28c.05.15.08.22.09.22l.03.02c.03 0 .06-.03.06-.08 0-.03 0-.07-.02-.12-.02-.07-.04-.15-.04-.2 0-.07.04-.11.11-.11.05 0 .11.02.17.04.32.14.57.22.72.22.15 0 .23-.03.38-.14.04-.03.08-.04.1-.04.02 0 .04.02.06.04.02.02.02.04.02.05 0 .04-.02.09-.06.14-.05.06-.07.11-.07.15 0 .03.02.05.06.05.16 0 .42-.52.67-1.35.19-.65.25-.72.87-1.07.53-.3.73-.59.73-1.07 0-.47-.13-1.07-.41-1.87-.09-.25-.12-.42-.12-.56 0-.11.02-.21.11-.5.03-.13.06-.21.07-.24.01-.03.04-.08.08-.15"/>
      <path fill="#fddd04" d="M72.032 553.894c.063.145.082.18.2.357.17.26.23.4.23.52v.17c0 .16.03.23.092.23.023 0 .044-.01.056-.03l.053-.08c.016-.02.044-.04.074-.04s.088.05.118.09c.076.12.123.27.123.38l-.01.12-.01.12c0 .07.025.09.085.09.04 0 .058-.01.093-.09.023-.05.053-.08.08-.08.028 0 .06.03.087.07l.085.13.063.1.02.05c0 .03-.02.06-.08.1-.19.14-.28.36-.29.75-.01.3-.03.49-.05.58 0 .02-.07.17-.19.46-.04.11-.09.23-.12.38-.02.09-.05.12-.13.12-.28 0-.5-.25-.5-.57 0-.19.08-.49.23-.85.2-.51.26-.69.26-.87 0-.38-.15-.55-.68-.74-.6-.21-.88-.52-.99-1.08l.1.04c.07.03.12.05.15.06l.17.05c.14.04.26.12.28.2l.05.15c.01.04.03.06.07.08l.09.05.1.04.02-.04-.04-.14c-.01-.05-.02-.13-.02-.25 0-.23.05-.37.18-.53m-5.64 9.72c.01-.06.02-.1.02-.12 0-.04-.01-.13-.04-.27l-.02-.22c0-.19.03-.39.09-.56.06-.15.07-.2.07-.24v-.04c-.01-.04-.03-.07-.04-.07-.02 0-.06.02-.11.06-.12.11-.25.16-.39.16-.04 0-.1-.01-.18-.02l.06-.12.16-.39.22-.33.23-.15c.03-.01.05-.03.07-.06.02-.03.03-.05.03-.07 0-.02-.02-.03-.04-.03l-.21-.01c-.03 0-.06-.02-.06-.05 0-.03.03-.14.09-.31l.1-.3.18-.17.19-.14c.06-.04.09-.08.09-.12 0-.03-.02-.06-.04-.06l-.11-.01c-.03 0-.05-.03-.05-.08 0-.08.07-.22.21-.41.16-.22.28-.29.46-.29h.16c.08 0 .12-.03.12-.09 0-.05-.03-.08-.1-.09-.14-.03-.19-.06-.19-.12 0-.03.02-.07.06-.11l.08-.11c.07-.09.15-.16.2-.16.03 0 .1.03.15.1.09.11.2.2.34.23.37.1.44.13.44.22 0 .03-.01.07-.04.12-.12.21-.16.34-.16.52 0 .13-.03.22-.08.22-.02 0-.05-.03-.09-.08-.08-.13-.23-.22-.37-.22-.36 0-.8.57-1.01 1.33-.05.18-.08.38-.08.57 0 .2.03.42.08.64l.12.52.01.14c0 .26-.24.59-.61.85"/>
      <path fill="#fddd04" d="M67.145 562.155c-.078-.147-.15-.476-.15-.684 0-.12.042-.22.093-.22.017 0 .04.02.057.06l.115.21.076.13c.04.07.073.13.073.16 0 .13-.12.28-.27.36m1.15-4.74l.05-.05.08-.08c.2-.21.23-.23.33-.23.09 0 .28.05.39.11.04.03.07.05.07.08 0 .02-.04.06-.11.12l-.12.11c-.09.08-.22.16-.28.16-.12 0-.24-.05-.43-.18m2.44-1.9c.11-.05.15-.07.21-.1.09-.06.15-.1.17-.1.03-.01.09-.02.16-.02.05 0 .09.01.13.02l.22.09.21.07c.06.02.09.05.09.08 0 .02-.05.04-.12.06-.05.01-.1.03-.16.06-.26.1-.3.12-.39.12-.21 0-.41-.1-.54-.26m2.66-2.11c.07.17.12.2.35.21.27.02.52.5.52.83 0 .03-.01.06-.03.06s-.04-.01-.07-.03c-.08-.05-.13-.08-.16-.09l-.31-.13c-.21-.09-.38-.36-.38-.58 0-.07.01-.13.06-.25m19.15 2.5l.04.11.04.15c.01.03.05.09.12.18.11.14.16.32.16.53 0 .07-.02.13-.06.2-.02.04-.03.07-.03.1 0 .02.01.03.02.05.02.02.03.03.05.03v.01c.03 0 .07-.03.11-.07.04-.05.08-.08.1-.08.05 0 .1.08.13.2.01.07.02.1.02.11 0 .05-.04.18-.09.3-.02.04-.03.08-.03.11 0 .04.02.07.06.07.03 0 .08-.03.14-.09.03-.03.05-.04.08-.04.06 0 .11.07.16.23.03.1.04.15.04.16 0 .03-.02.05-.04.05h-.04l-.12-.01c-.19 0-.47.13-.59.29l-.3.36c-.11.14-.27.34-.26.34l-.24.15c-.04.03-.07.06-.07.09 0 .04.04.07.1.07.05 0 .22-.06.54-.19.3-.13.78-.23 1.06-.23.5 0 .92.41.92.9 0 .27-.12.52-.42.87-.06.07-.15.13-.19.13-.04 0-.06-.03-.06-.06s.01-.07.03-.12c.01-.03.02-.07.02-.1 0-.05-.02-.08-.05-.08-.07 0-.13.11-.19.3-.07.24-.21.38-.53.54-.12.06-.28.12-.33.12-.02 0-.03-.02-.03-.04 0-.04.01-.08.04-.12.04-.07.07-.14.08-.2v-.01c0-.04-.02-.06-.06-.06-.07 0-.08.02-.24.26-.08.12-.29.28-.47.36-.06.03-.12.04-.18.05-.04 0-.07-.02-.07-.04 0-.01.01-.05.04-.1l.02-.06c0-.04-.02-.06-.05-.06-.07 0-.26.16-.42.33-.17.19-.28.43-.28.63 0 .4.38.76.81.76.11 0 .2-.02.27-.06l.37-.19.43-.28c.25-.16.59-.29.8-.29.07 0 .13.01.33.07.1.03.17.07.17.11v.01l-.04.02-.23.02c-.13.01-.42.14-.65.3l-.48.32-.43.18c-.04.01-.06.03-.06.05 0 .02.02.04.05.04l.12-.02.4-.12c.1-.03.26-.1.49-.22.44-.23.72-.34.93-.34.24 0 .42.17.42.39 0 .08-.02.2-.04.3-.02.05-.04.1-.07.14-.02.03-.04.05-.05.05-.03 0-.05-.04-.05-.09v-.07l.01-.06c0-.2-.08-.26-.29-.26-.18 0-.41.07-.95.28-.5.2-.81.27-1.12.27-.79 0-1.49-.64-1.49-1.38 0-.63.42-1.12 1.29-1.47l.89-.37c.74-.3 1.01-.52 1.01-.8 0-.24-.22-.4-.57-.4-.15 0-.34.04-.68.15-.84.27-1.38.38-1.86.38-.78 0-1.33-.21-1.78-.68-.06-.06-.09-.08-.15-.08-.04 0-.07.01-.15.06-.08.05-.17.08-.23.08-.08 0-.2-.07-.26-.14l-.11-.14c-.03-.04-.06-.07-.09-.07-.07 0-.21.13-.29.29-.05.1-.09.19-.11.27-.02.07-.02.18-.02.29l.01.19.03.21.03.18c.01.02.03.04.05.04.06 0 .08-.05.08-.16v-.06l-.01-.05c0-.3.12-.58.25-.58.1 0 .19.18.27.54.01.07.04.12.08.12s.06-.06.09-.21c.02-.11.08-.25.15-.34.04-.06.08-.09.12-.09.08 0 .14.13.18.43.02.12.05.19.09.19.02 0 .03-.01.04-.02l.08-.11c.03-.05.07-.08.12-.11.05-.03.09-.04.12-.04s.07.02.1.04c.04.04.07.08.07.09 0 .02-.02.05-.06.09-.07.07-.13.17-.19.35l-.1.24c-.01.04-.03.07-.05.08l-.03.01-.06-.01-.22-.06-.07-.01c-.03 0-.05.02-.05.05 0 .03.04.08.08.12.27.21.43.56.49 1.08.03.31.07.43.21.62.02.04.05.06.06.06.04 0 .06-.04.06-.1 0-.04-.01-.09-.03-.15-.02-.04-.03-.08-.03-.12v-.04l.02-.07.12.05.13.14c.08.09.14.29.14.43 0 .1-.02.17-.08.24-.06.08-.11.11-.16.11h-.14c-.07 0-.11.02-.11.06l.02.09.01.12-.06.26-.05.13-.03.11-.08-.05-.16-.1c-.04-.03-.08-.06-.12-.12-.15-.18-.16-.19-.22-.19-.04 0-.06.02-.06.04v.05c.02.1.03.17.03.22 0 .18-.13.46-.29.61-.22-.21-.34-.44-.34-.66v-.13c0-.05-.01-.07-.05-.07h-.01c-.02.01-.05.03-.07.06l-.12.17c-.01.01-.07.05-.17.13-.02.02-.05.04-.09.08l-.04-.09c-.11-.21-.14-.33-.15-.5-.01-.14-.02-.18-.05-.18-.02 0-.04.01-.07.02-.16.09-.17.1-.24.1-.19 0-.32-.14-.32-.34 0-.07.04-.19.13-.35.1-.17.24-.33.3-.33.02 0 .02.01.02.07v.02l-.01.18-.02.13v.02c0 .04.02.06.05.06.1 0 .18-.28.25-.83.06-.49.2-.83.41-1.02.06-.05.09-.09.09-.11 0-.02-.02-.03-.04-.03-.03 0-.08.02-.14.05-.04.02-.08.03-.12.03-.1 0-.22-.12-.24-.25l-.1-.6-.07-.84c-.01-.16.01-.37.06-.63.05-.23.08-.39.08-.5 0-.63-.4-1.13-1.04-1.32l-.68-.2c-.42-.12-.63-.4-.69-.91.1.09.14.1.3.13l.2.03c.08.01.14.03.18.05.02.01.06.05.11.11l.18.2c.07.08.13.12.16.12.02 0 .04-.03.04-.06 0-.04-.03-.1-.08-.17-.05-.08-.07-.17-.07-.27 0-.13.03-.22.17-.41.01.06.03.11.04.13.01.03.07.11.15.22.14.19.25.39.25.47 0 .17.02.22.06.22.03 0 .04-.01.06-.1 0-.02.01-.04.03-.06.02-.03.05-.04.06-.04s.04.02.08.04c.07.05.13.1.17.15.04.06.07.12.1.19.03.1.05.16.05.2v.14c0 .04.01.07.03.07.03 0 .08-.05.11-.11.02-.04.04-.06.06-.06h.01c.04.01.07.02.1.04.13.13.21.28.21.39l-.01.2-.05.16v.02c0 .03.03.06.05.06.05 0 .1-.07.18-.22.03-.08.06-.11.09-.11.05 0 .09.04.19.18l.09.14c.02.03.03.07.03.11 0 .03-.01.07-.04.1l-.07.13c-.02.02-.02.06-.02.1 0 .14.05.3.15.49.08.14.12.23.14.27.01.05.03.07.06.07.02 0 .03-.03.03-.06l-.01-.12v-.17c.01-.03.04-.05.09-.05.03 0 .07.01.11.02l.26.1c.06.02.14.06.24.11.41.22.54.27.74.27.12 0 .28-.05.5-.15.04-.02.08-.03.11-.03s.06.02.09.05c.02.02.03.05.03.08 0 .04-.02.08-.04.13-.04.06-.07.13-.07.16s.02.04.05.04c.02 0 .06-.03.08-.06.03-.05.11-.19.24-.42.2-.35.45-.59.67-.64l.47-.11c.14-.03.18-.09.18-.27 0-.32-.15-.61-.42-.78l-.38-.24c-.14-.09-.25-.33-.25-.53 0-.13.03-.36.07-.54l.07.07.18.1.15.16.08.23.08.21c.04.11.08.17.12.17.03 0 .06-.06.06-.16v-.07c0-.15.02-.21.13-.44"/>
      <path fill="#fddd04" d="M86.345 552.728c.127.118.15.127.505.2.287.058.42.19.483.472.045.21.074.248.262.358.06.035.107.07.137.105.023.026.042.042.052.042.02 0 .037-.02.037-.047 0-.036-.02-.096-.06-.174-.03-.05-.04-.113-.04-.2 0-.17.04-.284.13-.42.07.14.1.18.27.295.21.14.29.31.33.69.02.16.05.24.09.24.02 0 .04-.02.05-.03l.08-.16c.01-.02.04-.04.07-.04s.09.03.13.07l.15.13c.06.05.11.2.13.44.01.09.04.14.08.14.02 0 .04-.02.05-.05l.06-.21c.02-.05.05-.09.08-.09.02 0 .05.01.09.05.06.05.11.1.15.15.05.06.08.14.08.21v.18c0 .04.01.08.04.11.02.02.03.04.04.04.02 0 .05-.02.06-.05l.05-.12c.02-.05.06-.09.1-.09.06 0 .11.05.2.17l.07.08c.05.06.08.11.08.14 0 .01-.01.04-.04.08-.15.2-.23.44-.23.71 0 .35.13.64.54 1.19.24.33.38.63.38.84 0 .06-.03.09-.09.09-.03 0-.07-.01-.12-.04-.04-.02-.07-.03-.08-.03-.02 0-.04.01-.07.04l-.07.08-.05.08c-.02.03-.05.05-.09.05-.01 0-.03-.01-.08-.03l-.1-.01c-.1 0-.15-.04-.15-.15l.01-.07v-.05c0-.09-.08-.24-.19-.33l-.2-.18c-.24-.21-.43-.57-.43-.8 0-.1.03-.26.09-.45.09-.32.13-.47.13-.57 0-.5-.77-1.17-2.2-1.89-.73-.37-.91-.59-.91-1.09l.01-.19m-.69 11.03v-.27c0-.05 0-.09-.02-.17-.03-.14-.04-.19-.04-.23 0-.2.03-.3.15-.51.06-.12.11-.26.11-.36 0-.04-.02-.07-.05-.07-.02 0-.04.01-.05.03l-.08.11c-.06.09-.13.11-.3.11l-.18-.01c.07-.18.1-.25.13-.37.08-.35.09-.37.28-.54.19-.17.21-.2.21-.26 0-.05-.03-.09-.07-.09l-.07.01h-.04c-.06 0-.11-.11-.11-.23 0-.07.02-.18.06-.27.03-.06.05-.1.08-.12l.1-.1c.03-.03.05-.07.05-.11 0-.05-.03-.09-.06-.09-.02 0-.05.01-.09.03-.02.01-.05.02-.07.02-.05 0-.07-.03-.07-.08l.02-.16.06-.27c.01-.06.05-.13.11-.2.06-.06.11-.11.16-.13.14-.06.21-.09.21-.1.02-.02.03-.05.03-.09 0-.04-.03-.07-.07-.07-.01 0-.04.01-.11.02l-.1.01c-.1 0-.11 0-.11-.09 0-.05.01-.11.02-.16l.04-.17c.05-.18.11-.27.17-.27.01 0 .04.01.08.04.15.12.45.22.65.22.19 0 .42-.02.5-.05.05-.02.08-.03.1-.03.03 0 .03.03.04.12l.02.19.05.32.03.24v.14l-.08-.08c-.18-.17-.29-.22-.48-.22-.48 0-.76.54-.76 1.49 0 .39.06.94.16 1.58.02.13.03.22.03.29 0 .34-.22.68-.6.93"/>
      <path fill="#fddd04" d="M86.366 561.398l.095.094.1.084c.08.07.14.215.14.323 0 .04-.01.09-.03.15-.03.07-.1.14-.15.14-.03 0-.06-.09-.08-.22l-.02-.16-.03-.16-.01-.16v-.11m-.92-4.3c.11-.04.13-.06.25-.19.15-.17.23-.21.42-.21.05 0 .1 0 .15.02l.14.04.11.03c.05.01.09.03.09.05 0 .02-.08.09-.21.18-.09.06-.17.1-.25.15-.09.04-.17.06-.24.06-.15 0-.29-.05-.43-.14m1.43-3.08c.19.08.25.11.46.23l.31.16c.2.1.29.17.29.23 0 .07-.11.11-.32.11-.4 0-.74-.28-.74-.62l.01-.12m4.27 2.67c.15.03.2.07.28.07l.19-.01c.02.01.06.03.12.08l.15.1c.21.14.22.15.22.19 0 .06-.08.08-.26.08-.33 0-.53-.16-.69-.54"/>
      <path fill="#231f20" d="M69.594 582.016l-.052.147-.015.085c0 .086.043.133.162.178.2.078.27.113.35.19l.11.104.01.004c.03 0 .05-.034.05-.08 0-.133-.15-.38-.29-.63-.11-.186-.16-.303-.21-.303-.05 0-.11.09-.12.18l-.02.13m-.62.42l.18-.09c.05-.02.07-.06.07-.1l-.01-.06c-.03-.09-.01-.19-.01-.22-.01-.19-.15-.18-.21-.18-.03 0-.02.02-.1.12l-.23.26c-.08.08-.14.27-.16.47v.03c0 .06.01.08.06.08.03 0 .08-.02.12-.05l.28-.23m.63-1.09l.17.11.1-.02c.11 0 .14-.03.14-.16 0-.18-.12-.26-.33-.79-.1-.23-.11-.36-.25-.36-.16 0-.27.13-.39.42l-.14.34c-.1.24-.14.38-.14.47 0 .08.06.14.15.14.05 0 .1-.01.15-.04l.13-.07.12-.01h.06l.22.01m19.63.64l-.09.18-.02.09c0 .09.04.13.17.18.13.05.28.13.34.19l.11.11h.01c.03 0 .05-.03.05-.08 0-.13-.12-.34-.27-.59-.11-.18-.18-.33-.22-.33-.06 0-.11.08-.12.18l.01.09m-.66.46l.18-.1c.05-.03.08-.07.08-.12l-.01-.04-.05-.19-.03-.21c0-.02-.03-.04-.06-.04h-.01c-.05.01-.16.06-.23.15l-.16.27c-.02.02-.08.12-.14.29-.02.06-.03.12-.04.18v.03c0 .06.02.08.07.08.02 0 .08-.02.11-.05l.29-.23m.64-1.1l.16.1.06.01c.11 0 .25-.12.25-.24 0-.1-.14-.16-.2-.31l-.11-.47c-.08-.22-.19-.34-.33-.34-.16 0-.28.13-.39.42-.06.14-.1.25-.14.34-.09.2-.14.36-.14.44 0 .1.06.16.15.16.05 0 .1-.02.15-.04l.12-.08.12-.01h.06l.23.01m-20.46-18.6l-.05.16-.01.05c0 .02.02.03.04.03s.08-.03.12-.06.07-.03.14-.05c.28-.07.34-.12.34-.26l-.01-.17-.04-.16c-.02-.07-.04-.09-.07-.09-.02 0-.2.13-.23.17l-.11.15-.14.26m1.28-.26l-.13-.24-.05-.06h-.01c-.05 0-.11.13-.11.26l-.02.21c.02.09.07.13.2.15.11.02.18.04.21.06l.17.12.02.01c.03 0 .05-.02.05-.05V563l-.07-.18-.23-.25m-.27-.71l.17.09c.03.02.06.03.08.03.09 0 .15-.06.15-.17 0-.12-.09-.28-.22-.51-.14-.25-.24-.42-.35-.42-.15 0-.37.24-.58.64-.04.1-.08.21-.08.29 0 .14.06.21.17.21.05 0 .09-.01.12-.03l.1-.06c.08-.05.18-.08.27-.08.07 0 .13.016.18.04m18.3 1.26l.14-.09c.08-.055.15-.093.21-.12.16-.06.22-.09.22-.15 0-.02-.01-.08-.02-.12-.02-.05-.03-.1-.03-.15-.02-.14-.1-.18-.16-.18-.07 0-.15.11-.26.32-.05.09-.13.28-.17.42v.04c0 .025.01.04.04.04l.02-.01m1.41-.37l-.24-.24c-.08-.114-.08-.213-.1-.23-.02-.02-.04-.03-.07-.033-.06 0-.1.05-.11.11l-.01.18-.01.18v.01c0 .07.04.11.09.12l.23.06.23.12c.07.03.09.04.1.04.03 0 .05-.03.05-.06 0-.017-.01-.04-.02-.07l-.11-.18m-1.06-.72l.15-.12c.04-.02.09-.034.14-.034.07 0 .16.025.25.067l.14.067c.03.015.06.023.08.023.08 0 .15-.09.15-.2 0-.158-.11-.32-.27-.55l-.12-.24c-.09-.13-.16-.18-.23-.18-.13 0-.19.07-.38.442-.14.26-.19.43-.19.56 0 .11.06.19.14.19.03 0 .08 0 .12-.02"/>
      <path fill="#fddd04" d="M69.373 581.04h-.137c-.02 0-.04-.013-.052-.033l-.02-.053.05-.252.043-.22c.023-.12.068-.17.158-.17.104 0 .166.072.178.202l.022.23.02.24c0 .023-.01.047-.03.065-.016.01-.035.02-.054.02h-.01l-.16-.03m19.61 0h-.12c-.02 0-.04-.02-.05-.04-.02-.03-.03-.05-.03-.06l.05-.25.05-.22c.02-.12.04-.17.13-.17.11 0 .19.07.21.2l.02.23.02.24c0 .02-.01.05-.03.06-.01.01-.03.02-.05.02l-.01-.01-.17-.03m-19.53-19.46l-.11.02h-.02c-.06 0-.1-.04-.1-.12 0-.11.09-.31.19-.46.02-.03.05-.05.08-.05.07 0 .12.12.15.33l.04.16v.03c0 .06-.02.09-.07.09h-.03l-.12-.02m18.99-.14l.01-.2c.01-.09.08-.18.16-.18.1 0 .17.14.21.37.02.1.03.11.03.14 0 .08-.02.1-.12.1h-.17c-.06 0-.09-.05-.09-.19v-.05"/>
      <path fill="#231f20" d="M76.624 571.612h1.113c.125.265.297.38.562.38.26 0 .43-.11.58-.38h.91c.11.243.33.382.6.382.24 0 .48-.16.57-.382h.84c.13.247.32.382.55.382.23 0 .42-.107.56-.318l.04-.064h1.17v-5.447H83.1v-2.088h-1.2v2.088h-3.05v-2.088h-1.2v2.11h-1.028v5.425"/>
      <path fill="#ef2f51" d="M77.063 566.585h6.683v4.58h-6.683v-4.58z"/>
      <path fill="#fddd04" d="M77.758 570.118c-.175 0-.318-.143-.318-.318 0-.175.143-.318.318-.318.176 0 .318.143.318.318 0 .175-.142.318-.318.318"/>
      <path fill="none" stroke="#231f20" stroke-width=".086" d="M77.758 570.118c-.175 0-.318-.143-.318-.318 0-.175.143-.318.318-.318.176 0 .318.143.318.318 0 .175-.142.318-.318.318z"/>
      <path fill="#fddd04" d="M83.004 570.118c-.176 0-.318-.143-.318-.318 0-.175.142-.318.318-.318.175 0 .318.143.318.318 0 .175-.143.318-.318.318"/>
      <path fill="none" stroke="#231f20" stroke-width=".086" d="M83.004 570.118c-.176 0-.318-.143-.318-.318 0-.175.142-.318.318-.318.175 0 .318.143.318.318 0 .175-.143.318-.318.318z"/>
      <path fill="#fddd04" d="M77.758 567.628c-.175 0-.318-.143-.318-.318 0-.176.147-.318.33-.318.17 0 .306.142.306.318 0 .175-.142.318-.318.318"/>
      <path fill="none" stroke="#231f20" stroke-width=".086" d="M77.758 567.628c-.175 0-.318-.143-.318-.318 0-.176.147-.318.33-.318.17 0 .306.142.306.318 0 .175-.142.318-.318.318z"/>
      <path fill="#fddd04" d="M83.004 567.628c-.176 0-.318-.143-.318-.318 0-.176.142-.318.318-.318.175 0 .318.142.318.318 0 .175-.143.318-.318.318"/>
      <path fill="none" stroke="#231f20" stroke-width=".086" d="M83.004 567.628c-.176 0-.318-.143-.318-.318 0-.176.142-.318.318-.318.175 0 .318.142.318.318 0 .175-.143.318-.318.318z"/>
      <path fill="#fddd04" d="M78.754 568.592c.43-.54.975-.805 1.646-.805.623 0 1.05.222 1.554.805-.502.516-.97.73-1.584.73-.646 0-1.23-.263-1.616-.73"/>
      <path fill="#231f20" d="M79.072 568.592c.444.345.82.488 1.282.488.468 0 .817-.137 1.272-.498-.396-.393-.745-.54-1.28-.54-.474 0-.906.186-1.274.55"/>
      <path fill="#fddd04" d="M79.613 568.698c.266-.166.476-.233.724-.233.292 0 .535.073.77.233-.248.12-.506.18-.76.18-.263 0-.512-.06-.734-.18"/>
      <path fill="#231f20" d="M76.97 570.698h6.87v.234h-6.87v-.234z"/>
      <path fill="none" stroke="#231f20" stroke-width=".029" d="M76.97 570.698h6.87v.234h-6.87v-.234z"/>
      <path fill="#fddd04" d="M78.023 571.23v-.656c0-.156.123-.275.283-.275.185 0 .29.09.29.27v.64c0 .25-.102.4-.265.4-.03 0-.08-.02-.12-.04-.03-.02-.06-.03-.07-.04-.02-.02-.04-.05-.06-.09-.02-.06-.04-.1-.04-.12v-.12m2.07-.54v-.12c0-.16.12-.28.28-.28.19 0 .29.1.29.27v.65c0 .24-.1.4-.26.4-.19 0-.31-.16-.31-.4v-.54m2.01.54v-.66c0-.16.13-.28.29-.28.19 0 .29.1.29.27v.65c0 .25-.1.4-.26.4-.03 0-.08-.02-.12-.04-.03-.02-.06-.03-.07-.04-.03-.02-.05-.05-.06-.09-.03-.06-.04-.1-.04-.12v-.12m-4.21-6.35h.63v.8h-.63v-.81zm0-.44h.63v.25h-.63v-.25zm4.26.43h.63v.81h-.63v-.81zm0-.43h.63v.25h-.63v-.25z"/>
      <path fill="#231f20" d="M116.468 585.227v-.48h-.315c-.47 0-1.253 0-1.253-1.463v-6.006c0-3.673-1.6-5.458-4.89-5.458-3.712 0-5.442 1.48-5.442 4.66v6.804c0 1.463-.793 1.463-1.493 1.463h-.148v.48h5.554v-.48h-.14c-.69 0-1.55 0-1.55-1.463v-6.5c0-2.8 1.17-4.163 3.58-4.163 2.34 0 3.58 1.47 3.58 4.24v6.43c0 1.47-.81 1.47-1.4 1.47h-.29v.48h4.23m6-12.64v-.48h-4.69v.48h.19c1.54 0 1.74 1.17 1.74 2.49v7.89c0 1.26-.73 1.79-1.75 1.79h-.16v.48h3.68l7.97-9.77v7.44c0 1.68-1.17 1.87-1.67 1.87h-.33v.48h4.74v-.48h-.2c-.83 0-1.71-.19-1.71-2.49v-10.22h-.7l-9.04 10.95.01-7.9c0-1.31.19-2.49 1.78-2.49h.18m25.14 2.3l2.89 8.07c.52 1.37.18 1.79-1.01 1.79h-.24v.48h3.7v-.48h-.08c-.4 0-.88-.12-1.24-1.02l-4.37-11.67h-.83l-4.74 11.56c-.37.96-.82 1.13-1.61 1.13H140v.48h5.42v-.48h-.35c-.93 0-1.11-.58-.848-1.29l3.4-8.57m21.894 9.73v-5.81h1.12c2.045 0 2.946.91 2.946 3.04 0 1.74-1.115 2.85-2.796 2.85-.395 0-.93-.03-1.27-.08zm2.018.62c2.906 0 4.348-1.07 4.348-3.27 0-1.87-1.454-2.81-2.602-3.28l-.08-.03 3.215-4.9c.516-.79.936-1.1 1.824-1.15v-.49h-3.36l-3.9 6.16h-1.45v-4.09c0-1.48.66-1.59 1.58-1.59h.26v-.48h-5.7v.48h.26c.64 0 1.38.29 1.38 1.11v9.54c0 1.52-.9 1.52-1.38 1.52h-.26v.48h5.87m13.63-10.63c0 1.6-1.38 2.23-2.65 2.9-1.5.78-3.23 1.58-3.23 4.01 0 2.34 1.79 3.86 4.34 3.86 1.04 0 2.22-.21 2.74-.32l.18-2.55-.49-.07c-.23 1.35-.93 2.38-2.44 2.38-1.42 0-2.47-.87-2.47-2.44 0-1.48 1.36-2.09 2.63-2.73 1.56-.78 3.35-1.59 3.35-4.04 0-2.7-2.41-3.92-4.64-3.92-.89 0-2.12.18-3.11.74l-.31 2.84.47.09c.37-1.88 1.56-2.98 3.14-2.98 1.51 0 2.47.93 2.47 2.25m9.36 10.63v-.48h-.19c-.75 0-1.44-.14-1.44-1.16v-9.85c0-1.02.69-1.16 1.44-1.16h.18v-.48h-5.48v.48h.19c.74 0 1.43.14 1.43 1.16v9.85c0 1.02-.7 1.16-1.44 1.16h-.19v.48h5.48m-55.3 0v-.48H139c-.75 0-1.44-.14-1.44-1.16v-9.84c0-1.02.69-1.16 1.44-1.16h.18v-.48h-5.48v.48h.19c.748 0 1.44.14 1.44 1.16v9.85c0 1.02-.69 1.16-1.437 1.16h-.19v.48h5.48m109.22-18.95l.04-3.48-.556-.14c-.12 1.52-.47 2.77-2.9 2.77h-3.274V559h2.81c1.38 0 1.76.77 1.91 2.1h.56v-5.38l-.56-.01c-.08 1.286-.38 2.286-1.89 2.286h-2.82v-5.655c0-1.64 1.42-1.64 2.918-1.64 2.69 0 3.94.17 4.69 2.89l.55-.12-.75-3.63H236.9v.6h.23c.94 0 1.8.18 1.8 1.46v12.35c0 1.28-.86 1.46-1.8 1.46h-.23v.6h11.51m-69.106-.77v-7.28h1.41c2.56 0 3.69 1.15 3.69 3.82 0 2.17-1.4 3.58-3.51 3.58-.5 0-1.13-.03-1.59-.11zm2.53.78c3.647 0 5.455-1.34 5.455-4.1 0-2.34-1.83-3.53-3.27-4.11l-.11-.04 4.04-6.14c.65-1 1.18-1.38 2.29-1.44v-.61h-4.21l-4.9 7.73h-1.82v-5.12c0-1.86.83-2 1.99-2h.33v-.6h-7.15v.6h.33c.8 0 1.73.37 1.73 1.39v11.97c0 1.91-1.13 1.91-1.74 1.91h-.33v.61h7.37m16.28.01v-.6h-.23c-.93 0-1.8-.18-1.8-1.45v-12.4c0-1.27.87-1.45 1.81-1.45h.23v-.6h-6.88v.6h.23c.94 0 1.8.17 1.8 1.45v12.35c0 1.28-.87 1.45-1.81 1.45h-.23v.6h6.88m-.77 18.94h8.68c.43 0 1 .11 1.08.68h.42l-.33-3.43h-.47c-.03.79-.15 1.94-1.41 1.94h-2.65V574.3c0-1.58.76-1.71 1.6-1.71h.28v-.483h-5.98v.48h.28c1 0 1.6.082 1.6 1.673v10.167h-2.68c-1.36 0-1.49-.598-1.76-1.924h-.47l.3 3.38h.38c.18-.55.65-.657 1.11-.656m23.61 0v-.49c-.75-.04-1.21-.552-1.55-1.04l-3.33-5.13v-4.195c0-1.666.6-1.786 1.6-1.786h.28v-.48h-6v.48h.27c1.04 0 1.61.26 1.61 1.63v4.033l-3.62 5.17c-.55.79-.97 1.32-1.84 1.32h-.11v.48h5.42v-.48h-.17c-1.04 0-1.12-.56-.67-1.19l2.8-4.34 2.48 3.92c.57.86.73 1.6-.67 1.6h-.22v.48h3.69m6.41-5.99c0-3.24 1.43-6.73 4.57-6.73 2.87 0 4.28 2 4.28 6.1 0 3.02-1.61 6.22-4.6 6.22-3.96 0-4.26-4.28-4.26-5.59zm-2.44-.66c0 3.89 2.95 6.94 6.73 6.94 4.12 0 6.99-2.67 6.99-6.49 0-4.18-2.9-7.21-6.9-7.21-3.95 0-6.82 2.84-6.82 6.75m15.22-6.46v.47h.18c.75 0 1.44.14 1.44 1.16v9.84c0 1.02-.69 1.16-1.44 1.16h-.19v.48h9.17l.03-2.78c-.08-.02-.34-.08-.44-.11-.11 1.13-.36 2.2-1.93 2.2h-3v-5.13h2.62c1.08 0 1.24.86 1.25 1.54h.43v-4.21h-.43c-.01.82-.2 1.86-1.55 1.86H244v-4.87c0-1.16.98-1.16 1.845-1.16h.166v-.48h-5.85m-136.2-14.05c0 2.44 1 4.85 2.71 6.38 1.59 1.42 3.67 2.22 6.02 2.22 2.11 0 3.86-.39 5.58-1.19l.18-3.81-.54-.07c-.62 2.21-1.65 4.23-5.14 4.23-3.58 0-5.81-2.84-5.81-7.4 0-4.07 1.8-7.91 6.16-7.91 2.45 0 4.2.92 5.52 2.61l.43-.8c-1.48-1.92-3.78-2.94-6.39-2.94-5.3 0-8.69 3.13-8.69 8.68m35.5 5.03l-.55-10.16c-.1-2.25.6-2.45 2.11-2.51h.15v-.6h-5.55v.6h.21c1.87.07 1.99 1.11 2.07 2.63l.65 10.4c.08 1.42-.69 2.22-2 2.22h-.19v.6H141c.057-.14 5.59-12.48 5.59-12.48l5.29 12.47h4.568v-.61h-.09c-1.85 0-2.178-.58-2.04-2.9l.638-10.92c.097-1.28.767-1.39 2.027-1.44v-.59h-6.83v.59h.045c1.113.07 1.916.11 1.916 1.23l-.023 1.18-.5 10.53-5.69-13.66h-.5c-.05.13-5.95 13.39-5.95 13.39m66.1 2.4V552.5c0-1.75.74-2.03 2.51-2.03 4.16 0 6.05 3.58 6.05 7.09 0 5.46-2.25 7.94-6.88 7.94-.41 0-1.28-.04-1.67-.08zm-4.83-15.68v.6h.24c.94 0 1.81.17 1.81 1.45v12.34c0 1.28-.86 1.46-1.8 1.46h-.23v.6l7.36.01c2.74 0 5.03-.69 6.63-2.18 1.58-1.47 2.41-3.55 2.41-6.02 0-2.31-.92-4.54-2.52-6.13-1.61-1.6-3.86-2.14-6.14-2.14l-7.73-.01m30.41.84v4.03c0 .88-.64 1.35-1.86 1.35h-.19v.59h6.33V556h-.19c-.88 0-1.35-.47-1.35-1.35v-4.49c-1.51-.482-3.53-.87-5.78-.87-5.43 0-8.94 3.52-8.94 8.97 0 5.8 4.63 8.44 8.99 8.44 1.95 0 3.96-.39 5.23-.81l.26-3.93-.55-.037c-.68 2.83-1.94 3.94-4.78 3.94-3.82 0-6.14-2.82-6.14-7.353 0-4.17 1.96-8.3 6.33-8.3 1.01-.025 2.05.13 2.67.41m-63.59 8.113c2.08-.15 3.18-.61 4.1-1.555.72-.733 1.1-1.663 1.1-2.75 0-2.58-2.37-4.65-5.45-4.65h-8.06v.597h.33c.8 0 1.73.38 1.73 1.403v11.94c0 1.9-1.13 1.9-1.73 1.9h-.33v.6l7.31.004c3.43 0 5.32-1.24 5.32-3.6 0-2.602-2.29-3.57-4.31-3.892m-3.37 6.89v-6.61h1.24c2.27 0 3.52 1.1 3.52 3.2 0 2.32-1.09 3.406-3.26 3.406h-1.49zm0-7.33v-5.79c0-1.61.52-2.07 2.18-2.07 2.01 0 3.52 1.65 3.52 3.9 0 2.53-1.54 3.96-4.12 3.96h-1.58m-38.1 4.58l2.3-6.41h-4.61l2.31 6.41zm.29 3.36l-5.23-14.21c-.38-1.01-1.07-1.632-2.08-1.632h-.1v-.62h5v.615h-.22c-1.2 0-2.02.39-1.5 1.947l1.2 3.32h5.19l1.3-3.62c.37-1.14-.11-1.66-1.35-1.66h-.15v-.61h6.37v.61h-.05c-.85 0-1.43.45-1.83 1.58l-5.36 14.28-1.24.006m36.68 18.95l.03-2.77s-.34-.08-.45-.11c-.1 1.214-.37 2.204-2.31 2.204h-2.61v-5.13h2.23c1.09 0 1.39.61 1.52 1.67h.44v-4.29l-.45-.007c-.07 1.026-.31 1.823-1.51 1.823h-2.25v-4.51c0-1.31 1.12-1.31 2.32-1.31 2.14 0 3.13.134 3.73 2.3l.44-.094-.6-2.89h-9.74v.48h.18c.75 0 1.44.14 1.44 1.16v9.84c0 1.02-.69 1.16-1.43 1.16h-.18v.48H163"/>
    </g>
  </g>
</svg>
