<svg xmlns="http://www.w3.org/2000/svg" viewBox="0 0 377.96 377.947">
  <path d="M377.956 377.947H0V-.005h377.956v377.952" fill="#0f1f47"/>
  <path d="M74.803 314.4c0-13.187-6.396-22.39-17.183-22.39-11.726 0-17.195 11.05-17.195 22.39 0 13.184 6.398 22.378 17.195 22.378 11.724 0 17.183-11.05 17.183-22.377zm8-.26c0 14.505-11.196 25.036-25.183 25.036-14.26 0-25.187-10.65-25.187-24.517 0-14.516 11.192-25.048 25.187-25.048 14.258 0 25.183 10.663 25.183 24.528M228.58 314.4c0-13.187-6.4-22.39-17.19-22.39-11.726 0-17.187 11.05-17.187 22.39 0 13.184 6.396 22.378 17.186 22.378 11.723 0 17.19-11.05 17.19-22.377zm7.992-.26c0 14.505-11.192 25.036-25.183 25.036-14.26 0-25.19-10.65-25.19-24.517 0-14.516 11.197-25.048 25.19-25.048 14.258 0 25.182 10.663 25.182 24.528M267.088 322.384c-2.8-3.997-3.867-5.455-7.328-5.455h-3.735v16.255c0 1.334.534 1.988 2.003 2.26l5.46 1.2v1.74h-21.452v-1.74l4.932-1.2c1.46-.393 1.995-.926 1.995-2.26v-37.578c0-1.335-.534-1.864-1.995-2.262l-4.932-1.2v-1.738h20.92c4.4 0 7.463.405 9.993 1.33 5.198 2.006 8.127 6.943 8.127 11.594 0 5.873-4.396 10.81-11.726 12.523v.267c1.47.68 2.266 1.607 7.465 8.412l6.528 8.653c.933 1.334 2.133 2.126 3.6 2.4l4.796 1.06v1.74h-11.46c-1.333 0-2-.408-3.197-2.012l-9.995-13.99zm-11.063-7.725h5.998c9.062 0 11.062-5.72 11.062-11.194 0-4.13-1.866-7.995-6.13-9.855-2.266-.935-4.4-.935-7.33-.935h-3.6v21.984M173.144 306.797h2v15.995h-2l-1.2-4.795c-.4-1.738-1.467-2.4-3.063-2.4h-11.596v17.588c0 1.334.535 1.988 2 2.26l5.464 1.2v1.74h-21.45v-1.74l4.93-1.2c1.465-.393 2-.926 2-2.26v-37.578c0-1.335-.535-1.864-2-2.262l-4.93-1.2v-1.738h36.242v12.005h-2l-2.263-7.205c-.534-1.862-1.333-2.532-2.933-2.532h-15.06v20.652h11.597c1.597 0 2.53-.657 3.064-2.4l1.2-4.13M309.593 292.675v41.3c0 1.742.4 2.15 2.132 2.15h5.863c5.596 0 9.727-.814 12.66-2.94 4.928-3.593 7.195-10.124 7.195-18.39 0-8.13-2.267-16.115-8.928-19.982-2.796-1.604-6.396-2.138-11.995-2.138h-6.927zm-13.992 45.71v-1.74l4.93-1.2c1.47-.393 2-.926 2-2.26v-37.578c0-1.335-.53-1.864-2-2.262l-4.93-1.2v-1.738h22.52c6.13 0 10.528.8 14.127 2.4 9.06 4.133 13.193 13.057 13.193 21.852 0 8.54-3.2 16.523-11.33 20.785-3.727 2.01-8.926 2.94-15.72 2.94H295.6M101.592 336.644v1.74H84.67v-1.74l4.258-1.06c1.606-.41 2.666-.93 3.73-2.128l14.663-18.39-14.66-19.46c-.93-1.334-2.126-1.995-3.597-2.397l-4-1.065v-1.738h21.055v1.738l-4.526.928c-1.605.272-1.203.934-.407 2.003l10.795 15.457h.265l11.063-15.457c.8-1.07 1.067-1.465-.4-1.867l-4.264-1.065v-1.738h16.924v1.738l-4.265 1.064c-1.597.4-2.664.93-3.732 2.127l-13.856 17.468 15.456 20.38c.937 1.334 2.133 1.988 3.6 2.4l4 1.06v1.74h-21.056v-1.74l4.53-.928c1.6-.272 1.332-.79.533-1.878l-11.727-16.52h-.266l-11.856 16.407c-.803 1.062-1.068 1.446.395 1.857l4.27 1.06M51.117 267.83c-1.325 1.326-3.314 2.21-6.086 2.21-2.418 0-4.658-.762-6.175-2.277-2.07-2.07-1.975-4.71-1.975-7.532V246.89h2.72v14.333c0 1.816-.054 3.583 1.347 4.985.972.97 2.465 1.495 4.186 1.495 1.683 0 3.032-.58 3.874-1.424 1.56-1.56 1.46-3.257 1.46-7.363v-12.025h2.68v11.32c0 4.3.175 7.417-2.03 9.623M75.264 269.613l-10.948-18.628.067 18.628h-2.5v-22.726h2.79L75.66 265.62l-.068-18.733h2.5v22.726h-2.828M87.568 269.61V246.89h2.734v22.723h-2.734M107.303 269.61h-3.13l-7.837-22.722h2.85l6.63 20.06 6.826-20.06h2.645l-7.984 22.723M121.473 269.61V246.89h12.354v2.267h-9.675v7.498h9.082v2.21h-9.082v8.413h9.947v2.335h-12.627M153.856 269.61l-2.61-5.89c-1.618-3.62-2.355-3.993-5.65-3.993h-1.585v9.884h-2.678V246.89h4.9c3.035 0 5.32-.02 7.11 1.768 1.137 1.136 1.77 2.648 1.77 4.544 0 1.578-.457 2.894-1.41 3.905-.818.87-2.17 1.634-3.645 1.792.802.046 1.462.476 1.89.907.62.62 1.07 1.555 1.736 3.04l3.018 6.767zm-2.483-19.302c-1.302-1.304-2.993-1.244-4.845-1.244h-2.517v8.487h.905c2.294 0 4.764.12 6.322-1.44.755-.75 1.175-1.81 1.175-2.96 0-1.28-.5-2.306-1.04-2.842M183.247 269.61V246.89h2.733v22.723h-2.733M201.584 249.155v20.456h-2.733v-20.455h-6.753v-2.267h16.22v2.267h-6.733M221.397 260.63v8.98h-2.7v-8.98l-7.213-13.742h3.125l5.6 10.657 5.44-10.658h2.96l-7.213 13.744M254.11 270.04c-5.88 0-10.18-4.857-10.18-11.688 0-7.02 4.253-11.895 10.39-11.895 5.95 0 10.148 4.826 10.148 11.687 0 7.033-4.208 11.897-10.357 11.897zm-.007-21.26c-4.455 0-7.346 3.76-7.346 9.428 0 5.645 3.22 9.492 7.49 9.492 4.75 0 7.392-4.04 7.392-9.672 0-5.543-3.12-9.248-7.537-9.248M274.653 249.155v7.498h8.787v2.21h-8.787v10.748h-2.712V246.89h12.07v2.267h-9.357M162.21 252.432c0-3.492 2.81-5.98 6.914-5.98 4.155 0 6.148 2.148 6.352 2.37l-1.333 1.614c-.51-.392-2.328-1.73-4.84-1.73-2.9 0-4.504 1.515-4.504 3.57 0 .997.407 1.714 1.064 2.302.78.7 1.916 1.217 3.14 1.78 1.524.7 3.612 1.49 5.01 2.94.97 1.003 1.7 2.31 1.7 4.1 0 3.78-2.622 6.657-7.34 6.657-4.018 0-6.555-2.214-6.794-2.435l1.253-1.844c.646.48 3.168 1.973 5.475 1.973 3.42 0 4.7-1.873 4.7-4.13 0-1.05-.48-1.895-1.185-2.572-1.062-1.023-2.666-1.705-4.203-2.408-1.528-.7-2.997-1.428-4.04-2.523-.685-.72-1.37-1.9-1.37-3.685M266.6 93.148c0-2.855-.967-5.16-3.057-6.387-1.31-.768-3.086-1.02-5.27-1.02H242.36v32.127h17.317c3.99 0 6.34.898 6.544 4.48h.383l-.003-29.2M268.824 93.148c0-2.855.965-5.16 3.057-6.387 1.312-.768 3.085-1.02 5.273-1.02h16.022v32.127h-17.428c-3.992 0-6.34.898-6.544 4.48h-.382l.004-29.2" fill="#fff"/>
  <path d="M296.5 88.115v33.962h-24.6l-.28.695c-.43 1.06-1.197 2.04-3.884 2.04-2.683 0-3.45-.98-3.88-2.04l-.28-.695h-24.56V88.115h-2.223v1.034l-2.13-.655c-.247-.84-1.014-1.455-1.932-1.455-1.114 0-2.022.905-2.022 2.023s.908 2.024 2.023 2.024c.49 0 .933-.18 1.28-.468l2.783.853v2.73l-2.09-.375c-.31-.72-1.027-1.228-1.862-1.228-1.113 0-2.02.905-2.02 2.024 0 1.117.907 2.023 2.02 2.023.58 0 1.097-.246 1.465-.632l2.488.445v2.784l-2.184-.096c-.355-.59-.994-.988-1.73-.988-1.116 0-2.024.907-2.024 2.023 0 1.118.908 2.024 2.024 2.024.673 0 1.267-.334 1.633-.84l2.28.1v3.025l-2.233.08c-.367-.513-.964-.852-1.644-.852-1.115 0-2.024.907-2.024 2.024s.91 2.023 2.024 2.023c.732 0 1.367-.392 1.723-.974l2.153-.077v2.787l-2.442.42c-.37-.394-.89-.643-1.47-.643-1.116 0-2.024.907-2.024 2.024s.908 2.023 2.024 2.023c.83 0 1.54-.502 1.852-1.216l2.06-.353v2.736l-2.67.816c-.35-.29-.79-.47-1.28-.47-1.115 0-2.022.907-2.022 2.024s.907 2.023 2.02 2.023c.92 0 1.687-.616 1.935-1.455l2.018-.616v2.647l-2.95 1.273c-.32-.21-.7-.335-1.112-.335-1.114 0-2.022.907-2.022 2.024s.908 2.024 2.023 2.024c.997 0 1.822-.723 1.99-1.67l2.073-.897v2.42h25.415c1.032 1.8 2.82 2.733 5.528 2.733 2.712 0 4.5-.932 5.532-2.734h25.455V88.114H296.5M251.017 76.788c-5.136 0-9.3.8-9.3 1.784 0 .987 4.164 1.784 9.3 1.784 5.136 0 9.3-.797 9.3-1.784 0-.985-4.164-1.784-9.3-1.784M263.824 65.645l-5.37 3.774-.046.38 1.276.575c.253.126.256.33.127.452l-3.373 2.846-.32-.028-2.39-3.52c-.164-.23-.104-.457.184-.505l1.605-.26v-.407l-4.158-5.873h-.684l-4.156 5.873v.406l1.604.26c.288.048.348.275.184.504l-2.39 3.52-.32.03-3.15-2.847c-.128-.123-.125-.326.125-.452l1.277-.574-.047-.38-5.592-3.775-.453.178 3.284 10.033c1.665-.75 5.493-1.276 9.975-1.297 4.484.02 8.312.547 9.978 1.296l3.284-10.033-.453-.178M267.7 144.064c-5.14 0-9.303.8-9.303 1.784 0 .985 4.163 1.784 9.302 1.784 5.133 0 9.297-.8 9.297-1.784 0-.985-4.164-1.784-9.298-1.784M280.503 132.92l-5.37 3.775-.045.382 1.276.574c.252.126.255.33.127.453l-3.373 2.846-.32-.03-2.39-3.52c-.163-.23-.104-.457.185-.505l1.603-.262v-.404l-4.156-5.875h-.687l-4.156 5.874v.403l1.604.262c.29.048.35.276.184.504l-2.39 3.52-.32.03-3.15-2.847c-.128-.123-.125-.327.125-.452l1.277-.573-.047-.382-5.59-3.774-.454.18 3.283 10.032c1.665-.75 5.493-1.276 9.976-1.297 4.483.02 8.31.548 9.977 1.297l3.283-10.033-.453-.18M284.337 76.788c-5.136 0-9.3.8-9.3 1.784 0 .987 4.164 1.784 9.3 1.784 5.136 0 9.3-.797 9.3-1.784 0-.985-4.164-1.784-9.3-1.784M297.143 65.645l-5.368 3.774-.048.38 1.276.575c.253.126.256.33.126.452l-3.373 2.846-.32-.028-2.388-3.52c-.166-.23-.107-.457.18-.505l1.605-.26v-.407l-4.158-5.873h-.682l-4.158 5.873v.406l1.606.26c.285.048.345.275.18.504l-2.39 3.52-.32.03-3.148-2.885c-.13-.123-.128-.326.124-.453l1.277-.536-.048-.38-5.592-3.775-.453.178 3.284 10.033c1.664-.75 5.492-1.276 9.975-1.297 4.484.02 8.312.547 9.978 1.296l3.283-10.033-.453-.178" fill="#fff"/>
  <path d="M246.12 94.315c0 .63.157.75.496.75.61 0 1.227-.673 1.227-1.928 0-1.52-.772-1.946-1.374-1.946-.165 0-.255.023-.306.05-.036.015-.043.18-.043.355zm.35-3.48c.87 0 1.593.172 2.066.632.333.318.61.842.61 1.452 0 1.763-1.338 2.52-2.975 2.52h-1.826v-.276c.517-.043.573-.092.573-.857V91.97c0-.765-.056-.815-.517-.857v-.277h2.07M251.08 92.96c0 1.284.48 2.22 1.175 2.22.61 0 .94-.59.94-1.872 0-1.423-.508-2.21-1.118-2.21-.545 0-.998.623-.998 1.863zm3.435.123c0 1.516-1.035 2.464-2.395 2.464-1.43 0-2.357-1.043-2.357-2.346 0-1.145.764-2.47 2.457-2.47 1.295 0 2.295.95 2.295 2.353M260.77 90.836v.277c-.54.05-.57.078-.547.822l.07 2.372c.022.786.035.808.544.857v.276h-2.216v-.276c.533-.05.555-.07.547-.857l-.02-2.494h-.03l-1.366 3.55h-.38l-1.298-3.3h-.015l-.05 1.572c-.02.61-.012.948.016 1.166.028.265.184.33.644.364v.276h-1.75v-.276c.342-.03.475-.1.518-.363.036-.217.077-.592.113-1.237l.077-1.43c.05-.892-.006-.97-.566-1.02v-.277h1.664l1.24 2.805 1.084-2.804h1.72M263.068 94.307c0 .765.057.814.545.857v.276h-2.293v-.276c.488-.043.544-.092.544-.857V91.97c0-.765-.056-.815-.544-.857v-.277h2.293v.277c-.488.042-.545.092-.545.856v2.337M251.663 103.988h-.608l-2.62-3.343h-.016v1.303c0 .744.028 1.133.056 1.353.036.25.227.34.693.363v.276h-1.763v-.277c.312-.015.494-.114.532-.362.025-.22.055-.608.055-1.352v-1.303c0-.524-.015-.617-.158-.814-.105-.15-.28-.197-.536-.22v-.275h1.565l2.358 2.94h.014v-.95c0-.744-.028-1.133-.056-1.352-.035-.248-.227-.34-.692-.362v-.275h1.804v.276c-.352.015-.537.115-.572.363-.028.22-.057.608-.057 1.352v2.663M254.53 103.988c-.487-1.275-1.153-3.024-1.41-3.69-.23-.61-.373-.645-.713-.687v-.275h2.288v.276l-.242.03c-.26.028-.26.092-.184.34.126.395.686 1.792.95 2.485.22-.6.67-1.954.784-2.286.15-.435.107-.512-.212-.547l-.212-.022v-.275h1.713v.276c-.404.05-.502.087-.78.73-.04.1-.905 2.204-1.436 3.648h-.546M257.725 102.48c.15.41.567 1.197 1.262 1.197.368 0 .65-.242.65-.702 0-.418-.274-.65-.708-.85l-.106-.05c-.58-.268-1.24-.636-1.24-1.394 0-.8.58-1.452 1.693-1.452.22 0 .446.028.652.087.16.04.274.07.366.098.03.276.08.623.156 1.104l-.312.05c-.155-.467-.403-.97-.964-.97-.36 0-.616.276-.616.616 0 .354.277.56.73.766l.155.07c.654.297 1.212.658 1.212 1.486 0 .872-.7 1.508-1.798 1.508-.284 0-.576-.056-.767-.12-.21-.07-.36-.128-.445-.17-.057-.326-.148-.707-.235-1.182l.312-.092M248.513 111.304c0 .764.056.813.544.857v.277h-2.293v-.276c.488-.043.545-.092.545-.856v-2.34c0-.763-.058-.812-.546-.855v-.277h2.293v.276c-.488.042-.544.09-.544.855v2.34M251.32 111.396c0 .368.012.544.14.608.113.057.275.064.495.064.226 0 .532-.02.68-.205.113-.134.233-.326.348-.702l.304.052c-.043.27-.19 1.005-.255 1.225h-3.513v-.276c.536-.043.593-.092.593-.856v-2.34c0-.763-.057-.812-.53-.855v-.277h2.302v.276c-.51.042-.566.09-.566.855v2.43M255.27 111.396c0 .368.014.544.142.608.113.057.275.064.495.064.226 0 .532-.02.68-.205.113-.134.233-.326.348-.702l.304.052c-.043.27-.192 1.005-.256 1.225h-3.513v-.276c.538-.043.595-.092.595-.856v-2.34c0-.763-.057-.812-.53-.855v-.277h2.3v.276c-.508.042-.564.09-.564.855v2.43M258.655 112.487c-.49-1.275-1.155-3.024-1.41-3.69-.234-.61-.374-.645-.716-.688v-.277h2.287v.276l-.24.027c-.262.028-.262.092-.185.342.128.395.687 1.79.95 2.484.218-.603.67-1.955.786-2.288.148-.432.105-.51-.213-.544l-.212-.023v-.277h1.713v.276c-.404.05-.503.085-.78.73-.04.097-.905 2.2-1.436 3.647h-.545M277.677 90.836v.277c-.538.05-.566.078-.546.822l.073 2.372c.02.786.033.808.544.857v.276h-2.216v-.276c.53-.05.554-.07.546-.857l-.02-2.494h-.03l-1.366 3.55h-.383l-1.296-3.3h-.013l-.05 1.572c-.022.61-.014.948.015 1.166.027.265.183.33.644.364v.276h-1.75v-.276c.34-.03.475-.1.517-.363.037-.217.078-.592.113-1.237l.08-1.43c.048-.892-.008-.97-.568-1.02v-.277h1.664l1.24 2.805 1.084-2.804h1.72M279.977 94.307c0 .765.058.814.546.857v.276h-2.295v-.276c.49-.043.545-.092.545-.857V91.97c0-.765-.056-.815-.545-.857v-.277h2.295v.277c-.488.042-.546.092-.546.856v2.337M285.247 95.49h-.61l-2.62-3.343h-.014v1.302c0 .743.03 1.133.057 1.35.036.25.225.343.695.364v.276h-1.763v-.276c.31-.015.495-.113.53-.363.03-.217.055-.607.055-1.35v-1.303c0-.523-.013-.616-.154-.815-.107-.148-.284-.197-.538-.22v-.276h1.564l2.358 2.94h.015v-.95c0-.743-.03-1.13-.058-1.353-.036-.246-.226-.338-.694-.36v-.277h1.807v.277c-.353.014-.54.114-.573.36-.028.222-.057.61-.057 1.354v2.662M287.308 93.627h.907l-.447-1.354h-.02zm.9 1.537l.212-.03c.26-.033.276-.105.184-.36l-.256-.722h-1.16l-.213.68c-.092.305-.092.375.233.41l.205.022v.276h-1.65v-.276c.36-.05.468-.08.702-.673l1.418-3.66.488-.1.48 1.34c.307.842.61 1.678.88 2.4.226.615.354.65.702.694v.276h-2.225v-.276M277.62 102.805c0 .764.057.815.652.858v.276h-2.48v-.277c.568-.043.624-.094.624-.858v-3.102h-.12c-.473 0-.665.086-.78.213-.083.107-.17.29-.26.687h-.3c.03-.595.072-1.083.087-1.444h.218c.11.16.18.175.37.175h2.825c.185 0 .22-.043.333-.176h.22c.008.296.044.897.077 1.42l-.31.023c-.107-.424-.184-.608-.29-.73-.12-.128-.356-.17-.694-.17h-.17v3.102M281.33 102.805c0 .764.055.815.545.858v.276h-2.295v-.277c.488-.043.544-.094.544-.858v-2.337c0-.765-.056-.815-.544-.857v-.275h2.295v.276c-.49.043-.546.093-.546.858v2.337M283.783 101.46c0 1.28.48 2.217 1.174 2.217.61 0 .943-.59.943-1.87 0-1.424-.51-2.21-1.12-2.21-.544 0-.997.623-.997 1.862zm3.436.12c0 1.516-1.037 2.464-2.395 2.464-1.432 0-2.36-1.04-2.36-2.344 0-1.147.764-2.472 2.458-2.472 1.297 0 2.296.95 2.296 2.352M279.712 107.833v.276c-.54.05-.567.078-.547.822l.07 2.372c.022.785.037.808.546.857v.277h-2.216v-.276c.532-.048.553-.07.547-.856l-.02-2.493h-.03l-1.367 3.55h-.38l-1.298-3.3H275l-.05 1.572c-.02.608-.013.948.015 1.167.03.26.184.325.646.36v.277h-1.75v-.276c.34-.028.475-.1.517-.36.036-.22.078-.596.114-1.24l.078-1.43c.05-.893-.007-.97-.567-1.02v-.277h1.667l1.24 2.804 1.084-2.804h1.722M280.807 108.965c0-.764-.056-.813-.53-.856v-.277h3.356c.007.122.043.638.08 1.168l-.313.023c-.07-.347-.15-.544-.263-.658-.112-.12-.348-.164-.722-.164h-.12c-.27 0-.283 0-.283.25v1.366h.353c.61 0 .63-.043.702-.58h.312v1.67h-.313c-.07-.622-.092-.665-.702-.665h-.353v1.156c0 .368.013.544.14.608.116.057.277.064.497.064.282 0 .594-.043.75-.212.12-.127.24-.388.347-.73l.312.05c-.037.347-.185 1.07-.25 1.26h-3.603v-.275c.544-.043.6-.092.6-.856v-2.34M285.645 110.624h.907l-.447-1.353h-.02zm.9 1.537l.212-.028c.262-.035.276-.107.184-.36l-.255-.723h-1.16l-.213.68c-.092.303-.092.374.233.41l.206.02v.277h-1.65v-.276c.36-.048.47-.077.703-.673l1.417-3.66.488-.1.48 1.338c.307.844.61 1.68.88 2.403.225.615.353.65.7.693v.277h-2.223v-.276" fill="#0f1f47"/>
  <path d="M261.31 169.415c0 1.024-.83 1.853-1.853 1.853-1.02 0-1.85-.83-1.85-1.853 0-1.023.83-1.852 1.85-1.852 1.024 0 1.854.83 1.854 1.852M280.093 172.496c0 1.024-.83 1.852-1.852 1.852-1.02 0-1.85-.828-1.85-1.852 0-1.023.83-1.85 1.85-1.85 1.024 0 1.853.827 1.853 1.85M269.477 38.64c0 1.024-.83 1.852-1.852 1.852-1.022 0-1.852-.828-1.852-1.85 0-1.025.83-1.853 1.852-1.853 1.023 0 1.852.827 1.852 1.85M313.555 55.98c-.046 1.02-.907 1.813-1.93 1.77-1.02-.042-1.814-.907-1.772-1.93.042-1.02.907-1.812 1.927-1.768 1.023.043 1.817.905 1.775 1.927M220.664 135.484c.71 1.024 1.07 2.12 1.068 3.255-.003 1.293-.436 2.343-2.75 3.947l-6.69 4.766-1.23-1.772s6.85-4.877 6.963-4.955c1.182-.816 1.686-1.413 1.688-2.35 0-.592-.217-1.24-.646-1.855-.67-.965-1.528-1.273-2.287-1.275-.687 0-1.428.482-2.744 1.4l-6.29 4.267-1.207-1.74 5.983-4.053c1.665-1.17 2.992-1.973 4.224-1.97 1.798.002 3.11 1.173 3.917 2.334M199.29 122.425l12.726-4.46.704 1.927-7.28 8.893 9.2-3.638.684 1.877-12.577 4.83-.703-1.927 7.315-8.904-9.384 3.282-.685-1.88M197.388 112.295l13.32-1.976.313 2.132-13.317 1.975-.315-2.132M196.993 96.237l.052-2.234 13.29 5.4-.092 2.218-13.65 4.072.015-2.24 11.067-3.1-10.682-4.115M206.752 70.193c.79-1.436 1.352-1.98 2.187-1.976.308 0 .697.078 1.09.294.505.28.89.746 1.034 1.246.056.195.08.388.08.58-.008.8-.453 1.605-.92 2.447l-.276.498-3.793-2.036zm2.395-4.08c-1.903.003-2.783 1.092-3.998 3.287l-1.582 2.833 11.86 6.436 1.025-1.853-4.93-2.69.29-.532c.828-1.5 1.115-1.728 3.23-1.55l3.842.342 1.098-1.99-4.427-.378c-.89-.084-1.592-.15-2.16.016-.19.055-.417.17-.636.325.05-.24.14-.473.144-.717.003-.38-.052-.755-.165-1.098-.26-.79-.823-1.43-1.676-1.904-.636-.35-1.273-.528-1.917-.527M223.883 47.085l1.714-1.308 8.17 10.702-1.712 1.307-8.172-10.702M231.277 41.835l8.71-4.534.85 1.635-3.39 1.765 5.368 10.31-1.912.995-5.368-10.31-3.408 1.776-.85-1.635M253.004 33.205l2.272-.633-1.83 9.008 1.48 5.115-2.053.592-1.446-5.076-6.392-6.67 2.212-.64 4.6 4.792 1.157-6.487M294.088 51.612l6.837-11.6 6.432 3.79-.934 1.587-4.594-2.707-1.89 3.21 4.323 2.546-.915 1.552-4.324-2.548-3.093 5.253-1.842-1.085M328.685 81.607l4.902-5.867.764 2.323-3.65 4.177 5.423 1.217.718 2.188-7.416-1.794-5.27 6.315-.75-2.282 3.977-4.636-5.945-1.356-.724-2.21 7.975 1.927M324.835 94.836l13.422-1.095.608 7.445-1.838.15-.432-5.314-3.712.304.406 5-1.795.148-.41-5-6.076.493-.175-2.13M331.83 117.1c-2.62 0-5.685-1.428-5.685-4.072 0-.957.332-2.244 1.518-3.104.798-.58 1.837-.89 3-.89 1.337 0 3.745.377 5.01 2.12.434.6.656 1.295.654 2.04 0 1.03-.422 2.257-1.527 3.058-.783.567-1.812.85-2.97.85zm-1.06-10.26c-1.555 0-2.986.42-4.115 1.243-2.034 1.472-2.403 3.588-2.403 4.825 0 4.552 4.277 6.372 7.49 6.372 1.542.003 2.954-.417 4.067-1.224 2.267-1.643 2.39-4.11 2.39-4.905 0-3.97-3.65-6.31-7.43-6.31M320.86 72.99c-1.21 0-2.3-.507-3.053-1.695-.384-.604-.57-1.256-.574-1.918-.006-1.52.958-3.084 2.723-4.206 1.17-.74 2.317-1.105 3.344-1.1 1.297 0 2.355.57 3.06 1.683.416.655.605 1.354.605 2.05 0 1.488-.94 2.945-2.646 4.026-1.2.758-2.403 1.16-3.46 1.16zm2.095-10.97c-1.36 0-2.81.432-4.207 1.317-2.587 1.643-3.53 3.992-3.53 5.708 0 1.11.306 2.202.94 3.202 1.437 2.266 3.59 2.82 5.047 2.813 1.39-.007 2.856-.467 4.24-1.345 1.666-1.056 3.518-3.02 3.518-5.676 0-1.105-.315-2.19-.95-3.196-1.18-1.857-3.026-2.824-5.058-2.824M285.528 46.296c-.973 0-2.383-.476-3.17-1.913-.38-.696-.55-1.542-.55-2.415 0-2.412 1.607-5.795 4.54-5.795 1.648 0 3.717 1.227 3.717 4.27 0 1.942-1.366 5.853-4.537 5.853zm.693-12.008c-2.805 0-5.248 1.89-6.233 5.247-.22.744-.358 1.484-.358 2.198 0 1.346.226 2.41.775 3.416 1.247 2.278 3.527 3.054 5.26 3.054.978 0 1.922-.224 2.786-.696 2.273-1.243 3.773-4.125 3.773-6.885 0-1.198-.232-2.327-.764-3.292-1.095-1.986-3.12-3.042-5.24-3.042M211.643 83.12l1.808.51-2.04 7.395-13.03-3.572 2.225-7.482 1.77.502-1.634 5.39 3.593.987 1.387-4.898 1.732.492-1.38 4.88 4.064 1.117 1.507-5.32M215.06 54.988c1.87-2.096 3.783-1.952 3.783-1.952l.326 1.776s-1.475.048-2.63 1.34c-.503.565-.756 1.155-.756 1.683 0 .437.17.818.512 1.124.933.83 2.527-.095 3.525-.495.768-.317 1.857-.76 2.948-.76.813 0 1.653.23 2.423.916.897.803 1.346 1.807 1.346 2.863 0 1.144-.444 2.16-1.34 3.16-1.716 1.925-4.025 2.134-4.025 2.134l-.458-1.8c1.36-.316 2.39-.838 3.015-1.54.492-.55.733-1.165.733-1.706 0-.507-.212-.98-.628-1.353-.336-.3-.747-.408-1.192-.398-.865 0-1.9.493-2.756.85-1.636.674-3.36 1.22-4.905-.16-.788-.702-1.205-1.585-1.205-2.566 0-1.036.41-2.136 1.284-3.116M329.21 132.25c-.61.002-1.64-.35-2.03-1.353-.097-.254-.137-.512-.135-.774.007-.736.356-1.503.715-2.308l.23-.52 3.88 1.745-.43 1.04c-.724 1.645-1.193 2.168-2.23 2.17zm-7.95-7.985l5.088 2.303-.25.573c-.694 1.568-.96 1.823-3.082 1.832l-3.855.003-.92 2.078 4.445-.014c.9 0 1.6 0 2.148-.21.178-.07.382-.182.567-.334-.01.116-.05.228-.052.343-.004.493.088.984.273 1.413.61 1.423 2.27 2.12 3.483 2.116 2.142-.003 2.96-1.285 4.002-3.642.04-.088 1.25-2.885 1.25-2.885l-12.242-5.515-.853 1.937M318.967 147.14c-1.07 0-2.075-.412-3.12-1.247-1.06-.846-2.183-2.165-2.183-3.848 0-1.17.635-2.284 1.61-3.508l.893-1.117 7.69 6.137-.588.736c-1.43 1.79-2.403 2.847-4.303 2.847zm-4.8-10.137c-1.395 1.748-2.454 3.31-2.454 5.33 0 1.714.78 3.663 2.747 5.235 1.305 1.043 2.78 1.608 4.303 1.608 1.873 0 3.376-.563 5.708-3.487l2.13-2.675-10.524-8.402-1.908 2.39" fill="#fff"/>
  <path d="M312.916 162.616c-12.53 4.433-24.228 4.13-34.204 1.9.327-4.456 2.168-9.22 4.99-10.104 21.974-6.816 37.98-27.304 37.98-51.45 0-29.702-24.21-53.865-53.965-53.865-29.757 0-53.965 24.163-53.965 53.864 0 16.524 7.717 32.22 20.708 42.396-3.084 1.356-5.716 3.548-7.62 6.28-.984-.672-1.933-1.368-2.812-2.09l-.49.493c.587.708 1.498 1.645 2.594 2.695-1.6 2.69-2.525 5.822-2.525 9.172 0 .52.034 1.034.077 1.545-19.333-14.09-30.82-36.49-30.82-60.49 0-41.273 33.58-74.85 74.853-74.85 41.274 0 74.852 33.577 74.852 74.85 0 23.64-10.81 45.358-29.654 59.654zm-43.424 17.668c-10.343 0-23.25-3.516-32.12-8.748-2.688-1.585-5.89-4.533-5.89-9.575 0-1.36.266-2.657.738-3.852 3.31 2.737 6.732 5.303 8.88 6.477.492.27.777.403 1.352.403 1.377 0 2.493-1.12 2.493-2.504 0-1.057-.572-1.915-1.52-2.328-1.833-.803-5.673-2.39-9.806-4.532 1.91-2.523 4.92-4.16 8.313-4.16 1.55 0 3.044.33 4.436.988l2.834 1.652c9.013 5.505 32.2 19.623 60.2 11.865-10.628 9.59-23.717 14.314-39.912 14.314zm8.864 6.3c-2.844 0-5.177 2.013-5.177 5.103 0 3.022 2.364 5.1 5.176 5.1.428 0 .836-.07 1.232-.175-.593 4.277-5.575 9.065-12 11.216-6.375-2.132-11.355-6.956-12.013-11.21.393.1.8.17 1.225.17 3.067 0 5.176-2.147 5.176-5.1 0-2.82-2.212-5.03-5.065-5.092.87-1.592 1.706-3.283 2.323-5.1 3.536.616 7.02.953 10.26.953 2.654 0 5.232-.145 7.75-.4.334 1.46.832 2.985 1.414 4.56-.1-.005-.198-.026-.3-.026zM241.77 145.98c5.32 0 10.298 2.728 13.218 7.1-2.556-.648-5.067-1.492-7.516-2.536l-.008.015-.08-.047c-1.712-.806-3.545-1.216-5.45-1.216-4.24 0-7.99 2.08-10.31 5.258-.975-.54-1.95-1.108-2.905-1.703 2.868-4.147 7.644-6.873 13.05-6.873zm21.063 10.617c-.658.49-1.186 1.075-1.562 1.72-1.95-.948-4.405-2.17-6.007-3.068 2.27.502 5.237 1.14 7.57 1.347zm16.383-1.016c-1.55 2.212-2.472 5.287-2.747 8.4-4.893-1.263-9.33-2.956-13.202-4.72.735-1.427 2.843-2.435 4.45-2.435 3.946 0 7.79-.437 11.498-1.244zm-11.5-.92c-3.304 0-6.56-.32-9.75-.928-3.077-6.035-9.383-9.92-16.197-9.92-1.675 0-3.29.247-4.83.67-13.096-9.73-20.907-25.207-20.907-41.52 0-28.507 23.186-51.7 51.684-51.7 28.498 0 51.683 23.193 51.683 51.7 0 28.506-23.185 51.698-51.683 51.698zm-25.947 23.172c-8.76 0-15.882-7.143-15.882-15.925 0-2.75.7-5.342 1.93-7.603.817.743 1.69 1.513 2.598 2.29-.772 1.633-1.216 3.447-1.216 5.367 0 4.78 2.41 8.725 6.968 11.415 2.617 1.544 5.58 2.937 8.72 4.15-1.02.203-2.06.307-3.12.307zm103.08-74.87c0-42.466-34.602-77.014-77.133-77.014-42.532 0-77.134 34.548-77.134 77.013 0 25.477 12.58 49.223 33.657 63.612 2.073 7.717 9.135 13.425 17.53 13.425 2.27 0 4.47-.428 6.56-1.237 2.823.932 5.738 1.704 8.646 2.303-.817 2.338-2.015 4.556-3.152 6.473l.063-.013c-.022.014-.046.025-.066.04l1.608 1.606c.41-.225.872-.365 1.372-.365 1.588 0 2.88 1.292 2.88 2.882 0 1.586-1.292 2.88-2.88 2.88-1.387 0-2.603-.89-3.24-1.84 0 0-.375 1.296-.375 3.004-.01 5.534 6.028 11.853 14.403 14.518 8.367-2.604 14.407-8.97 14.403-14.508 0-1.905-.375-3.012-.375-3.012-.644.773-1.686 1.84-3.26 1.84-1.587 0-2.88-1.295-2.88-2.88 0-1.59 1.293-2.883 2.88-2.883.557 0 1.073.167 1.514.442l1.558-1.56.06.016c-.883-2.108-1.527-4.047-1.965-5.908 13.87-1.868 25.57-7.738 34.876-17.52l-.01-.01c19.36-14.71 30.46-37.024 30.46-61.304" fill="#fff"/>
</svg>
