<svg xmlns="http://www.w3.org/2000/svg" viewBox="3.4 2.9 398.1 90">
  <path fill="#00498F" d="M158.37 71.06h7.56V23.4h-7.96v47.66h.4m15.8 0h7.57V23.4h-7.95v47.66h.3m126.5 14.5c4.9.84 9.3-1.16 12.2-3.9 4.1-3.86 6.7-8.9 11-20.7l8.3-22.22.1-.48h-8l-.1.2-7.5 22.1-8-22.1-.1-.2H300l.16.47 12.47 31.24c-1 2.8-2.6 5.13-4.17 6.7-2 1.9-4.77 2.78-7.8 2.26v6.64"/>
  <path fill="#00498F" d="M283.76 37.43c-9.82 0-16.55 7.08-16.55 17.2 0 10.3 6.7 17.26 16.6 17.26s16.5-7 16.5-17.3c0-10.2-6.7-17.2-16.5-17.2zm-.04 28.07c-4.95 0-8.64-4.3-8.64-10.9 0-6.6 3.7-10.9 8.64-10.9 5.04 0 8.7 4.3 8.7 10.9 0 6.6-3.7 10.9-8.7 10.9M136.25 37.34c-10.08 0-16.55 6.96-16.55 17.2 0 10.3 6.47 17.26 16.55 17.26 10.08 0 16.5-6.95 16.5-17.25 0-10.25-6.42-17.2-16.5-17.2zm-.04 28.07c-4.9 0-8.6-4.3-8.6-10.9 0-6.6 3.7-10.9 8.7-10.9 5.1 0 8.7 4.3 8.7 10.9 0 6.6-3.7 10.9-8.7 10.9m76.3-19.2h15.6v6h-15.6zm-98.3 11.2c1.7 5.2 2.6 10.4 3.2 13.6H109c-.5-2.7-.96-6.4-2.44-10.9-1.7-5.4-3.82-7.8-8.86-7.8h-3.9V71h-8V25.3c1.7 0 3.7-.13 5.83-.13h6.43c6.47 0 10.73 1.35 13.68 3.92 2.48 2.1 3.83 5.3 3.83 9 0 6-3.52 9.5-7.43 11 2.86 1.3 4.7 3.7 6.17 8.3zM98.9 31.7h-2.66c-1.13 0-1.87.08-2.43.08v14.34h4.7c5.5 0 9.2-2.82 9.2-7.3 0-4.65-3-7.08-8.7-7.12m163.3 25.68c1.7 5.2 2.6 10.42 3.2 13.55l-8.4.04c-.4-2.7-.9-6.43-2.4-10.95-1.7-5.4-3.8-7.86-8.9-7.86H242v18.77h-8V25.26c1.7 0 3.7-.13 5.84-.13h6.4c6.47 0 10.73 1.35 13.7 3.92 2.47 2.12 3.8 5.34 3.8 9.03 0 6.04-3.5 9.52-7.42 11.04 2.9 1.35 4.7 3.7 6.2 8.26zM246.8 31.7h-2.66c-1.13 0-1.87.08-2.44.08v14.34h4.65c5.48 0 9.2-2.82 9.2-7.3 0-4.65-3.03-7.08-8.77-7.12m-57.9 31.9c1.8 1.12 5.16 2.2 8.07 2.2 3.9 0 5.47-1.26 5.47-3.65 0-2.43-1.26-3.47-5.43-5-6.2-2.17-8.9-5.77-8.9-9.6 0-5.5 4.5-10.08 11.9-10.08 3.5 0 6.5 1.04 8.4 2.13l-1.6 5.3c-1.8-.82-3.9-1.56-6.9-1.52-3.1.05-4.3 1.44-4.3 3.4 0 2.25 2.3 3.55 5.2 4.55 5.9 1.96 9 5.26 9 10.2-.1 5.88-5 10.18-13.2 10.18-3.7 0-7.3-.7-9.6-2.4l1.5-5.6M358 69.9c-1.65.8-5.08 1.8-9.26 1.8-9.5-.1-16.6-6.6-16.6-16.7 0-9.8 6.4-17.4 17.87-17.4 3.3 0 6.3.82 8.1 1.64l-1.4 5.8c-1.3-.7-3.4-1.13-6.5-1.13-6.7 0-9.9 4.5-9.8 10.8 0 7.1 3.9 11 9.8 11 3.1 0 5.2-.7 6.8-1.4l1.1 5.7m9.4-13.4c.3 6.8 4.3 9.2 9.9 9.2 4 0 6.7-.6 9-1.6l1.2 5.5c-2.5 1.1-6.3 2.3-11.2 2.3-10.3 0-16.5-6.8-16.5-16.7 0-9.3 5.6-17.5 15.8-17.5 10.6 0 13.8 9 13.8 15.6 0 1.5 0 2.5-.1 3.3l-21.7.1zm14.4-5.6c.1-3.2-.9-7.6-6.8-7.6-5.5 0-7.1 4.1-7.5 7.7h14.3"/>
  <path fill="#FFF" d="M6.07 10.7c0-2.8 2.3-5.12 5.13-5.12h39.5c2.86 0 5.17 2.3 5.17 5.13v74.4c0 2.9-2.3 5.2-5.17 5.2H11.2c-2.82 0-5.13-2.3-5.13-5.1V10.7"/>
  <path fill="#00498F" d="M8.2 19.48V10.7c0-1.64 1.35-3 3-3h39.5c1.7 0 3.04 1.36 3.04 3v8.78H8.2m0 2.12h45.54v52.6H8.2z"/>
  <path fill="#00498F" d="M6.07 10.7c0-2.8 2.3-5.12 5.13-5.12h39.5c2.86 0 5.17 2.3 5.17 5.13v74.4c0 2.9-2.3 5.2-5.17 5.2H11.2c-2.82 0-5.13-2.3-5.13-5.1V10.7zm52.4 0c0-4.3-3.47-7.77-7.77-7.77H11.2c-4.3 0-7.78 3.48-7.78 7.78v74.4c0 4.3 3.48 7.8 7.78 7.8h39.5c4.3 0 7.77-3.4 7.77-7.8V10.7"/>
  <path fill="#00498F" d="M8.2 76.32v8.78c0 1.65 1.35 3 3 3h39.5c1.7 0 3.04-1.35 3.04-3v-8.78H8.2"/>
  <path fill="#FFF" d="M27.7 65.8V54.13c1.14-.05 2.22-.1 3.3-.18-.38-.9-.77-1.82-1.25-2.7-.65.1-1.34.1-2.04.14v-2.5c-1.5.3-3.1.6-4.8.8v16.1c0 3.5-1.6 4.5-2.6 5.1h10.1c-.9-.7-2.6-1.6-2.6-5.2m23.6 5.2c-.9-.8-1.9-2-2.4-4.4-1-4.4-3-10.7-7.2-15.4 4.1-2.3 6.6-5.9 6.6-10.2 0-3.2-1.6-6.5-4.4-8.4-1.2-.8-2.6-1.4-4.3-1.7.6 1.3 1 2.7 1.1 4.1 1.8 1.3 2.7 3.5 2.7 6 0 3.2-1.6 7.1-7.4 9 .5.9 1 1.8 1.4 2.7l.9-.3c2.7 3.1 4.9 8 5.5 12.6.5 3.3-.7 4.9-1.5 5.7h9"/>
  <path fill="#FFF" d="M41.22 65.67c-.87-.78-1.9-2-2.4-4.38-.94-4.4-2.85-10.6-6.68-15 .18-.1.3-.2.48-.2 4.35-2.2 7-5.9 7-10.5.04-3.2-1.57-6.5-4.44-8.4-2.26-1.5-5.3-2.1-9.16-2.1H11.37c1 .6 2.65 1.6 2.65 5.1v30.2c0 3.6-1.65 4.5-2.65 5.1h10.17c-.96-.7-2.65-1.6-2.65-5.2V48.8c3.5 0 6.9-.44 9.7-1.18 2.5 3.1 4.5 7.87 5.1 12.26.4 3.3-.7 5-1.5 5.77h9zM18.9 46.12V27.87h6.9c2.52.05 4.4.57 5.87 1.6 1.95 1.4 3 3.62 3 6.27 0 4.47-3.1 10.17-15.78 10.38"/>
  <path fill="#FFF" d="M27.7 43.5V33.23h5.5c-.4-1.13-1.1-2.05-2.06-2.74H20.2c1 .6 2.65 1.5 2.65 5.1v9.1c1.82-.3 3.47-.7 4.86-1.2m10 38.7c0 1.5.9 2.6 2.4 2.6 1.1 0 2.1-.3 2.5-.8l-.2 1.7c-.3.1-1 .4-2.2.4-2.4 0-4.1-1.5-4.1-3.9 0-1.3.6-2.3 1.3-3 .7-.6 1.7-1 2.9-1 1.1 0 1.8.2 2.2.4v1.6c-.4-.5-1.1-.8-2.2-.8-1.5 0-2.4 1.1-2.4 2.6M18 84c-.3-.7-.6-1.26-1.14-1.47 1.13-.22 1.7-.92 1.74-1.87 0-1-.44-1.73-1.2-2.03-.5-.18-1.15-.18-2.1-.18h-3.8c.34.2.55.92.55 1.6v4.2c0 .7-.2 1.4-.56 1.7h2.7c-.4-.2-.6-1-.6-1.6V83h1.1c.6 0 1 .25 1.2.7.4.63.7 1.55 1.2 2.24l2.2.04c-.7-.52-1-1.17-1.3-1.9zm-1.1-3.3c0 .74-.6 1.04-1.5 1.04h-1.8v-2.1h1.73c.95 0 1.56.23 1.56 1m5.3 3.5c-.5-.4-.7-1-.7-2 0-.9.2-1.5.6-2 .3-.4.9-.6 1.6-.6.6 0 1.1.2 1.5.6.4.5.6 1.1.6 2 0 .9-.2 1.6-.7 2-.4.4-.9.68-1.6.68-.7 0-1.2-.24-1.6-.64zm1.5 2c1 0 1.9-.3 2.5-.86.8-.66 1.3-1.66 1.3-3.05 0-1.4-.6-2.4-1.4-3.1-.7-.5-1.5-.8-2.6-.8-1 0-1.9.3-2.5.8-.8.7-1.4 1.7-1.4 3.1 0 1.4.5 2.4 1.3 3.03.7.53 1.5.84 2.5.84m9.76-7.64c.17.1.26.26.2.4 0 .2-.1.46-.25.7l-1.5 2.2-1.5-2.2c-.2-.27-.4-.5-.3-.74 0-.1.04-.23.2-.32h-3c.55.2.8.6 1.2 1.14l2.5 3.5v1.2c0 .6-.2 1.4-.55 1.6H33c-.36-.2-.6-1-.6-1.6v-1.2l2.3-3.2c.33-.47.8-1.26 1.33-1.5h-2.7m14.43 6.2H46v-2h2.87l.17-1.1H46v-1.9h1.7c.95 0 1.74 0 2.13.4v-1.6h-5.96c.35.24.57 1.03.57 1.63v4.2c0 .7-.22 1.4-.57 1.7h6l.26-1.8c-.44.6-1.26.6-2.2.6m-3.8-69.5c.18.3.57.6.83.7.74.4 1.4.5 2.1.5 1.07 0 1.72-.4 1.72-1.1 0-.8-.82-.94-2.08-1.1-1.6-.2-2.48-.96-2.48-2.26.05-1.3 1.26-2.3 3.05-2.3 1.2 0 2.03.3 2.56.5v1.7c-.18-.3-.57-.5-.96-.7-.52-.1-1.04-.2-1.6-.2-.88 0-1.4.4-1.4.8 0 .8.7.8 2.22 1.1 1.5.3 2.4 1 2.3 2.3-.1 1.6-1.3 2.7-3.5 2.7-1 0-2.2-.2-2.9-.5v-2m-25.9.37c-.4-.73-.7-1.3-1.3-1.55 1.2-.3 1.8-1 1.8-2s-.5-1.8-1.3-2.1c-.6-.2-1.2-.2-2.2-.2h-4c.4.24.6 1 .6 1.7V16c0 .64-.2 1.5-.6 1.7H14c-.4-.2-.62-1.06-.62-1.7v-1.4h1.23c.6 0 1 .22 1.2.7.5.7.8 1.65 1.3 2.4h2.3c-.7-.5-1-1.2-1.4-1.97zM17 12.1c0 .77-.64 1.07-1.64 1.07h-1.8v-2.22h1.83c1 0 1.6.3 1.6 1.13m5.5 3.6c-.5-.42-.7-1.12-.7-2.07 0-.9.2-1.6.7-2.1.4-.3.9-.6 1.6-.6.7 0 1.3.3 1.7.7.4.4.7 1.1.7 2 0 1-.2 1.7-.7 2.1-.4.4-.9.6-1.6.6s-1.3-.2-1.7-.6zm1.6 2.05c1.1 0 2-.3 2.7-.9.8-.7 1.4-1.75 1.4-3.22 0-1.4-.6-2.5-1.4-3.2-.7-.5-1.6-.8-2.7-.8s-2 .3-2.7.8c-.8.7-1.4 1.8-1.4 3.2 0 1.5.5 2.5 1.4 3.2.7.6 1.6.9 2.6.9m11.3-2.2c-.4.6-1.3.8-2.3.8h-1.5v-4.8c0-.6.2-1.5.55-1.7h-2.8c.4.3.6 1.1.6 1.8V16c0 .7-.2 1.45-.6 1.7h5.84l.3-2m7.1 0c-.45.56-1.36.8-2.36.74h-1.5v-4.8c0-.64.2-1.46.6-1.72h-2.8c.4.28.6 1.1.6 1.76V16c0 .7-.2 1.5-.6 1.8h5.8l.3-2"/>
  <path fill="#00498F" d="M392.2 37.26c0-2.4 1.8-4.23 4.14-4.23 2.3 0 4.13 1.82 4.13 4.23 0 2.45-1.82 4.26-4.13 4.26-2.33 0-4.15-1.8-4.15-4.26zm4.14 5.1c2.78 0 5.15-2.15 5.15-5.1 0-2.93-2.4-5.08-5.2-5.08-2.8 0-5.2 2.15-5.2 5.08 0 2.95 2.3 5.1 5.1 5.1zm-1.08-4.7h1.03l1.5 2.55h1l-1.7-2.5c.8-.1 1.5-.5 1.5-1.6 0-1.2-.7-1.7-2.1-1.7h-2.3v5.9h.9v-2.6zm0-.75v-1.8h1.22c.62 0 1.28.2 1.28.9 0 .9-.68 1-1.43 1h-1.07z"/>
</svg>
