<svg xmlns="http://www.w3.org/2000/svg" height="82.909" width="300">
  <defs>
    <clipPath id="a">
      <path d="M.015 26.3h98.65V0H.015v26.3z"/>
    </clipPath>
  </defs>
  <g clip-path="url(#a)" transform="matrix(3.00045 0 0 -3.00045 1.955 80.91)">
    <path fill="#0c2850" d="M7.27 19.078l-1.62-.864-.107 1.332 1.692.18.036-.648zm-4.138-3.996c.036-.467-.036-1.188-.288-1.547l-.756.288c.252.36.396.863.396 1.295l.648-.036zm15.01-7.955c2.087 8.603-.36 15.443-7.02 16.235.037-.36.037-.648.037-.936 0-.432-.04-.792-.04-.792l-1.05.18c.03.36.1 2.807-.76 3.347 0 0 0-1.29-.29-2.59l-.98.18c0 .9-.4 1.26-.94 1.51l.25-1.76-.62-.9.28-.82-1.908-.64-.54-1.55-3.34-4.6 1.26-1.51 1.41 1.19.326-.21v-1.77H5c.325 1.26 1.368 2.74 2.34 3.46l-.54.648.792.686.756-.932 2.7.038c.397.864.65 1.908.65 3.13h1.043c0-4.102-2.05-5.72-4.6-8.24-.93-.95-1.76-1.96-1.87-3.33h11.88zm2.59-1.007H3.745v1.043h1.44c.252 3.384 3.49 4.644 5.29 7.38H8.388c-1.008-.36-2.52-2.592-2.52-3.888H3.24l.036 1.08-.864-.72L.108 13.68S0 13.822 0 13.93c0 .108.036.18.036.18l3.636 4.932.647 1.944.97.36L6.3 22.75l-.36 2.447c.97.36 1.907.036 2.375-.43.036.718-.036 1.51-.036 1.51 1.72.18 2.34-.756 2.62-1.8.46-.036.9-.107 1.29-.18.07.216.29.396.54.396.32 0 .54-.252.54-.54v-.144c.75-.26 1.47-.62 2.12-1.01.11.14.25.21.43.21.32 0 .54-.25.54-.54 0-.15-.04-.25-.11-.33.61-.51 1.11-1.12 1.58-1.77.07.03.18.07.25.07.32 0 .57-.25.57-.54 0-.22-.11-.4-.29-.47.36-.65.65-1.37.86-2.12.036.03.11.03.144.03.325 0 .54-.25.54-.54s-.18-.51-.395-.54c.142-.76.25-1.51.323-2.31.32 0 .57-.25.57-.54 0-.32-.25-.54-.54-.58 0-.757-.04-1.585-.11-2.377.29-.037.504-.29.504-.577s-.25-.54-.58-.54h-.037c-.142-.794-.29-1.585-.47-2.414h1.51V6.12"/>
  </g>
  <path fill="#f36717" d="M13.188 78.534h50.977V72.27H13.188v6.264z"/>
  <path fill="#0c2850" d="M294.11 42.03c-.755-.757-1.727-1.08-2.59-1.08-1.405 0-3.24 1.62-4.427 4.968v10.044c0 3.67.43 3.996 5.074 4.32v2.16h-14.795v-2.16c3.78-.324 4.105-.65 4.105-4.32V43.757c0-3.672-.216-3.672-3.673-4.32V37.6c3.457-.648 6.48-1.296 9.29-2.376v6.48h.104c1.837-3.564 4.537-6.37 7.13-6.37 2.052 0 3.672 1.618 3.672 3.346 0 2.485-2.7 4.645-3.89 3.35zm-31.104-3.998c-2.482 0-5.077 2.7-5.722 7.345l9.286-.216c1.19 0 1.405-.32 1.405-1.4 0-2.91-2.053-5.72-4.97-5.72zm9.18 9.398c-.97.108-8.424.648-15.226.864.213 7.127 4.426 10.15 8.64 10.15 2.375 0 4.103-.647 6.263-2.806l1.404 1.944c-3.564 4.428-7.777 5.507-9.72 5.507-7.667 0-12.096-5.84-12.096-12.75 0-8.43 6.38-15.01 12.75-15.01 5.3 0 9.51 4.53 9.51 9.61 0 1.62-.32 2.27-1.51 2.48zm-38.123-9.506c-2.268 0-4.86 2.377-4.86 6.913s2.376 7.777 5.617 7.777c2.373 0 4.644-2.052 4.644-7.02 0-4.213-2.055-7.67-5.4-7.67zm6.91 27.758c-1.51-.54-3.564-.65-6.91-.65-4.644 0-6.696 3.458-6.696 6.05 0 3.673 3.24 6.48 8.1 6.48 5.4 0 8.423-3.563 8.423-7.128 0-2.268-1.296-4.104-2.916-4.752zm8.534-28.946c-.432.972-1.62 2.81-2.593 3.35l-3.132-.325c.864 1.19 1.512 3.57 1.512 5.4 0 6.59-5.94 10.16-11.34 10.16-.323 0-1.187-.11-1.943-.11-1.29.43-2.37 1.95-2.37 2.92 0 .98.97 2.16 3.57 2.16h6.48c3.78 0 8.86 1.84 8.86 7.89 0 6.92-7.24 12.75-15.66 12.75-7.34 0-11.23-4.53-11.23-8.2 0-2.37 1.19-4.21 6.27-8.1-1.83-.64-5.07-2.48-4.86-5.93 2.49-1.08 4.76-3.02 5.73-4.21-2.91-.97-5.61-4.43-5.61-8.313 0-7.02 6.27-10.8 11.45-10.8 2.27 0 4.43.536 6.26 1.51 2.81-.11 5.62-.43 8.21-.753l.43.647zm-30.78 25.706h-12.745v-2.16c3.025-.324 3.457-.65 3.457-4.105V45.593c0-3.888-1.73-6.264-4.97-6.264-2.06 0-4.43 1.51-6.05 3.02v13.82c0 3.45.32 3.78 3.35 4.1v2.16h-13.18v-2.16c3.67-.33 4.21-.65 4.21-4.11V43.75c0-3.672-.22-3.888-3.46-4.32V37.6c3.24-.648 6.26-1.296 9.07-2.376v4.32c1.4-1.188 5.51-4.21 8.64-4.21 4.86 0 7.88 3.346 7.88 8.315v12.52c0 3.45.54 3.78 3.78 4.1v2.16zm-40.178-32.94c-2.06 0-3.68-1.62-3.68-3.672 0-2.16 1.62-3.78 3.67-3.78 2.16 0 3.78 1.62 3.78 3.78 0 2.052-1.62 3.672-3.78 3.672zm7.12 32.94h-13.82v-2.16c3.67-.324 4.21-.65 4.21-4.536V44.08c0-4.21-.33-4.21-3.89-4.643V37.6c3.35-.648 6.7-1.404 9.4-2.376v20.522c0 3.887.32 4.212 4.1 4.536v2.16zM165.04 42.03c-.65-.87-1.512-1.08-2.59-1.08-1.403 0-3.132 1.62-4.32 4.96v10.05c0 3.67.43 3.997 5.074 4.32v2.16H148.52v-2.16c3.673-.323 4.105-.65 4.105-4.32V43.758c0-3.672-.324-3.672-3.672-4.32V37.6c3.24-.648 6.373-1.296 9.18-2.376v6.48h.11c1.944-3.564 4.644-6.37 7.125-6.37 2.163 0 3.675 1.618 3.675 3.346 0 2.485-2.59 4.645-3.997 3.35zm-33.695-2.7c-1.728 0-3.996 1.18-5.4 2.05v15.98c1.19 1.294 3.132 2.265 5.51 2.265 3.13 0 7.235-2.374 7.235-10.474 0-6.8-3.24-9.83-7.344-9.83zm-1.404 23.65c-1.72-.11-3.13-.43-3.99-.76v10.15c0 3.673.43 3.997 5.4 4.43v2.048h-15.23V76.8c3.89-.43 4.21-.754 4.21-4.427V43.54c0-3.78-.1-3.887-3.77-4.21v-1.84c3.24-.645 6.26-1.62 9.4-2.7v4.104l5.84-3.024c.76-.432 1.52-.537 2.27-.537 6.7 0 10.48 5.83 10.48 11.447 0 9.07-6.48 15.228-14.58 16.2zm-30.78.43c-4.1 0-7.34-.975-10.47-2.38-.64-2.807-.86-6.587-1.08-10.475l2.49-.43c1.41 5.29 3.35 10.474 9.83 10.474 4.54 0 7.24-2.81 7.24-7.02 0-11.13-18.47-8.64-18.47-21.5 0-5.83 4.76-11.12 13.18-11.12 2.81 0 5.84.75 8.86 1.83.22 2.27.44 4.86.54 9.39l-2.26.11c-1.08-3.78-2.81-8.43-8.32-8.43-4.1 0-6.16 2.81-6.16 6.15 0 10.26 18.8 8.1 18.8 21.49 0 6.37-5.72 11.88-14.15 11.88"/>
</svg>
