<svg xmlns="http://www.w3.org/2000/svg" viewBox="223.6 78.3 245.5 83.1">
  <g fill-rule="evenodd">
    <path d="M265.144 88.93c4.155 0 9.064.378 10.575 1.133v5.286c0 5.28 3.02 6.04 3.02 6.04v4.91c0 3.4-.76 5.66-.76 5.66-1.51.37-5.29 1.51-9.44 4.53-3.02 2.26-5.67 5.66-5.67 9.06 0 2.26.37 3.77 1.13 5.28 0 0-1.52.75-4.16.75-3.4-.38-7.18-3.02-9.44-7.18-3.02-5.29-4.54-11.71-7.93-11.71-3.4 0-3.4 3.4-6.05 3.4-3.02 0-4.91-4.91-5.67-7.18-1.89-3.4-6.42-4.54-6.8-9.82h14.35V78.73h13.6v8.687c.38.377 1.51.755 3.02 1.132l-1.51 6.79h-4.16l-1.51 6.04h4.15l-1.51 7.55c0 1.13-.38 3.77 0 4.91.75 3.02 2.64 4.15 5.28 4.15 3.78 0 7.17-1.89 7.17-1.89l1.51-4.91h-2.64c-.75 0-1.51 0-1.13-1.89l1.88-7.93h4.16l1.51-6.05H264l1.13-6.42" fill="#be382f"/>
    <path d="M256.836 91.196h5.287l-4.154 19.64h-5.29l4.15-19.64m3.77-7.176c1.51 0 3.02 1.133 3.02 3.02 0 1.512-1.51 2.645-3.03 2.645-1.51 0-3.02-1.133-3.02-2.644 0-1.88 1.51-3.02 3.02-3.02" fill="#be382f"/>
    <path d="M392.037 108.19c3.02 0 4.908.378 5.287.755.755 0 .377-.377.755-.756h.37l1.89 5.28-.76.38c-1.14-1.52-3.4-3.02-7.18-3.02-1.51 0-4.53.37-4.53 2.64 0 4.53 13.97 1.89 13.97 10.95 0 4.15-3.4 7.17-9.82 7.17-2.27 0-4.16-.38-6.04-1.13-.38 0-.76.37-.76.75l-.76.37-2.26-6.8.75-.38c1.88 2.26 4.53 4.15 9.06 4.15 3.77 0 4.91-1.51 4.91-3.02 0-5.29-13.59-1.89-13.59-10.95 0-4.15 4.15-6.42 8.68-6.42m-78.55 23.04v-.76c1.51-.38 2.26-.76 2.26-3.02v-15.48c0-2.27-.76-2.65-2.27-3.03v-.76h17.75l1.89 4.91-.76.38c-1.51-1.89-3.02-2.27-5.67-2.27h-4.15c-1.51 0-1.89.38-1.89 1.51v4.91h6.04c2.26 0 2.64-.38 3.02-1.51h.75v6.04h-.76c-.37-1.13-.75-1.51-3.02-1.51h-6.04v6.04c0 1.51.38 1.51 1.89 1.51h5.29c2.27 0 4.15 0 6.04-2.27l.38.38-1.51 4.91h-19.26" fill="#100e0d"/>
    <path d="M307.82 127.45c0 2.266.755 2.643 1.888 3.022v.755h-9.82v-.755c1.133-.38 2.267-.756 2.267-3.02v-21.905c0-1.134-.756-1.134-2.266-1.134-4.91 0-6.8 0-8.69 1.888h-.38l1.89-5.28h24.54l1.88 5.29h-.76c-1.51-1.88-3.78-1.88-8.69-1.88-1.51 0-1.89 0-1.89 1.14v21.91m60.42-14.73l-3.78 9.07h7.17l-3.4-9.06zm-24.17 7.18l-6.42-8.3c-1.13-1.89-1.89-2.27-3.4-2.64v-.75h10.58v.76c-1.14 0-1.89 1.14-.76 2.65l3.02 4.53 3.78-4.91c.75-1.13.75-2.26-.76-2.26v-.754h8.69v.75c-1.51.38-2.64.75-4.16 2.266l-5.29 7.55 6.42 9.066c.75 1.13 1.51 1.89 1.51 1.89s1.13-.38 2.64-4.15l7.17-17.38h4.54l8.31 19.64c.38 1.13 1.51 2.267 2.64 2.646v.76h-9.82v-.76c.75 0 2.26-.38 1.13-2.64l-1.13-3.02h-9.44l-1.13 3.02c-1.14 2.27.75 2.648 1.13 2.648v.75h-14.7v-.75c.75 0 2.64-.76 1.13-2.644l-3.78-4.91-3.78 5.29c-1.14 1.51 0 2.263.75 2.263v.75h-8.69v-.75c1.51-.38 3.02-1.14 4.15-3.02l5.67-7.56m-118.2 14.74c0-2.27-1.13-2.647-2.26-3.02v-.38h9.82v.375c-.75.378-1.89.757-1.89 3.02v23.04c0 2.266 1.14 2.645 1.89 3.02v.757h-9.82v-.756c1.14-.38 2.27-.76 2.27-3.02v-23.04m31.34 26.81h-.75l-15.48-16.26v12.465c0 2.263 1.14 2.64 1.89 3.02v.754h-6.8v-.75c1.14-.38 1.89-.756 1.89-3.02v-15.5c0-2.265-.75-2.644-1.89-3.02v-.756h6.42l11.71 12.84v-9.07c0-2.266-.75-2.645-1.89-3.02v-.757h7.18v.76c-1.13.37-2.27.75-2.27 3.02v19.26m89.51-7.94c0 6.8-6.04 8.31-9.82 8.31-4.15 0-10.2-1.51-10.2-7.94v-11.7c0-2.27-1.13-3.02-2.26-3.02v-.76h9.44v.75c-1.13 0-2.26.75-2.26 3.02v11.33c0 3.78 2.262 5.29 6.04 5.29 3.4 0 6.04-1.51 6.04-5.29V142.2c0-2.27-1.13-2.65-2.26-3.02v-.76h7.18v.75c-1.13.37-1.89.75-1.89 3.02v11.32m-58.91-10.57c0-1.51 0-1.51-1.13-1.51-3.78 0-4.53 0-6.8 2.64l-.377-.38 1.5-5.274h18.88l1.89 5.288-.76.38c-1.89-2.64-2.64-2.64-6.42-2.64-1.13 0-1.51 0-1.51 1.51v14.73c0 2.27.757 2.648 2.267 3.02v.76h-9.44v-.76c1.508-.38 1.887-.76 1.887-3.02v-14.73m-17.37-4.91c2.64 0 4.53.75 4.91.75.76.38.76-.374.76-.374l.754-.374 1.51 5.66h-.753c-1.138-1.13-3.026-2.64-6.8-2.64-1.89 0-4.91.37-4.91 2.64 0 4.15 14.35 1.89 14.35 10.95 0 4.152-3.4 6.8-9.82 6.8-2.645 0-4.53-.38-6.42-.76-.378 0-.378.38-.757.38 0 .38-.757.38-.757.38l-2.28-6.44.754-.38c1.89 2.27 4.53 4.16 9.064 4.16 3.77 0 4.91-1.51 4.91-3.02 0-5.29-13.6-1.895-13.6-10.96 0-4.15 4.53-6.79 9.07-6.79m106.87 19.63c0 2.264 1.13 2.643 2.26 3.02v.755h-9.44v-.75c1.13-.37 2.26-.75 2.26-3.02V146.7l-8.31 15.107h-.76l-8.3-15.484v11.33c0 2.267 1.136 2.646 2.268 3.023v.755h-7.17v-.75c.758-.37 1.89-.75 1.89-3.02v-15.48c0-2.26-1.132-2.64-1.89-3.02v-.75h7.178l7.553 15.11 8.31-15.1h6.42v.76c-1.134.37-2.267.75-2.267 3.02v15.48m47.59 3.78h-.75l-15.47-16.23v12.47c0 2.27 1.13 2.65 1.89 3.02v.76h-7.17v-.76c1.13-.38 2.27-.76 2.27-3.02v-15.5c0-2.27-.75-2.65-2.26-3.02v-.76h6.8l11.71 12.84v-9.06c0-2.26-1.13-2.64-2.26-3.02v-.75h7.18v.758c-.75.37-1.884.75-1.884 3.02v19.26m-42.67 0v-.76c1.13-.376 1.89-1.13 1.89-3.02V142.2c0-2.266-.75-2.645-1.89-3.02v-.757H400l1.51 4.907-.38.38c-1.51-1.89-3.4-2.266-5.66-2.266h-4.54c-1.13 0-1.51.38-1.51 1.51v4.91h5.66c2.267 0 3.02-.76 3.02-1.51h.754v6.04h-.76c0-1.13-.76-1.51-3.025-1.51h-5.67v6.04c0 1.13.38 1.51 1.51 1.51h5.29c2.26 0 4.53 0 6.04-2.27l.75.38-1.89 4.91h-18.88m53.25-18.51c0-1.51-.38-1.51-1.13-1.51-4.16 0-4.54 0-6.8 2.645l-.38-.38 1.51-5.29h18.88l1.89 5.29-.76.38c-1.89-2.65-2.65-2.65-6.42-2.65-1.13 0-1.51 0-1.51 1.51v14.73c0 2.265.75 2.644 2.26 3.02v.756h-9.44v-.75c1.13-.38 1.89-.76 1.89-3.02v-14.73m23.79-4.91c2.644 0 4.53.75 5.29.75.38.38.38-.38.38-.38.372 0 .75-.38.75-.38l1.51 5.66h-.38c-1.13-1.13-3.4-2.64-7.176-2.64-1.89 0-4.53.37-4.53 2.64 0 4.15 13.97 1.89 13.97 10.95 0 4.15-3.4 6.8-9.82 6.8-2.646 0-4.53-.38-6.42-.76-.38 0-.38.375-.38.375-.377.38-.75.38-.75.38l-2.65-6.42.754-.38c1.89 2.27 4.91 4.156 9.063 4.156 3.777 0 4.91-1.51 4.91-3.02 0-5.29-13.595-1.89-13.595-10.95 0-4.16 4.53-6.8 9.063-6.8m-150.3 10.57h3.02c2.65 0 5.67-1.14 5.67-3.78 0-1.51-1.135-3.78-4.533-3.78h-2.647c-1.13 0-1.51.38-1.51 1.89v5.668zm5.29-10.2c4.91 0 8.69 1.89 8.69 6.04 0 4.53-4.154 5.29-6.42 5.667 6.04 2.26 6.42 10.19 10.195 10.19v.38c-.75.38-1.51.756-3.39.756-8.31 0-6.42-10.2-11.71-10.2h-2.64v6.42c0 2.266.757 2.645 1.89 3.02v.757h-9.06v-.76c1.133-.377 1.89-.756 1.89-3.02v-15.48c0-2.266-.756-2.645-1.89-3.02v-.757h12.464" fill="#100e0d"/>
  </g>
</svg>
